  0
SECTION
  2
HEADER
  9
$ACADVER
  1
AC1014
  9
$HANDSEED
  5
FFFF
  9
$MEASUREMENT
 70
     1
  0
ENDSEC
  0
SECTION
  2
TABLES
  0
TABLE
  2
VPORT
  5
8
330
0
100
AcDbSymbolTable
 70
     4
  0
VPORT
  5
2E
330
8
100
AcDbSymbolTableRecord
100
AcDbViewportTableRecord
  2
*ACTIVE
 70
     0
 10
0.0
 20
0.0
 11
1.0
 21
1.0
 12
210.0
 22
148.5
 13
0.0
 23
0.0
 14
10.0
 24
10.0
 15
10.0
 25
10.0
 16
0.0
 26
0.0
 36
1.0
 17
0.0
 27
0.0
 37
0.0
 40
341.0
 41
1.24
 42
50.0
 43
0.0
 44
0.0
 50
0.0
 51
0.0
 71
     0
 72
   100
 73
     1
 74
     3
 75
     0
 76
     0
 77
     0
 78
     0
  0
ENDTAB
  0
TABLE
  2
LTYPE
  5
5
330
0
100
AcDbSymbolTable
 70
     1
  0
LTYPE
  5
14
330
5
100
AcDbSymbolTableRecord
100
AcDbLinetypeTableRecord
  2
BYBLOCK
 70
     0
  3

 72
    65
 73
     0
 40
0.0
  0
LTYPE
  5
15
330
5
100
AcDbSymbolTableRecord
100
AcDbLinetypeTableRecord
  2
BYLAYER
 70
     0
  3

 72
    65
 73
     0
 40
0.0
  0
LTYPE
  5
16
330
5
100
AcDbSymbolTableRecord
100
AcDbLinetypeTableRecord
  2
CONTINUOUS
 70
     0
  3
Solid line
 72
    65
 73
     0
 40
0.0
  0
ENDTAB
  0
TABLE
  2
LAYER
  5
2
100
AcDbSymbolTable
 70
2
  0
LAYER
  5
50
100
AcDbSymbolTableRecord
100
AcDbLayerTableRecord
  2
0
 70
0
  6
CONTINUOUS
  0
LAYER
  5
51
100
AcDbSymbolTableRecord
100
AcDbLayerTableRecord
  2
Layer_1
 70
0
  6
CONTINUOUS
  0
ENDTAB
  0
TABLE
  2
STYLE
  5
3
330
0
100
AcDbSymbolTable
 70
     1
  0
STYLE
  5
11
330
3
100
AcDbSymbolTableRecord
100
AcDbTextStyleTableRecord
  2
STANDARD
 70
     0
 40
0.0
 41
1.0
 50
0.0
 71
     0
 42
2.5
  3
txt
  4

  0
ENDTAB
  0
TABLE
  2
VIEW
  5
6
330
0
100
AcDbSymbolTable
 70
     0
  0
ENDTAB
  0
TABLE
  2
UCS
  5
7
330
0
100
AcDbSymbolTable
 70
     0
  0
ENDTAB
  0
TABLE
  2
APPID
  5
9
330
0
100
AcDbSymbolTable
 70
     2
  0
APPID
  5
12
330
9
100
AcDbSymbolTableRecord
100
AcDbRegAppTableRecord
  2
ACAD
 70
     0
  0
ENDTAB
  0
TABLE
  2
DIMSTYLE
  5
A
330
0
100
AcDbSymbolTable
 70
     1
  0
DIMSTYLE
105
27
330
A
100
AcDbSymbolTableRecord
100
AcDbDimStyleTableRecord
  2
ISO-25
 70
     0
  3

  4

  5

  6

  7

 40
1.0
 41
2.5
 42
0.625
 43
3.75
 44
1.25
 45
0.0
 46
0.0
 47
0.0
 48
0.0
140
2.5
141
2.5
142
0.0
143
0.03937007874016
144
1.0
145
0.0
146
1.0
147
0.625
 71
     0
 72
     0
 73
     0
 74
     0
 75
     0
 76
     0
 77
     1
 78
     8
170
     0
171
     3
172
     1
173
     0
174
     0
175
     0
176
     0
177
     0
178
     0
270
     2
271
     2
272
     2
273
     2
274
     3
340
11
275
     0
280
     0
281
     0
282
     0
283
     0
284
     8
285
     0
286
     0
287
     3
288
     0
  0
ENDTAB
  0
TABLE
  2
BLOCK_RECORD
  5
1
330
0
100
AcDbSymbolTable
 70
     1
  0
BLOCK_RECORD
  5
1F
330
1
100
AcDbSymbolTableRecord
100
AcDbBlockTableRecord
  2
*MODEL_SPACE
  0
BLOCK_RECORD
  5
1B
330
1
100
AcDbSymbolTableRecord
100
AcDbBlockTableRecord
  2
*PAPER_SPACE
  0
ENDTAB
  0
ENDSEC
  0
SECTION
  2
BLOCKS
  0
BLOCK
  5
20
330
1F
100
AcDbEntity
  8
0
100
AcDbBlockBegin
  2
*MODEL_SPACE
 70
     0
 10
0.0
 20
0.0
 30
0.0
  3
*MODEL_SPACE
  1

  0
ENDBLK
  5
21
330
1F
100
AcDbEntity
  8
0
100
AcDbBlockEnd
  0
BLOCK
  5
1C
330
1B
100
AcDbEntity
 67
     1
  8
0
100
AcDbBlockBegin
  2
*PAPER_SPACE
  1

  0
ENDBLK
  5
1D
330
1B
100
AcDbEntity
 67
     1
  8
0
100
AcDbBlockEnd
  0
ENDSEC
  0
SECTION
  2
ENTITIES
  0
SPLINE
  5
100
100
AcDbEntity
  8
Layer_1
 62
1
100
AcDbSpline
 70
8
 71
3
 72
8
 73
4
 74
0
 40
0
 40
0
 40
0
 40
0
 40
1
 40
1
 40
1
 40
1
 10
186.233585
 20
223.971480
 30
0.0
 10
186.797875
 20
223.406715
 30
0.0
 10
186.797496
 20
222.491436
 30
0.0
 10
186.232738
 20
221.927138
 30
0.0
  0
SPLINE
  5
101
100
AcDbEntity
  8
Layer_1
 62
1
100
AcDbSpline
 70
8
 71
3
 72
8
 73
4
 74
0
 40
0
 40
0
 40
0
 40
0
 40
1
 40
1
 40
1
 40
1
 10
186.232738
 20
221.927138
 30
0.0
 10
185.668051
 20
221.362769
 30
0.0
 10
184.752772
 20
221.363022
 30
0.0
 10
184.188396
 20
221.927702
 30
0.0
  0
SPLINE
  5
102
100
AcDbEntity
  8
Layer_1
 62
1
100
AcDbSpline
 70
8
 71
3
 72
8
 73
4
 74
0
 40
0
 40
0
 40
0
 40
0
 40
1
 40
1
 40
1
 40
1
 10
184.188396
 20
221.927702
 30
0.0
 10
183.917409
 20
222.198913
 30
0.0
 10
183.765259
 20
222.566665
 30
0.0
 10
183.765418
 20
222.950057
 30
0.0
  0
SPLINE
  5
103
100
AcDbEntity
  8
Layer_1
 62
1
100
AcDbSpline
 70
8
 71
3
 72
8
 73
4
 74
0
 40
0
 40
0
 40
0
 40
0
 40
1
 40
1
 40
1
 40
1
 10
183.765418
 20
222.950057
 30
0.0
 10
183.765577
 20
223.333449
 30
0.0
 10
183.918031
 20
223.701075
 30
0.0
 10
184.189243
 20
223.972061
 30
0.0
  0
SPLINE
  5
104
100
AcDbEntity
  8
Layer_1
 62
1
100
AcDbSpline
 70
8
 71
3
 72
8
 73
4
 74
0
 40
0
 40
0
 40
0
 40
0
 40
1
 40
1
 40
1
 40
1
 10
184.189243
 20
223.972061
 30
0.0
 10
184.460454
 20
224.243048
 30
0.0
 10
184.828206
 20
224.395198
 30
0.0
 10
185.211598
 20
224.395040
 30
0.0
  0
SPLINE
  5
105
100
AcDbEntity
  8
Layer_1
 62
1
100
AcDbSpline
 70
8
 71
3
 72
8
 73
4
 74
0
 40
0
 40
0
 40
0
 40
0
 40
1
 40
1
 40
1
 40
1
 10
185.211598
 20
224.395040
 30
0.0
 10
185.594989
 20
224.394881
 30
0.0
 10
185.962615
 20
224.242426
 30
0.0
 10
186.233602
 20
223.971214
 30
0.0
  0
LINE
  5
106
100
AcDbEntity
  8
Layer_1
 62
1
100
AcDbLine
 10
186.233602
 20
223.971214
 30
0.0
 11
186.233585
 21
223.971480
 31
0.0
  0
SPLINE
  5
107
100
AcDbEntity
  8
Layer_1
 62
1
100
AcDbSpline
 70
8
 71
3
 72
8
 73
4
 74
0
 40
0
 40
0
 40
0
 40
0
 40
1
 40
1
 40
1
 40
1
 10
195.232658
 20
233.121522
 30
0.0
 10
195.796950
 20
232.556757
 30
0.0
 10
195.796571
 20
231.641475
 30
0.0
 10
195.231811
 20
231.077178
 30
0.0
  0
SPLINE
  5
108
100
AcDbEntity
  8
Layer_1
 62
1
100
AcDbSpline
 70
8
 71
3
 72
8
 73
4
 74
0
 40
0
 40
0
 40
0
 40
0
 40
1
 40
1
 40
1
 40
1
 10
195.231811
 20
231.077178
 30
0.0
 10
194.667046
 20
230.512889
 30
0.0
 10
193.751770
 20
230.513268
 30
0.0
 10
193.187472
 20
231.078024
 30
0.0
  0
SPLINE
  5
109
100
AcDbEntity
  8
Layer_1
 62
1
100
AcDbSpline
 70
8
 71
3
 72
8
 73
4
 74
0
 40
0
 40
0
 40
0
 40
0
 40
1
 40
1
 40
1
 40
1
 10
193.187472
 20
231.078024
 30
0.0
 10
192.916449
 20
231.349197
 30
0.0
 10
192.764248
 20
231.716928
 30
0.0
 10
192.764354
 20
232.100319
 30
0.0
  0
SPLINE
  5
10a
100
AcDbEntity
  8
Layer_1
 62
1
100
AcDbSpline
 70
8
 71
3
 72
8
 73
4
 74
0
 40
0
 40
0
 40
0
 40
0
 40
1
 40
1
 40
1
 40
1
 10
192.764354
 20
232.100319
 30
0.0
 10
192.764460
 20
232.483710
 30
0.0
 10
192.916863
 20
232.851357
 30
0.0
 10
193.188037
 20
233.122380
 30
0.0
  0
SPLINE
  5
10b
100
AcDbEntity
  8
Layer_1
 62
1
100
AcDbSpline
 70
8
 71
3
 72
8
 73
4
 74
0
 40
0
 40
0
 40
0
 40
0
 40
1
 40
1
 40
1
 40
1
 10
193.188037
 20
233.122380
 30
0.0
 10
193.459247
 20
233.393367
 30
0.0
 10
193.827000
 20
233.545517
 30
0.0
 10
194.210391
 20
233.545359
 30
0.0
  0
SPLINE
  5
10c
100
AcDbEntity
  8
Layer_1
 62
1
100
AcDbSpline
 70
8
 71
3
 72
8
 73
4
 74
0
 40
0
 40
0
 40
0
 40
0
 40
1
 40
1
 40
1
 40
1
 10
194.210391
 20
233.545359
 30
0.0
 10
194.593783
 20
233.545200
 30
0.0
 10
194.961409
 20
233.392745
 30
0.0
 10
195.232395
 20
233.121533
 30
0.0
  0
LINE
  5
10d
100
AcDbEntity
  8
Layer_1
 62
1
100
AcDbLine
 10
195.232395
 20
233.121533
 30
0.0
 11
195.232658
 21
233.121522
 31
0.0
  0
SPLINE
  5
10e
100
AcDbEntity
  8
Layer_1
 62
1
100
AcDbSpline
 70
8
 71
3
 72
8
 73
4
 74
0
 40
0
 40
0
 40
0
 40
0
 40
1
 40
1
 40
1
 40
1
 10
186.157354
 20
231.001686
 30
0.0
 10
185.592588
 20
230.437395
 30
0.0
 10
184.677309
 20
230.437774
 30
0.0
 10
184.113012
 20
231.002533
 30
0.0
  0
SPLINE
  5
10f
100
AcDbEntity
  8
Layer_1
 62
1
100
AcDbSpline
 70
8
 71
3
 72
8
 73
4
 74
0
 40
0
 40
0
 40
0
 40
0
 40
1
 40
1
 40
1
 40
1
 10
184.113012
 20
231.002533
 30
0.0
 10
183.548721
 20
231.567298
 30
0.0
 10
183.549100
 20
232.482577
 30
0.0
 10
184.113859
 20
233.046874
 30
0.0
  0
SPLINE
  5
110
100
AcDbEntity
  8
Layer_1
 62
1
100
AcDbSpline
 70
8
 71
3
 72
8
 73
4
 74
0
 40
0
 40
0
 40
0
 40
0
 40
1
 40
1
 40
1
 40
1
 10
184.113859
 20
233.046874
 30
0.0
 10
184.385069
 20
233.317862
 30
0.0
 10
184.752821
 20
233.470012
 30
0.0
 10
185.136213
 20
233.469853
 30
0.0
  0
SPLINE
  5
111
100
AcDbEntity
  8
Layer_1
 62
1
100
AcDbSpline
 70
8
 71
3
 72
8
 73
4
 74
0
 40
0
 40
0
 40
0
 40
0
 40
1
 40
1
 40
1
 40
1
 10
185.136213
 20
233.469853
 30
0.0
 10
185.519605
 20
233.469694
 30
0.0
 10
185.887231
 20
233.317239
 30
0.0
 10
186.158217
 20
233.046028
 30
0.0
  0
SPLINE
  5
112
100
AcDbEntity
  8
Layer_1
 62
1
100
AcDbSpline
 70
8
 71
3
 72
8
 73
4
 74
0
 40
0
 40
0
 40
0
 40
0
 40
1
 40
1
 40
1
 40
1
 10
186.158217
 20
233.046028
 30
0.0
 10
186.429204
 20
232.774817
 30
0.0
 10
186.581354
 20
232.407065
 30
0.0
 10
186.581196
 20
232.023673
 30
0.0
  0
SPLINE
  5
113
100
AcDbEntity
  8
Layer_1
 62
1
100
AcDbSpline
 70
8
 71
3
 72
8
 73
4
 74
0
 40
0
 40
0
 40
0
 40
0
 40
1
 40
1
 40
1
 40
1
 10
186.581196
 20
232.023673
 30
0.0
 10
186.581037
 20
231.640281
 30
0.0
 10
186.428582
 20
231.272655
 30
0.0
 10
186.157370
 20
231.001669
 30
0.0
  0
LINE
  5
114
100
AcDbEntity
  8
Layer_1
 62
1
100
AcDbLine
 10
186.157370
 20
231.001669
 30
0.0
 11
186.157354
 21
231.001686
 31
0.0
  0
SPLINE
  5
115
100
AcDbEntity
  8
Layer_1
 62
1
100
AcDbSpline
 70
8
 71
3
 72
8
 73
4
 74
0
 40
0
 40
0
 40
0
 40
0
 40
1
 40
1
 40
1
 40
1
 10
195.307396
 20
222.002613
 30
0.0
 10
194.742630
 20
221.438320
 30
0.0
 10
193.827349
 20
221.438699
 30
0.0
 10
193.263052
 20
222.003459
 30
0.0
  0
SPLINE
  5
116
100
AcDbEntity
  8
Layer_1
 62
1
100
AcDbSpline
 70
8
 71
3
 72
8
 73
4
 74
0
 40
0
 40
0
 40
0
 40
0
 40
1
 40
1
 40
1
 40
1
 10
193.263052
 20
222.003459
 30
0.0
 10
192.698763
 20
222.568224
 30
0.0
 10
192.699142
 20
223.483501
 30
0.0
 10
193.263898
 20
224.047798
 30
0.0
  0
SPLINE
  5
117
100
AcDbEntity
  8
Layer_1
 62
1
100
AcDbSpline
 70
8
 71
3
 72
8
 73
4
 74
0
 40
0
 40
0
 40
0
 40
0
 40
1
 40
1
 40
1
 40
1
 10
193.263898
 20
224.047798
 30
0.0
 10
193.535071
 20
224.318822
 30
0.0
 10
193.902802
 20
224.471022
 30
0.0
 10
194.286193
 20
224.470916
 30
0.0
  0
SPLINE
  5
118
100
AcDbEntity
  8
Layer_1
 62
1
100
AcDbSpline
 70
8
 71
3
 72
8
 73
4
 74
0
 40
0
 40
0
 40
0
 40
0
 40
1
 40
1
 40
1
 40
1
 10
194.286193
 20
224.470916
 30
0.0
 10
194.669584
 20
224.470811
 30
0.0
 10
195.037230
 20
224.318407
 30
0.0
 10
195.308254
 20
224.047234
 30
0.0
  0
SPLINE
  5
119
100
AcDbEntity
  8
Layer_1
 62
1
100
AcDbSpline
 70
8
 71
3
 72
8
 73
4
 74
0
 40
0
 40
0
 40
0
 40
0
 40
1
 40
1
 40
1
 40
1
 10
195.308254
 20
224.047234
 30
0.0
 10
195.579241
 20
223.776023
 30
0.0
 10
195.731391
 20
223.408271
 30
0.0
 10
195.731232
 20
223.024879
 30
0.0
  0
SPLINE
  5
11a
100
AcDbEntity
  8
Layer_1
 62
1
100
AcDbSpline
 70
8
 71
3
 72
8
 73
4
 74
0
 40
0
 40
0
 40
0
 40
0
 40
1
 40
1
 40
1
 40
1
 10
195.731232
 20
223.024879
 30
0.0
 10
195.731074
 20
222.641487
 30
0.0
 10
195.578619
 20
222.273861
 30
0.0
 10
195.307407
 20
222.002875
 30
0.0
  0
LINE
  5
11b
100
AcDbEntity
  8
Layer_1
 62
1
100
AcDbLine
 10
195.307407
 20
222.002875
 30
0.0
 11
195.307396
 21
222.002613
 31
0.0
  0
SPLINE
  5
11c
100
AcDbEntity
  8
Layer_1
 62
1
100
AcDbSpline
 70
8
 71
3
 72
8
 73
4
 74
0
 40
0
 40
0
 40
0
 40
0
 40
1
 40
1
 40
1
 40
1
 10
190.733107
 20
228.546514
 30
0.0
 10
191.004095
 20
228.275303
 30
0.0
 10
191.156246
 20
227.907550
 30
0.0
 10
191.156087
 20
227.524158
 30
0.0
  0
SPLINE
  5
11d
100
AcDbEntity
  8
Layer_1
 62
1
100
AcDbSpline
 70
8
 71
3
 72
8
 73
4
 74
0
 40
0
 40
0
 40
0
 40
0
 40
1
 40
1
 40
1
 40
1
 10
191.156087
 20
227.524158
 30
0.0
 10
191.155928
 20
227.140765
 30
0.0
 10
191.003473
 20
226.773138
 30
0.0
 10
190.732260
 20
226.502152
 30
0.0
  0
SPLINE
  5
11e
100
AcDbEntity
  8
Layer_1
 62
1
100
AcDbSpline
 70
8
 71
3
 72
8
 73
4
 74
0
 40
0
 40
0
 40
0
 40
0
 40
1
 40
1
 40
1
 40
1
 10
190.732260
 20
226.502152
 30
0.0
 10
190.167729
 20
225.937630
 30
0.0
 10
189.252453
 20
225.937630
 30
0.0
 10
188.687922
 20
226.502152
 30
0.0
  0
SPLINE
  5
11f
100
AcDbEntity
  8
Layer_1
 62
1
100
AcDbSpline
 70
8
 71
3
 72
8
 73
4
 74
0
 40
0
 40
0
 40
0
 40
0
 40
1
 40
1
 40
1
 40
1
 10
188.687922
 20
226.502152
 30
0.0
 10
188.416933
 20
226.773363
 30
0.0
 10
188.264783
 20
227.141116
 30
0.0
 10
188.264942
 20
227.524508
 30
0.0
  0
SPLINE
  5
120
100
AcDbEntity
  8
Layer_1
 62
1
100
AcDbSpline
 70
8
 71
3
 72
8
 73
4
 74
0
 40
0
 40
0
 40
0
 40
0
 40
1
 40
1
 40
1
 40
1
 10
188.264942
 20
227.524508
 30
0.0
 10
188.265100
 20
227.907901
 30
0.0
 10
188.417556
 20
228.275527
 30
0.0
 10
188.688768
 20
228.546514
 30
0.0
  0
SPLINE
  5
121
100
AcDbEntity
  8
Layer_1
 62
1
100
AcDbSpline
 70
8
 71
3
 72
8
 73
4
 74
0
 40
0
 40
0
 40
0
 40
0
 40
1
 40
1
 40
1
 40
1
 10
188.688768
 20
228.546514
 30
0.0
 10
188.959867
 20
228.817613
 30
0.0
 10
189.327556
 20
228.969915
 30
0.0
 10
189.710948
 20
228.969915
 30
0.0
  0
SPLINE
  5
122
100
AcDbEntity
  8
Layer_1
 62
1
100
AcDbSpline
 70
8
 71
3
 72
8
 73
4
 74
0
 40
0
 40
0
 40
0
 40
0
 40
1
 40
1
 40
1
 40
1
 10
189.710948
 20
228.969915
 30
0.0
 10
190.094339
 20
228.969915
 30
0.0
 10
190.462028
 20
228.817613
 30
0.0
 10
190.733127
 20
228.546514
 30
0.0
  0
LINE
  5
123
100
AcDbEntity
  8
Layer_1
 62
1
100
AcDbLine
 10
190.733127
 20
228.546514
 30
0.0
 11
190.733107
 21
228.546514
 31
0.0
  0
LINE
  5
124
100
AcDbEntity
  8
Layer_1
 62
3
100
AcDbLine
 10
188.108226
 20
290.435631
 30
0.0
 11
187.357487
 21
287.412777
 31
0.0
  0
LINE
  5
125
100
AcDbEntity
  8
Layer_1
 62
3
100
AcDbLine
 10
187.357487
 20
287.412777
 30
0.0
 11
187.348173
 21
287.287103
 31
0.0
  0
SPLINE
  5
126
100
AcDbEntity
  8
Layer_1
 62
3
100
AcDbSpline
 70
8
 71
3
 72
8
 73
4
 74
0
 40
0
 40
0
 40
0
 40
0
 40
1
 40
1
 40
1
 40
1
 10
187.348173
 20
287.287103
 30
0.0
 10
185.791029
 20
287.234946
 30
0.0
 10
184.236514
 20
287.122037
 30
0.0
 10
182.688176
 20
286.948634
 30
0.0
  0
LINE
  5
127
100
AcDbEntity
  8
Layer_1
 62
3
100
AcDbLine
 10
182.688176
 20
286.948634
 30
0.0
 11
182.665599
 21
287.043461
 31
0.0
  0
LINE
  5
128
100
AcDbEntity
  8
Layer_1
 62
3
100
AcDbLine
 10
182.665599
 20
287.043461
 30
0.0
 11
181.451253
 21
289.911431
 31
0.0
  0
LINE
  5
129
100
AcDbEntity
  8
Layer_1
 62
3
100
AcDbLine
 10
181.451253
 20
289.911431
 30
0.0
 11
178.286187
 21
289.410374
 31
0.0
  0
LINE
  5
12a
100
AcDbEntity
  8
Layer_1
 62
3
100
AcDbLine
 10
178.286187
 20
289.410374
 30
0.0
 11
178.017737
 21
286.307595
 31
0.0
  0
SPLINE
  5
12b
100
AcDbEntity
  8
Layer_1
 62
3
100
AcDbSpline
 70
8
 71
3
 72
8
 73
4
 74
0
 40
0
 40
0
 40
0
 40
0
 40
1
 40
1
 40
1
 40
1
 10
178.017737
 20
286.307595
 30
0.0
 10
178.017737
 20
286.307595
 30
0.0
 10
178.022817
 20
286.243079
 30
0.0
 10
178.022817
 20
286.243079
 30
0.0
  0
SPLINE
  5
12c
100
AcDbEntity
  8
Layer_1
 62
3
100
AcDbSpline
 70
8
 71
3
 72
8
 73
4
 74
0
 40
0
 40
0
 40
0
 40
0
 40
1
 40
1
 40
1
 40
1
 10
178.022817
 20
286.243079
 30
0.0
 10
176.495689
 20
285.923487
 30
0.0
 10
174.981634
 20
285.544333
 30
0.0
 10
173.484119
 20
285.106485
 30
0.0
  0
LINE
  5
12d
100
AcDbEntity
  8
Layer_1
 62
3
100
AcDbLine
 10
173.484119
 20
285.106485
 30
0.0
 11
173.441673
 21
285.209017
 31
0.0
  0
LINE
  5
12e
100
AcDbEntity
  8
Layer_1
 62
3
100
AcDbLine
 10
173.441673
 20
285.209017
 30
0.0
 11
171.794088
 21
287.851548
 31
0.0
  0
LINE
  5
12f
100
AcDbEntity
  8
Layer_1
 62
3
100
AcDbLine
 10
171.794088
 20
287.851548
 30
0.0
 11
168.745862
 21
286.861004
 31
0.0
  0
LINE
  5
130
100
AcDbEntity
  8
Layer_1
 62
3
100
AcDbLine
 10
168.745862
 20
286.861004
 30
0.0
 11
168.966334
 21
283.754359
 31
0.0
  0
LINE
  5
131
100
AcDbEntity
  8
Layer_1
 62
3
100
AcDbLine
 10
168.966334
 20
283.754359
 30
0.0
 11
168.996673
 21
283.629221
 31
0.0
  0
SPLINE
  5
132
100
AcDbEntity
  8
Layer_1
 62
3
100
AcDbSpline
 70
8
 71
3
 72
8
 73
4
 74
0
 40
0
 40
0
 40
0
 40
0
 40
1
 40
1
 40
1
 40
1
 10
168.996673
 20
283.629221
 30
0.0
 10
167.535442
 20
283.092992
 30
0.0
 10
166.095673
 20
282.499992
 30
0.0
 10
164.680649
 20
281.851574
 30
0.0
  0
LINE
  5
133
100
AcDbEntity
  8
Layer_1
 62
3
100
AcDbLine
 10
164.680649
 20
281.851574
 30
0.0
 11
164.618362
 21
281.953541
 31
0.0
  0
LINE
  5
134
100
AcDbEntity
  8
Layer_1
 62
3
100
AcDbLine
 10
164.618362
 20
281.953541
 30
0.0
 11
162.577218
 21
284.306131
 31
0.0
  0
LINE
  5
135
100
AcDbEntity
  8
Layer_1
 62
3
100
AcDbLine
 10
162.577218
 20
284.306131
 30
0.0
 11
159.721920
 21
282.850909
 31
0.0
  0
LINE
  5
136
100
AcDbEntity
  8
Layer_1
 62
3
100
AcDbLine
 10
159.721920
 20
282.850909
 30
0.0
 11
160.425274
 21
279.817006
 31
0.0
  0
LINE
  5
137
100
AcDbEntity
  8
Layer_1
 62
3
100
AcDbLine
 10
160.425274
 20
279.817006
 30
0.0
 11
160.456685
 21
279.740975
 31
0.0
  0
SPLINE
  5
138
100
AcDbEntity
  8
Layer_1
 62
3
100
AcDbSpline
 70
8
 71
3
 72
8
 73
4
 74
0
 40
0
 40
0
 40
0
 40
0
 40
1
 40
1
 40
1
 40
1
 10
160.456685
 20
279.740975
 30
0.0
 10
159.095228
 20
278.977845
 30
0.0
 10
157.764126
 20
278.161778
 30
0.0
 10
156.466430
 20
277.294645
 30
0.0
  0
LINE
  5
139
100
AcDbEntity
  8
Layer_1
 62
3
100
AcDbLine
 10
156.466430
 20
277.294645
 30
0.0
 11
156.412413
 21
277.358032
 31
0.0
  0
LINE
  5
13a
100
AcDbEntity
  8
Layer_1
 62
3
100
AcDbLine
 10
156.412413
 20
277.358032
 30
0.0
 11
154.028422
 21
279.362261
 31
0.0
  0
LINE
  5
13b
100
AcDbEntity
  8
Layer_1
 62
3
100
AcDbLine
 10
154.028422
 20
279.362261
 30
0.0
 11
151.436042
 21
277.478767
 31
0.0
  0
LINE
  5
13c
100
AcDbEntity
  8
Layer_1
 62
3
100
AcDbLine
 10
151.436042
 20
277.478767
 30
0.0
 11
152.605176
 21
274.592028
 31
0.0
  0
SPLINE
  5
13d
100
AcDbEntity
  8
Layer_1
 62
3
100
AcDbSpline
 70
8
 71
3
 72
8
 73
4
 74
0
 40
0
 40
0
 40
0
 40
0
 40
1
 40
1
 40
1
 40
1
 10
152.605176
 20
274.592028
 30
0.0
 10
152.605176
 20
274.592028
 30
0.0
 10
152.667998
 20
274.490061
 30
0.0
 10
152.667998
 20
274.490061
 30
0.0
  0
SPLINE
  5
13e
100
AcDbEntity
  8
Layer_1
 62
3
100
AcDbSpline
 70
8
 71
3
 72
8
 73
4
 74
0
 40
0
 40
0
 40
0
 40
0
 40
1
 40
1
 40
1
 40
1
 10
152.667998
 20
274.490061
 30
0.0
 10
151.447709
 20
273.523741
 30
0.0
 10
150.265561
 20
272.510207
 30
0.0
 10
149.124249
 20
271.451770
 30
0.0
  0
LINE
  5
13f
100
AcDbEntity
  8
Layer_1
 62
3
100
AcDbLine
 10
149.124249
 20
271.451770
 30
0.0
 11
149.026685
 21
271.535562
 31
0.0
  0
LINE
  5
140
100
AcDbEntity
  8
Layer_1
 62
3
100
AcDbLine
 10
149.026685
 20
271.535562
 30
0.0
 11
146.358810
 21
273.142337
 31
0.0
  0
LINE
  5
141
100
AcDbEntity
  8
Layer_1
 62
3
100
AcDbLine
 10
146.358810
 20
273.142337
 30
0.0
 11
144.092763
 21
270.876291
 31
0.0
  0
LINE
  5
142
100
AcDbEntity
  8
Layer_1
 62
3
100
AcDbLine
 10
144.092763
 20
270.876291
 30
0.0
 11
145.699003
 21
268.207851
 31
0.0
  0
LINE
  5
143
100
AcDbEntity
  8
Layer_1
 62
3
100
AcDbLine
 10
145.699003
 20
268.207851
 30
0.0
 11
145.770659
 21
268.124088
 31
0.0
  0
SPLINE
  5
144
100
AcDbEntity
  8
Layer_1
 62
3
100
AcDbSpline
 70
8
 71
3
 72
8
 73
4
 74
0
 40
0
 40
0
 40
0
 40
0
 40
1
 40
1
 40
1
 40
1
 10
145.770659
 20
268.124088
 30
0.0
 10
144.700377
 20
266.988663
 30
0.0
 10
143.674883
 20
265.811839
 30
0.0
 10
142.696525
 20
264.596310
 30
0.0
  0
LINE
  5
145
100
AcDbEntity
  8
Layer_1
 62
3
100
AcDbLine
 10
142.696525
 20
264.596310
 30
0.0
 11
142.643073
 21
264.629386
 31
0.0
  0
LINE
  5
146
100
AcDbEntity
  8
Layer_1
 62
3
100
AcDbLine
 10
142.643073
 20
264.629386
 30
0.0
 11
139.756334
 21
265.798520
 31
0.0
  0
LINE
  5
147
100
AcDbEntity
  8
Layer_1
 62
3
100
AcDbLine
 10
139.756334
 20
265.798520
 30
0.0
 11
137.872840
 21
263.206140
 31
0.0
  0
LINE
  5
148
100
AcDbEntity
  8
Layer_1
 62
3
100
AcDbLine
 10
137.872840
 20
263.206140
 30
0.0
 11
139.876505
 21
260.822124
 31
0.0
  0
SPLINE
  5
149
100
AcDbEntity
  8
Layer_1
 62
3
100
AcDbSpline
 70
8
 71
3
 72
8
 73
4
 74
0
 40
0
 40
0
 40
0
 40
0
 40
1
 40
1
 40
1
 40
1
 10
139.876505
 20
260.822124
 30
0.0
 10
139.876505
 20
260.822124
 30
0.0
 10
139.951491
 20
260.758201
 30
0.0
 10
139.951491
 20
260.758201
 30
0.0
  0
SPLINE
  5
14a
100
AcDbEntity
  8
Layer_1
 62
3
100
AcDbSpline
 70
8
 71
3
 72
8
 73
4
 74
0
 40
0
 40
0
 40
0
 40
0
 40
1
 40
1
 40
1
 40
1
 10
139.951491
 20
260.758201
 30
0.0
 10
139.094120
 20
259.457856
 30
0.0
 10
138.287809
 20
258.124556
 30
0.0
 10
137.534399
 20
256.761342
 30
0.0
  0
LINE
  5
14b
100
AcDbEntity
  8
Layer_1
 62
3
100
AcDbLine
 10
137.534399
 20
256.761342
 30
0.0
 11
137.417531
 21
256.809827
 31
0.0
  0
LINE
  5
14c
100
AcDbEntity
  8
Layer_1
 62
3
100
AcDbLine
 10
137.417531
 20
256.809827
 30
0.0
 11
134.383642
 21
257.513182
 31
0.0
  0
LINE
  5
14d
100
AcDbEntity
  8
Layer_1
 62
3
100
AcDbLine
 10
134.383642
 20
257.513182
 30
0.0
 11
132.928984
 21
254.657883
 31
0.0
  0
LINE
  5
14e
100
AcDbEntity
  8
Layer_1
 62
3
100
AcDbLine
 10
132.928984
 20
254.657883
 30
0.0
 11
135.281024
 21
252.616739
 31
0.0
  0
SPLINE
  5
14f
100
AcDbEntity
  8
Layer_1
 62
3
100
AcDbSpline
 70
8
 71
3
 72
8
 73
4
 74
0
 40
0
 40
0
 40
0
 40
0
 40
1
 40
1
 40
1
 40
1
 10
135.281024
 20
252.616739
 30
0.0
 10
135.281024
 20
252.616739
 30
0.0
 10
135.388522
 20
252.551150
 30
0.0
 10
135.388522
 20
252.551150
 30
0.0
  0
SPLINE
  5
150
100
AcDbEntity
  8
Layer_1
 62
3
100
AcDbSpline
 70
8
 71
3
 72
8
 73
4
 74
0
 40
0
 40
0
 40
0
 40
0
 40
1
 40
1
 40
1
 40
1
 10
135.388522
 20
252.551150
 30
0.0
 10
134.728053
 20
251.140111
 30
0.0
 10
134.122903
 20
249.703833
 30
0.0
 10
133.574454
 20
248.245596
 30
0.0
  0
LINE
  5
151
100
AcDbEntity
  8
Layer_1
 62
3
100
AcDbLine
 10
133.574454
 20
248.245596
 30
0.0
 11
133.480220
 21
248.268739
 31
0.0
  0
LINE
  5
152
100
AcDbEntity
  8
Layer_1
 62
3
100
AcDbLine
 10
133.480220
 20
248.268739
 30
0.0
 11
130.373546
 21
248.488674
 31
0.0
  0
LINE
  5
153
100
AcDbEntity
  8
Layer_1
 62
3
100
AcDbLine
 10
130.373546
 20
248.488674
 30
0.0
 11
129.383567
 21
245.440985
 31
0.0
  0
LINE
  5
154
100
AcDbEntity
  8
Layer_1
 62
3
100
AcDbLine
 10
129.383567
 20
245.440985
 30
0.0
 11
132.026098
 21
243.792892
 31
0.0
  0
SPLINE
  5
155
100
AcDbEntity
  8
Layer_1
 62
3
100
AcDbSpline
 70
8
 71
3
 72
8
 73
4
 74
0
 40
0
 40
0
 40
0
 40
0
 40
1
 40
1
 40
1
 40
1
 10
132.026098
 20
243.792892
 30
0.0
 10
132.026098
 20
243.792892
 30
0.0
 10
132.086748
 20
243.768056
 30
0.0
 10
132.086748
 20
243.768056
 30
0.0
  0
SPLINE
  5
156
100
AcDbEntity
  8
Layer_1
 62
3
100
AcDbSpline
 70
8
 71
3
 72
8
 73
4
 74
0
 40
0
 40
0
 40
0
 40
0
 40
1
 40
1
 40
1
 40
1
 10
132.086748
 20
243.768056
 30
0.0
 10
131.678196
 20
242.262388
 30
0.0
 10
131.328641
 20
240.741329
 30
0.0
 10
131.038885
 20
239.208361
 30
0.0
  0
LINE
  5
157
100
AcDbEntity
  8
Layer_1
 62
3
100
AcDbLine
 10
131.038885
 20
239.208361
 30
0.0
 11
130.927520
 21
239.217110
 31
0.0
  0
LINE
  5
158
100
AcDbEntity
  8
Layer_1
 62
3
100
AcDbLine
 10
130.927520
 20
239.217110
 30
0.0
 11
127.824741
 21
238.948124
 31
0.0
  0
LINE
  5
159
100
AcDbEntity
  8
Layer_1
 62
3
100
AcDbLine
 10
127.824741
 20
238.948124
 30
0.0
 11
127.323136
 21
235.783030
 31
0.0
  0
LINE
  5
15a
100
AcDbEntity
  8
Layer_1
 62
3
100
AcDbLine
 10
127.323136
 20
235.783030
 30
0.0
 11
130.191118
 21
234.568741
 31
0.0
  0
SPLINE
  5
15b
100
AcDbEntity
  8
Layer_1
 62
3
100
AcDbSpline
 70
8
 71
3
 72
8
 73
4
 74
0
 40
0
 40
0
 40
0
 40
0
 40
1
 40
1
 40
1
 40
1
 10
130.191118
 20
234.568741
 30
0.0
 10
130.191118
 20
234.568741
 30
0.0
 10
130.316791
 20
234.538966
 30
0.0
 10
130.316791
 20
234.538966
 30
0.0
  0
SPLINE
  5
15c
100
AcDbEntity
  8
Layer_1
 62
3
100
AcDbSpline
 70
8
 71
3
 72
8
 73
4
 74
0
 40
0
 40
0
 40
0
 40
0
 40
1
 40
1
 40
1
 40
1
 10
130.316791
 20
234.538966
 30
0.0
 10
130.121798
 20
232.993317
 30
0.0
 10
129.987198
 20
231.440647
 30
0.0
 10
129.913298
 20
229.884501
 30
0.0
  0
LINE
  5
15d
100
AcDbEntity
  8
Layer_1
 62
3
100
AcDbLine
 10
129.913298
 20
229.884501
 30
0.0
 11
129.821802
 21
229.877445
 31
0.0
  0
LINE
  5
15e
100
AcDbEntity
  8
Layer_1
 62
3
100
AcDbLine
 10
129.821802
 20
229.877445
 30
0.0
 11
126.799481
 21
229.126706
 31
0.0
  0
LINE
  5
15f
100
AcDbEntity
  8
Layer_1
 62
3
100
AcDbLine
 10
126.799481
 20
229.126706
 30
0.0
 11
126.799481
 21
225.921932
 31
0.0
  0
LINE
  5
160
100
AcDbEntity
  8
Layer_1
 62
3
100
AcDbLine
 10
126.799481
 20
225.921932
 30
0.0
 11
129.821802
 21
225.171192
 31
0.0
  0
SPLINE
  5
161
100
AcDbEntity
  8
Layer_1
 62
3
100
AcDbSpline
 70
8
 71
3
 72
8
 73
4
 74
0
 40
0
 40
0
 40
0
 40
0
 40
1
 40
1
 40
1
 40
1
 10
129.821802
 20
225.171192
 30
0.0
 10
129.821802
 20
225.171192
 30
0.0
 10
129.948011
 20
225.161314
 30
0.0
 10
129.948011
 20
225.161314
 30
0.0
  0
SPLINE
  5
162
100
AcDbEntity
  8
Layer_1
 62
3
100
AcDbSpline
 70
8
 71
3
 72
8
 73
4
 74
0
 40
0
 40
0
 40
0
 40
0
 40
1
 40
1
 40
1
 40
1
 10
129.948011
 20
225.161314
 30
0.0
 10
130.000198
 20
223.604547
 30
0.0
 10
130.113107
 20
222.050409
 30
0.0
 10
130.286481
 20
220.502446
 30
0.0
  0
LINE
  5
163
100
AcDbEntity
  8
Layer_1
 62
3
100
AcDbLine
 10
130.286481
 20
220.502446
 30
0.0
 11
130.191118
 21
220.479869
 31
0.0
  0
LINE
  5
164
100
AcDbEntity
  8
Layer_1
 62
3
100
AcDbLine
 10
130.191118
 20
220.479869
 30
0.0
 11
127.323136
 21
219.265551
 31
0.0
  0
LINE
  5
165
100
AcDbEntity
  8
Layer_1
 62
3
100
AcDbLine
 10
127.323136
 20
219.265551
 30
0.0
 11
127.824741
 21
216.100457
 31
0.0
  0
LINE
  5
166
100
AcDbEntity
  8
Layer_1
 62
3
100
AcDbLine
 10
127.824741
 20
216.100457
 30
0.0
 11
130.927520
 21
215.831471
 31
0.0
  0
LINE
  5
167
100
AcDbEntity
  8
Layer_1
 62
3
100
AcDbLine
 10
130.927520
 20
215.831471
 30
0.0
 11
130.991472
 21
215.836551
 31
0.0
  0
SPLINE
  5
168
100
AcDbEntity
  8
Layer_1
 62
3
100
AcDbSpline
 70
8
 71
3
 72
8
 73
4
 74
0
 40
0
 40
0
 40
0
 40
0
 40
1
 40
1
 40
1
 40
1
 10
130.991472
 20
215.836551
 30
0.0
 10
131.311263
 20
214.309595
 30
0.0
 10
131.690605
 20
212.795719
 30
0.0
 10
132.128630
 20
211.298390
 30
0.0
  0
LINE
  5
169
100
AcDbEntity
  8
Layer_1
 62
3
100
AcDbLine
 10
132.128630
 20
211.298390
 30
0.0
 11
132.026098
 21
211.255943
 31
0.0
  0
LINE
  5
16a
100
AcDbEntity
  8
Layer_1
 62
3
100
AcDbLine
 10
132.026098
 20
211.255943
 30
0.0
 11
129.383567
 21
209.607822
 31
0.0
  0
LINE
  5
16b
100
AcDbEntity
  8
Layer_1
 62
3
100
AcDbLine
 10
129.383567
 20
209.607822
 30
0.0
 11
130.373546
 21
206.560132
 31
0.0
  0
LINE
  5
16c
100
AcDbEntity
  8
Layer_1
 62
3
100
AcDbLine
 10
130.373546
 20
206.560132
 30
0.0
 11
133.480220
 21
206.780068
 31
0.0
  0
LINE
  5
16d
100
AcDbEntity
  8
Layer_1
 62
3
100
AcDbLine
 10
133.480220
 20
206.780068
 30
0.0
 11
133.605329
 21
206.810407
 31
0.0
  0
SPLINE
  5
16e
100
AcDbEntity
  8
Layer_1
 62
3
100
AcDbSpline
 70
8
 71
3
 72
8
 73
4
 74
0
 40
0
 40
0
 40
0
 40
0
 40
1
 40
1
 40
1
 40
1
 10
133.605329
 20
206.810407
 30
0.0
 10
134.141564
 20
205.349175
 30
0.0
 10
134.734568
 20
203.909407
 30
0.0
 10
135.382991
 20
202.494383
 30
0.0
  0
LINE
  5
16f
100
AcDbEntity
  8
Layer_1
 62
3
100
AcDbLine
 10
135.382991
 20
202.494383
 30
0.0
 11
135.281024
 21
202.432096
 31
0.0
  0
LINE
  5
170
100
AcDbEntity
  8
Layer_1
 62
3
100
AcDbLine
 10
135.281024
 20
202.432096
 30
0.0
 11
132.928984
 21
200.390952
 31
0.0
  0
LINE
  5
171
100
AcDbEntity
  8
Layer_1
 62
3
100
AcDbLine
 10
132.928984
 20
200.390952
 30
0.0
 11
134.383642
 21
197.535654
 31
0.0
  0
LINE
  5
172
100
AcDbEntity
  8
Layer_1
 62
3
100
AcDbLine
 10
134.383642
 20
197.535654
 30
0.0
 11
137.417531
 21
198.239008
 31
0.0
  0
SPLINE
  5
173
100
AcDbEntity
  8
Layer_1
 62
3
100
AcDbSpline
 70
8
 71
3
 72
8
 73
4
 74
0
 40
0
 40
0
 40
0
 40
0
 40
1
 40
1
 40
1
 40
1
 10
137.417531
 20
198.239008
 30
0.0
 10
137.417531
 20
198.239008
 30
0.0
 10
137.494154
 20
198.270984
 30
0.0
 10
137.494154
 20
198.270984
 30
0.0
  0
SPLINE
  5
174
100
AcDbEntity
  8
Layer_1
 62
3
100
AcDbSpline
 70
8
 71
3
 72
8
 73
4
 74
0
 40
0
 40
0
 40
0
 40
0
 40
1
 40
1
 40
1
 40
1
 10
137.494154
 20
198.270984
 30
0.0
 10
138.257288
 20
196.909708
 30
0.0
 10
139.073345
 20
195.578786
 30
0.0
 10
139.940456
 20
194.281264
 30
0.0
  0
LINE
  5
175
100
AcDbEntity
  8
Layer_1
 62
3
100
AcDbLine
 10
139.940456
 20
194.281264
 30
0.0
 11
139.876505
 21
194.226711
 31
0.0
  0
LINE
  5
176
100
AcDbEntity
  8
Layer_1
 62
3
100
AcDbLine
 10
139.876505
 20
194.226711
 30
0.0
 11
137.872840
 21
191.842695
 31
0.0
  0
LINE
  5
177
100
AcDbEntity
  8
Layer_1
 62
3
100
AcDbLine
 10
137.872840
 20
191.842695
 30
0.0
 11
139.756334
 21
189.250343
 31
0.0
  0
LINE
  5
178
100
AcDbEntity
  8
Layer_1
 62
3
100
AcDbLine
 10
139.756334
 20
189.250343
 30
0.0
 11
142.643073
 21
190.419448
 31
0.0
  0
LINE
  5
179
100
AcDbEntity
  8
Layer_1
 62
3
100
AcDbLine
 10
142.643073
 20
190.419448
 30
0.0
 11
142.744475
 21
190.481735
 31
0.0
  0
SPLINE
  5
17a
100
AcDbEntity
  8
Layer_1
 62
3
100
AcDbSpline
 70
8
 71
3
 72
8
 73
4
 74
0
 40
0
 40
0
 40
0
 40
0
 40
1
 40
1
 40
1
 40
1
 10
142.744475
 20
190.481735
 30
0.0
 10
143.710816
 20
189.261635
 30
0.0
 10
144.724359
 20
188.079675
 30
0.0
 10
145.782795
 20
186.938548
 30
0.0
  0
LINE
  5
17b
100
AcDbEntity
  8
Layer_1
 62
3
100
AcDbLine
 10
145.782795
 20
186.938548
 30
0.0
 11
145.699003
 21
186.840984
 31
0.0
  0
LINE
  5
17c
100
AcDbEntity
  8
Layer_1
 62
3
100
AcDbLine
 10
145.699003
 20
186.840984
 30
0.0
 11
144.092763
 21
184.172544
 31
0.0
  0
LINE
  5
17d
100
AcDbEntity
  8
Layer_1
 62
3
100
AcDbLine
 10
144.092763
 20
184.172544
 30
0.0
 11
146.358810
 21
181.906497
 31
0.0
  0
LINE
  5
17e
100
AcDbEntity
  8
Layer_1
 62
3
100
AcDbLine
 10
146.358810
 20
181.906497
 30
0.0
 11
149.026685
 21
183.513273
 31
0.0
  0
SPLINE
  5
17f
100
AcDbEntity
  8
Layer_1
 62
3
100
AcDbSpline
 70
8
 71
3
 72
8
 73
4
 74
0
 40
0
 40
0
 40
0
 40
0
 40
1
 40
1
 40
1
 40
1
 10
149.026685
 20
183.513273
 30
0.0
 10
149.026685
 20
183.513273
 30
0.0
 10
149.110477
 20
183.584929
 30
0.0
 10
149.110477
 20
183.584929
 30
0.0
  0
SPLINE
  5
180
100
AcDbEntity
  8
Layer_1
 62
3
100
AcDbSpline
 70
8
 71
3
 72
8
 73
4
 74
0
 40
0
 40
0
 40
0
 40
0
 40
1
 40
1
 40
1
 40
1
 10
149.110477
 20
183.584929
 30
0.0
 10
150.245891
 20
182.514465
 30
0.0
 10
151.422714
 20
181.488792
 30
0.0
 10
152.638252
 20
180.510259
 30
0.0
  0
LINE
  5
181
100
AcDbEntity
  8
Layer_1
 62
3
100
AcDbLine
 10
152.638252
 20
180.510259
 30
0.0
 11
152.605176
 21
180.456806
 31
0.0
  0
LINE
  5
182
100
AcDbEntity
  8
Layer_1
 62
3
100
AcDbLine
 10
152.605176
 20
180.456806
 30
0.0
 11
151.436042
 21
177.570068
 31
0.0
  0
LINE
  5
183
100
AcDbEntity
  8
Layer_1
 62
3
100
AcDbLine
 10
151.436042
 20
177.570068
 30
0.0
 11
154.028422
 21
175.686545
 31
0.0
  0
LINE
  5
184
100
AcDbEntity
  8
Layer_1
 62
3
100
AcDbLine
 10
154.028422
 20
175.686545
 30
0.0
 11
156.412413
 21
177.690803
 31
0.0
  0
LINE
  5
185
100
AcDbEntity
  8
Layer_1
 62
3
100
AcDbLine
 10
156.412413
 20
177.690803
 30
0.0
 11
156.476364
 21
177.765761
 31
0.0
  0
SPLINE
  5
186
100
AcDbEntity
  8
Layer_1
 62
3
100
AcDbSpline
 70
8
 71
3
 72
8
 73
4
 74
0
 40
0
 40
0
 40
0
 40
0
 40
1
 40
1
 40
1
 40
1
 10
156.476364
 20
177.765761
 30
0.0
 10
157.776874
 20
176.908186
 30
0.0
 10
159.110354
 20
176.101687
 30
0.0
 10
160.473760
 20
175.348104
 30
0.0
  0
LINE
  5
187
100
AcDbEntity
  8
Layer_1
 62
3
100
AcDbLine
 10
160.473760
 20
175.348104
 30
0.0
 11
160.425274
 21
175.231801
 31
0.0
  0
LINE
  5
188
100
AcDbEntity
  8
Layer_1
 62
3
100
AcDbLine
 10
160.425274
 20
175.231801
 30
0.0
 11
159.721920
 21
172.197912
 31
0.0
  0
LINE
  5
189
100
AcDbEntity
  8
Layer_1
 62
3
100
AcDbLine
 10
159.721920
 20
172.197912
 30
0.0
 11
162.577218
 21
170.742718
 31
0.0
  0
LINE
  5
18a
100
AcDbEntity
  8
Layer_1
 62
3
100
AcDbLine
 10
162.577218
 20
170.742718
 30
0.0
 11
164.618362
 21
173.095294
 31
0.0
  0
LINE
  5
18b
100
AcDbEntity
  8
Layer_1
 62
3
100
AcDbLine
 10
164.618362
 20
173.095294
 30
0.0
 11
164.683951
 21
173.202228
 31
0.0
  0
SPLINE
  5
18c
100
AcDbEntity
  8
Layer_1
 62
3
100
AcDbSpline
 70
8
 71
3
 72
8
 73
4
 74
0
 40
0
 40
0
 40
0
 40
0
 40
1
 40
1
 40
1
 40
1
 10
164.683951
 20
173.202228
 30
0.0
 10
166.094805
 20
172.541782
 30
0.0
 10
167.530894
 20
171.936641
 30
0.0
 10
168.988940
 20
171.388188
 30
0.0
  0
LINE
  5
18d
100
AcDbEntity
  8
Layer_1
 62
3
100
AcDbLine
 10
168.988940
 20
171.388188
 30
0.0
 11
168.966363
 21
171.294490
 31
0.0
  0
LINE
  5
18e
100
AcDbEntity
  8
Layer_1
 62
3
100
AcDbLine
 10
168.966363
 20
171.294490
 30
0.0
 11
168.745891
 21
168.187844
 31
0.0
  0
LINE
  5
18f
100
AcDbEntity
  8
Layer_1
 62
3
100
AcDbLine
 10
168.745891
 20
168.187844
 30
0.0
 11
171.794116
 21
167.197301
 31
0.0
  0
LINE
  5
190
100
AcDbEntity
  8
Layer_1
 62
3
100
AcDbLine
 10
171.794116
 20
167.197301
 30
0.0
 11
173.441701
 21
169.839832
 31
0.0
  0
SPLINE
  5
191
100
AcDbEntity
  8
Layer_1
 62
3
100
AcDbSpline
 70
8
 71
3
 72
8
 73
4
 74
0
 40
0
 40
0
 40
0
 40
0
 40
1
 40
1
 40
1
 40
1
 10
173.441701
 20
169.839832
 30
0.0
 10
173.441701
 20
169.839832
 30
0.0
 10
173.466537
 20
169.900482
 30
0.0
 10
173.466537
 20
169.900482
 30
0.0
  0
SPLINE
  5
192
100
AcDbEntity
  8
Layer_1
 62
3
100
AcDbSpline
 70
8
 71
3
 72
8
 73
4
 74
0
 40
0
 40
0
 40
0
 40
0
 40
1
 40
1
 40
1
 40
1
 10
173.466537
 20
169.900482
 30
0.0
 10
174.972373
 20
169.491917
 30
0.0
 10
176.493601
 20
169.142362
 30
0.0
 10
178.026740
 20
168.852619
 30
0.0
  0
LINE
  5
193
100
AcDbEntity
  8
Layer_1
 62
3
100
AcDbLine
 10
178.026740
 20
168.852619
 30
0.0
 11
178.017991
 21
168.741254
 31
0.0
  0
LINE
  5
194
100
AcDbEntity
  8
Layer_1
 62
3
100
AcDbLine
 10
178.017991
 20
168.741254
 30
0.0
 11
178.286441
 21
165.638475
 31
0.0
  0
LINE
  5
195
100
AcDbEntity
  8
Layer_1
 62
3
100
AcDbLine
 10
178.286441
 20
165.638475
 30
0.0
 11
181.451507
 21
165.137417
 31
0.0
  0
LINE
  5
196
100
AcDbEntity
  8
Layer_1
 62
3
100
AcDbLine
 10
181.451507
 20
165.137417
 30
0.0
 11
182.665853
 21
168.005388
 31
0.0
  0
SPLINE
  5
197
100
AcDbEntity
  8
Layer_1
 62
3
100
AcDbSpline
 70
8
 71
3
 72
8
 73
4
 74
0
 40
0
 40
0
 40
0
 40
0
 40
1
 40
1
 40
1
 40
1
 10
182.665853
 20
168.005388
 30
0.0
 10
182.665853
 20
168.005388
 30
0.0
 10
182.695599
 20
168.130525
 30
0.0
 10
182.695599
 20
168.130525
 30
0.0
  0
SPLINE
  5
198
100
AcDbEntity
  8
Layer_1
 62
3
100
AcDbSpline
 70
8
 71
3
 72
8
 73
4
 74
0
 40
0
 40
0
 40
0
 40
0
 40
1
 40
1
 40
1
 40
1
 10
182.695599
 20
168.130525
 30
0.0
 10
184.241435
 20
167.935517
 30
0.0
 10
185.794294
 20
167.800917
 30
0.0
 10
187.350629
 20
167.727032
 30
0.0
  0
LINE
  5
199
100
AcDbEntity
  8
Layer_1
 62
3
100
AcDbLine
 10
187.350629
 20
167.727032
 30
0.0
 11
187.357684
 21
167.636072
 31
0.0
  0
LINE
  5
19a
100
AcDbEntity
  8
Layer_1
 62
3
100
AcDbLine
 10
187.357684
 20
167.636072
 30
0.0
 11
188.108423
 21
164.613754
 31
0.0
  0
LINE
  5
19b
100
AcDbEntity
  8
Layer_1
 62
3
100
AcDbLine
 10
188.108423
 20
164.613754
 30
0.0
 11
191.312633
 21
164.613754
 31
0.0
  0
LINE
  5
19c
100
AcDbEntity
  8
Layer_1
 62
3
100
AcDbLine
 10
191.312633
 20
164.613754
 30
0.0
 11
192.063401
 21
167.636072
 31
0.0
  0
SPLINE
  5
19d
100
AcDbEntity
  8
Layer_1
 62
3
100
AcDbSpline
 70
8
 71
3
 72
8
 73
4
 74
0
 40
0
 40
0
 40
0
 40
0
 40
1
 40
1
 40
1
 40
1
 10
192.063401
 20
167.636072
 30
0.0
 10
192.063401
 20
167.636072
 30
0.0
 10
192.072714
 20
167.761745
 30
0.0
 10
192.072714
 20
167.761745
 30
0.0
  0
SPLINE
  5
19e
100
AcDbEntity
  8
Layer_1
 62
3
100
AcDbSpline
 70
8
 71
3
 72
8
 73
4
 74
0
 40
0
 40
0
 40
0
 40
0
 40
1
 40
1
 40
1
 40
1
 10
192.072714
 20
167.761745
 30
0.0
 10
193.629849
 20
167.813903
 30
0.0
 10
195.184355
 20
167.926812
 30
0.0
 10
196.732683
 20
168.100214
 30
0.0
  0
LINE
  5
19f
100
AcDbEntity
  8
Layer_1
 62
3
100
AcDbLine
 10
196.732683
 20
168.100214
 30
0.0
 11
196.755261
 21
168.005388
 31
0.0
  0
LINE
  5
1a0
100
AcDbEntity
  8
Layer_1
 62
3
100
AcDbLine
 10
196.755261
 20
168.005388
 30
0.0
 11
197.969578
 21
165.137417
 31
0.0
  0
LINE
  5
1a1
100
AcDbEntity
  8
Layer_1
 62
3
100
AcDbLine
 10
197.969578
 20
165.137417
 30
0.0
 11
201.134672
 21
165.638475
 31
0.0
  0
LINE
  5
1a2
100
AcDbEntity
  8
Layer_1
 62
3
100
AcDbLine
 10
201.134672
 20
165.638475
 30
0.0
 11
201.403094
 21
168.741254
 31
0.0
  0
SPLINE
  5
1a3
100
AcDbEntity
  8
Layer_1
 62
3
100
AcDbSpline
 70
8
 71
3
 72
8
 73
4
 74
0
 40
0
 40
0
 40
0
 40
0
 40
1
 40
1
 40
1
 40
1
 10
201.403094
 20
168.741254
 30
0.0
 10
201.403094
 20
168.741254
 30
0.0
 10
201.398296
 20
168.805206
 30
0.0
 10
201.398296
 20
168.805206
 30
0.0
  0
SPLINE
  5
1a4
100
AcDbEntity
  8
Layer_1
 62
3
100
AcDbSpline
 70
8
 71
3
 72
8
 73
4
 74
0
 40
0
 40
0
 40
0
 40
0
 40
1
 40
1
 40
1
 40
1
 10
201.398296
 20
168.805206
 30
0.0
 10
202.925432
 20
169.124984
 30
0.0
 10
204.439487
 20
169.504326
 30
0.0
 10
205.936994
 20
169.942364
 30
0.0
  0
LINE
  5
1a5
100
AcDbEntity
  8
Layer_1
 62
3
100
AcDbLine
 10
205.936994
 20
169.942364
 30
0.0
 11
205.979440
 21
169.839832
 31
0.0
  0
LINE
  5
1a6
100
AcDbEntity
  8
Layer_1
 62
3
100
AcDbLine
 10
205.979440
 20
169.839832
 30
0.0
 11
207.627561
 21
167.197301
 31
0.0
  0
LINE
  5
1a7
100
AcDbEntity
  8
Layer_1
 62
3
100
AcDbLine
 10
207.627561
 20
167.197301
 30
0.0
 11
210.675251
 21
168.187844
 31
0.0
  0
LINE
  5
1a8
100
AcDbEntity
  8
Layer_1
 62
3
100
AcDbLine
 10
210.675251
 20
168.187844
 30
0.0
 11
210.454751
 21
171.294490
 31
0.0
  0
SPLINE
  5
1a9
100
AcDbEntity
  8
Layer_1
 62
3
100
AcDbSpline
 70
8
 71
3
 72
8
 73
4
 74
0
 40
0
 40
0
 40
0
 40
0
 40
1
 40
1
 40
1
 40
1
 10
210.454751
 20
171.294490
 30
0.0
 10
210.454751
 20
171.294490
 30
0.0
 10
210.424440
 20
171.419063
 30
0.0
 10
210.424440
 20
171.419063
 30
0.0
  0
SPLINE
  5
1aa
100
AcDbEntity
  8
Layer_1
 62
3
100
AcDbSpline
 70
8
 71
3
 72
8
 73
4
 74
0
 40
0
 40
0
 40
0
 40
0
 40
1
 40
1
 40
1
 40
1
 10
210.424440
 20
171.419063
 30
0.0
 10
211.885853
 20
171.955285
 30
0.0
 10
213.325800
 20
172.548289
 30
0.0
 10
214.741001
 20
173.196724
 30
0.0
  0
LINE
  5
1ab
100
AcDbEntity
  8
Layer_1
 62
3
100
AcDbLine
 10
214.741001
 20
173.196724
 30
0.0
 11
214.802751
 21
173.095294
 31
0.0
  0
LINE
  5
1ac
100
AcDbEntity
  8
Layer_1
 62
3
100
AcDbLine
 10
214.802751
 20
173.095294
 30
0.0
 11
216.843895
 21
170.742718
 31
0.0
  0
LINE
  5
1ad
100
AcDbEntity
  8
Layer_1
 62
3
100
AcDbLine
 10
216.843895
 20
170.742718
 30
0.0
 11
219.699194
 21
172.197912
 31
0.0
  0
LINE
  5
1ae
100
AcDbEntity
  8
Layer_1
 62
3
100
AcDbLine
 10
219.699194
 20
172.197912
 30
0.0
 11
218.995839
 21
175.231801
 31
0.0
  0
SPLINE
  5
1af
100
AcDbEntity
  8
Layer_1
 62
3
100
AcDbSpline
 70
8
 71
3
 72
8
 73
4
 74
0
 40
0
 40
0
 40
0
 40
0
 40
1
 40
1
 40
1
 40
1
 10
218.995839
 20
175.231801
 30
0.0
 10
218.995839
 20
175.231801
 30
0.0
 10
218.963864
 20
175.308424
 30
0.0
 10
218.963864
 20
175.308424
 30
0.0
  0
SPLINE
  5
1b0
100
AcDbEntity
  8
Layer_1
 62
3
100
AcDbSpline
 70
8
 71
3
 72
8
 73
4
 74
0
 40
0
 40
0
 40
0
 40
0
 40
1
 40
1
 40
1
 40
1
 10
218.963864
 20
175.308424
 30
0.0
 10
220.325320
 20
176.071536
 30
0.0
 10
221.656422
 20
176.887584
 30
0.0
 10
222.954119
 20
177.754698
 30
0.0
  0
LINE
  5
1b1
100
AcDbEntity
  8
Layer_1
 62
3
100
AcDbLine
 10
222.954119
 20
177.754698
 30
0.0
 11
223.008673
 21
177.690775
 31
0.0
  0
LINE
  5
1b2
100
AcDbEntity
  8
Layer_1
 62
3
100
AcDbLine
 10
223.008673
 20
177.690775
 30
0.0
 11
225.392688
 21
175.686545
 31
0.0
  0
LINE
  5
1b3
100
AcDbEntity
  8
Layer_1
 62
3
100
AcDbLine
 10
225.392688
 20
175.686545
 30
0.0
 11
227.985041
 21
177.570040
 31
0.0
  0
LINE
  5
1b4
100
AcDbEntity
  8
Layer_1
 62
3
100
AcDbLine
 10
227.985041
 20
177.570040
 30
0.0
 11
226.815935
 21
180.456778
 31
0.0
  0
LINE
  5
1b5
100
AcDbEntity
  8
Layer_1
 62
3
100
AcDbLine
 10
226.815935
 20
180.456778
 30
0.0
 11
226.753084
 21
180.558745
 31
0.0
  0
SPLINE
  5
1b6
100
AcDbEntity
  8
Layer_1
 62
3
100
AcDbSpline
 70
8
 71
3
 72
8
 73
4
 74
0
 40
0
 40
0
 40
0
 40
0
 40
1
 40
1
 40
1
 40
1
 10
226.753084
 20
180.558745
 30
0.0
 10
227.973375
 20
181.525066
 30
0.0
 10
229.155523
 20
182.538599
 30
0.0
 10
230.296836
 20
183.597037
 30
0.0
  0
LINE
  5
1b7
100
AcDbEntity
  8
Layer_1
 62
3
100
AcDbLine
 10
230.296836
 20
183.597037
 30
0.0
 11
230.394400
 21
183.513245
 31
0.0
  0
LINE
  5
1b8
100
AcDbEntity
  8
Layer_1
 62
3
100
AcDbLine
 10
230.394400
 20
183.513245
 30
0.0
 11
233.062303
 21
181.906469
 31
0.0
  0
LINE
  5
1b9
100
AcDbEntity
  8
Layer_1
 62
3
100
AcDbLine
 10
233.062303
 20
181.906469
 30
0.0
 11
235.328350
 21
184.172516
 31
0.0
  0
LINE
  5
1ba
100
AcDbEntity
  8
Layer_1
 62
3
100
AcDbLine
 10
235.328350
 20
184.172516
 30
0.0
 11
233.722110
 21
186.840955
 31
0.0
  0
LINE
  5
1bb
100
AcDbEntity
  8
Layer_1
 62
3
100
AcDbLine
 10
233.722110
 20
186.840955
 30
0.0
 11
233.650454
 21
186.924719
 31
0.0
  0
SPLINE
  5
1bc
100
AcDbEntity
  8
Layer_1
 62
3
100
AcDbSpline
 70
8
 71
3
 72
8
 73
4
 74
0
 40
0
 40
0
 40
0
 40
0
 40
1
 40
1
 40
1
 40
1
 10
233.650454
 20
186.924719
 30
0.0
 10
234.720919
 20
188.060134
 30
0.0
 10
235.746592
 20
189.236958
 30
0.0
 10
236.725124
 20
190.452497
 30
0.0
  0
LINE
  5
1bd
100
AcDbEntity
  8
Layer_1
 62
3
100
AcDbLine
 10
236.725124
 20
190.452497
 30
0.0
 11
236.778577
 21
190.419420
 31
0.0
  0
LINE
  5
1be
100
AcDbEntity
  8
Layer_1
 62
3
100
AcDbLine
 10
236.778577
 20
190.419420
 30
0.0
 11
239.664751
 21
189.250315
 31
0.0
  0
LINE
  5
1bf
100
AcDbEntity
  8
Layer_1
 62
3
100
AcDbLine
 10
239.664751
 20
189.250315
 30
0.0
 11
241.548245
 21
191.842667
 31
0.0
  0
LINE
  5
1c0
100
AcDbEntity
  8
Layer_1
 62
3
100
AcDbLine
 10
241.548245
 20
191.842667
 30
0.0
 11
239.544581
 21
194.226683
 31
0.0
  0
LINE
  5
1c1
100
AcDbEntity
  8
Layer_1
 62
3
100
AcDbLine
 10
239.544581
 20
194.226683
 30
0.0
 11
239.469622
 21
194.290606
 31
0.0
  0
SPLINE
  5
1c2
100
AcDbEntity
  8
Layer_1
 62
3
100
AcDbSpline
 70
8
 71
3
 72
8
 73
4
 74
0
 40
0
 40
0
 40
0
 40
0
 40
1
 40
1
 40
1
 40
1
 10
239.469622
 20
194.290606
 30
0.0
 10
240.326984
 20
195.590951
 30
0.0
 10
241.133286
 20
196.924251
 30
0.0
 10
241.886686
 20
198.287465
 30
0.0
  0
LINE
  5
1c3
100
AcDbEntity
  8
Layer_1
 62
3
100
AcDbLine
 10
241.886686
 20
198.287465
 30
0.0
 11
242.003555
 21
198.238980
 31
0.0
  0
LINE
  5
1c4
100
AcDbEntity
  8
Layer_1
 62
3
100
AcDbLine
 10
242.003555
 20
198.238980
 30
0.0
 11
245.037443
 21
197.535625
 31
0.0
  0
LINE
  5
1c5
100
AcDbEntity
  8
Layer_1
 62
3
100
AcDbLine
 10
245.037443
 20
197.535625
 30
0.0
 11
246.492101
 21
200.390924
 31
0.0
  0
LINE
  5
1c6
100
AcDbEntity
  8
Layer_1
 62
3
100
AcDbLine
 10
246.492101
 20
200.390924
 30
0.0
 11
244.140061
 21
202.432068
 31
0.0
  0
LINE
  5
1c7
100
AcDbEntity
  8
Layer_1
 62
3
100
AcDbLine
 10
244.140061
 20
202.432068
 30
0.0
 11
244.032591
 21
202.497656
 31
0.0
  0
SPLINE
  5
1c8
100
AcDbEntity
  8
Layer_1
 62
3
100
AcDbSpline
 70
8
 71
3
 72
8
 73
4
 74
0
 40
0
 40
0
 40
0
 40
0
 40
1
 40
1
 40
1
 40
1
 10
244.032591
 20
202.497656
 30
0.0
 10
244.693037
 20
203.908511
 30
0.0
 10
245.298178
 20
205.344600
 30
0.0
 10
245.846631
 20
206.802646
 30
0.0
  0
LINE
  5
1c9
100
AcDbEntity
  8
Layer_1
 62
3
100
AcDbLine
 10
245.846631
 20
206.802646
 30
0.0
 11
245.940893
 21
206.780068
 31
0.0
  0
LINE
  5
1ca
100
AcDbEntity
  8
Layer_1
 62
3
100
AcDbLine
 10
245.940893
 20
206.780068
 30
0.0
 11
249.047539
 21
206.560132
 31
0.0
  0
LINE
  5
1cb
100
AcDbEntity
  8
Layer_1
 62
3
100
AcDbLine
 10
249.047539
 20
206.560132
 30
0.0
 11
250.037518
 21
209.607822
 31
0.0
  0
LINE
  5
1cc
100
AcDbEntity
  8
Layer_1
 62
3
100
AcDbLine
 10
250.037518
 20
209.607822
 30
0.0
 11
247.394987
 21
211.255943
 31
0.0
  0
SPLINE
  5
1cd
100
AcDbEntity
  8
Layer_1
 62
3
100
AcDbSpline
 70
8
 71
3
 72
8
 73
4
 74
0
 40
0
 40
0
 40
0
 40
0
 40
1
 40
1
 40
1
 40
1
 10
247.394987
 20
211.255943
 30
0.0
 10
247.394987
 20
211.255943
 30
0.0
 10
247.334365
 20
211.280779
 30
0.0
 10
247.334365
 20
211.280779
 30
0.0
  0
SPLINE
  5
1ce
100
AcDbEntity
  8
Layer_1
 62
3
100
AcDbSpline
 70
8
 71
3
 72
8
 73
4
 74
0
 40
0
 40
0
 40
0
 40
0
 40
1
 40
1
 40
1
 40
1
 10
247.334365
 20
211.280779
 30
0.0
 10
247.742917
 20
212.786437
 30
0.0
 10
248.092471
 20
214.307487
 30
0.0
 10
248.382228
 20
215.840446
 30
0.0
  0
LINE
  5
1cf
100
AcDbEntity
  8
Layer_1
 62
3
100
AcDbLine
 10
248.382228
 20
215.840446
 30
0.0
 11
248.493565
 21
215.831697
 31
0.0
  0
LINE
  5
1d0
100
AcDbEntity
  8
Layer_1
 62
3
100
AcDbLine
 10
248.493565
 20
215.831697
 30
0.0
 11
251.596344
 21
216.100683
 31
0.0
  0
LINE
  5
1d1
100
AcDbEntity
  8
Layer_1
 62
3
100
AcDbLine
 10
251.596344
 20
216.100683
 30
0.0
 11
252.097966
 21
219.265777
 31
0.0
  0
LINE
  5
1d2
100
AcDbEntity
  8
Layer_1
 62
3
100
AcDbLine
 10
252.097966
 20
219.265777
 30
0.0
 11
249.229996
 21
220.480094
 31
0.0
  0
SPLINE
  5
1d3
100
AcDbEntity
  8
Layer_1
 62
3
100
AcDbSpline
 70
8
 71
3
 72
8
 73
4
 74
0
 40
0
 40
0
 40
0
 40
0
 40
1
 40
1
 40
1
 40
1
 10
249.229996
 20
220.480094
 30
0.0
 10
249.229996
 20
220.480094
 30
0.0
 10
249.104322
 20
220.509869
 30
0.0
 10
249.104322
 20
220.509869
 30
0.0
  0
SPLINE
  5
1d4
100
AcDbEntity
  8
Layer_1
 62
3
100
AcDbSpline
 70
8
 71
3
 72
8
 73
4
 74
0
 40
0
 40
0
 40
0
 40
0
 40
1
 40
1
 40
1
 40
1
 10
249.104322
 20
220.509869
 30
0.0
 10
249.299315
 20
222.055518
 30
0.0
 10
249.433915
 20
223.608188
 30
0.0
 10
249.507815
 20
225.164334
 30
0.0
  0
LINE
  5
1d5
100
AcDbEntity
  8
Layer_1
 62
3
100
AcDbLine
 10
249.507815
 20
225.164334
 30
0.0
 11
249.599312
 21
225.171390
 31
0.0
  0
LINE
  5
1d6
100
AcDbEntity
  8
Layer_1
 62
3
100
AcDbLine
 10
249.599312
 20
225.171390
 30
0.0
 11
252.621629
 21
225.922129
 31
0.0
  0
LINE
  5
1d7
100
AcDbEntity
  8
Layer_1
 62
3
100
AcDbLine
 10
252.621629
 20
225.922129
 30
0.0
 11
252.621629
 21
229.126904
 31
0.0
  0
LINE
  5
1d8
100
AcDbEntity
  8
Layer_1
 62
3
100
AcDbLine
 10
252.621629
 20
229.126904
 30
0.0
 11
249.599312
 21
229.877643
 31
0.0
  0
SPLINE
  5
1d9
100
AcDbEntity
  8
Layer_1
 62
3
100
AcDbSpline
 70
8
 71
3
 72
8
 73
4
 74
0
 40
0
 40
0
 40
0
 40
0
 40
1
 40
1
 40
1
 40
1
 10
249.599312
 20
229.877643
 30
0.0
 10
249.599312
 20
229.877643
 30
0.0
 10
249.473074
 20
229.887521
 30
0.0
 10
249.473074
 20
229.887521
 30
0.0
  0
SPLINE
  5
1da
100
AcDbEntity
  8
Layer_1
 62
3
100
AcDbSpline
 70
8
 71
3
 72
8
 73
4
 74
0
 40
0
 40
0
 40
0
 40
0
 40
1
 40
1
 40
1
 40
1
 10
249.473074
 20
229.887521
 30
0.0
 10
249.420897
 20
231.444287
 30
0.0
 10
249.307997
 20
232.998425
 30
0.0
 10
249.134633
 20
234.546389
 30
0.0
  0
LINE
  5
1db
100
AcDbEntity
  8
Layer_1
 62
3
100
AcDbLine
 10
249.134633
 20
234.546389
 30
0.0
 11
249.229996
 21
234.568966
 31
0.0
  0
LINE
  5
1dc
100
AcDbEntity
  8
Layer_1
 62
3
100
AcDbLine
 10
249.229996
 20
234.568966
 30
0.0
 11
252.097966
 21
235.783284
 31
0.0
  0
LINE
  5
1dd
100
AcDbEntity
  8
Layer_1
 62
3
100
AcDbLine
 10
252.097966
 20
235.783284
 30
0.0
 11
251.596344
 21
238.948378
 31
0.0
  0
LINE
  5
1de
100
AcDbEntity
  8
Layer_1
 62
3
100
AcDbLine
 10
251.596344
 20
238.948378
 30
0.0
 11
248.493565
 21
239.217364
 31
0.0
  0
SPLINE
  5
1df
100
AcDbEntity
  8
Layer_1
 62
3
100
AcDbSpline
 70
8
 71
3
 72
8
 73
4
 74
0
 40
0
 40
0
 40
0
 40
0
 40
1
 40
1
 40
1
 40
1
 10
248.493565
 20
239.217364
 30
0.0
 10
248.493565
 20
239.217364
 30
0.0
 10
248.429613
 20
239.212284
 30
0.0
 10
248.429613
 20
239.212284
 30
0.0
  0
SPLINE
  5
1e0
100
AcDbEntity
  8
Layer_1
 62
3
100
AcDbSpline
 70
8
 71
3
 72
8
 73
4
 74
0
 40
0
 40
0
 40
0
 40
0
 40
1
 40
1
 40
1
 40
1
 10
248.429613
 20
239.212284
 30
0.0
 10
248.109822
 20
240.739240
 30
0.0
 10
247.730480
 20
242.253116
 30
0.0
 10
247.292455
 20
243.750446
 30
0.0
  0
LINE
  5
1e1
100
AcDbEntity
  8
Layer_1
 62
3
100
AcDbLine
 10
247.292455
 20
243.750446
 30
0.0
 11
247.394987
 21
243.792892
 31
0.0
  0
LINE
  5
1e2
100
AcDbEntity
  8
Layer_1
 62
3
100
AcDbLine
 10
247.394987
 20
243.792892
 30
0.0
 11
250.037518
 21
245.441013
 31
0.0
  0
LINE
  5
1e3
100
AcDbEntity
  8
Layer_1
 62
3
100
AcDbLine
 10
250.037518
 20
245.441013
 30
0.0
 11
249.047539
 21
248.488703
 31
0.0
  0
LINE
  5
1e4
100
AcDbEntity
  8
Layer_1
 62
3
100
AcDbLine
 10
249.047539
 20
248.488703
 30
0.0
 11
245.940893
 21
248.268767
 31
0.0
  0
LINE
  5
1e5
100
AcDbEntity
  8
Layer_1
 62
3
100
AcDbLine
 10
245.940893
 20
248.268767
 30
0.0
 11
245.815756
 21
248.238428
 31
0.0
  0
SPLINE
  5
1e6
100
AcDbEntity
  8
Layer_1
 62
3
100
AcDbSpline
 70
8
 71
3
 72
8
 73
4
 74
0
 40
0
 40
0
 40
0
 40
0
 40
1
 40
1
 40
1
 40
1
 10
245.815756
 20
248.238428
 30
0.0
 10
245.279521
 20
249.699660
 30
0.0
 10
244.686517
 20
251.139428
 30
0.0
 10
244.038095
 20
252.554452
 30
0.0
  0
LINE
  5
1e7
100
AcDbEntity
  8
Layer_1
 62
3
100
AcDbLine
 10
244.038095
 20
252.554452
 30
0.0
 11
244.140061
 21
252.616739
 31
0.0
  0
LINE
  5
1e8
100
AcDbEntity
  8
Layer_1
 62
3
100
AcDbLine
 10
244.140061
 20
252.616739
 30
0.0
 11
246.492101
 21
254.657883
 31
0.0
  0
LINE
  5
1e9
100
AcDbEntity
  8
Layer_1
 62
3
100
AcDbLine
 10
246.492101
 20
254.657883
 30
0.0
 11
245.037443
 21
257.513182
 31
0.0
  0
LINE
  5
1ea
100
AcDbEntity
  8
Layer_1
 62
3
100
AcDbLine
 10
245.037443
 20
257.513182
 30
0.0
 11
242.003555
 21
256.809827
 31
0.0
  0
LINE
  5
1eb
100
AcDbEntity
  8
Layer_1
 62
3
100
AcDbLine
 10
242.003555
 20
256.809827
 30
0.0
 11
241.926931
 21
256.777852
 31
0.0
  0
SPLINE
  5
1ec
100
AcDbEntity
  8
Layer_1
 62
3
100
AcDbSpline
 70
8
 71
3
 72
8
 73
4
 74
0
 40
0
 40
0
 40
0
 40
0
 40
1
 40
1
 40
1
 40
1
 10
241.926931
 20
256.777852
 30
0.0
 10
241.163807
 20
258.139126
 30
0.0
 10
240.347759
 20
259.470049
 30
0.0
 10
239.480657
 20
260.767570
 30
0.0
  0
LINE
  5
1ed
100
AcDbEntity
  8
Layer_1
 62
3
100
AcDbLine
 10
239.480657
 20
260.767570
 30
0.0
 11
239.544581
 21
260.822124
 31
0.0
  0
LINE
  5
1ee
100
AcDbEntity
  8
Layer_1
 62
3
100
AcDbLine
 10
239.544581
 20
260.822124
 30
0.0
 11
241.548245
 21
263.206140
 31
0.0
  0
LINE
  5
1ef
100
AcDbEntity
  8
Layer_1
 62
3
100
AcDbLine
 10
241.548245
 20
263.206140
 30
0.0
 11
239.664751
 21
265.798492
 31
0.0
  0
LINE
  5
1f0
100
AcDbEntity
  8
Layer_1
 62
3
100
AcDbLine
 10
239.664751
 20
265.798492
 30
0.0
 11
236.778577
 21
264.629386
 31
0.0
  0
LINE
  5
1f1
100
AcDbEntity
  8
Layer_1
 62
3
100
AcDbLine
 10
236.778577
 20
264.629386
 30
0.0
 11
236.676610
 21
264.566535
 31
0.0
  0
SPLINE
  5
1f2
100
AcDbEntity
  8
Layer_1
 62
3
100
AcDbSpline
 70
8
 71
3
 72
8
 73
4
 74
0
 40
0
 40
0
 40
0
 40
0
 40
1
 40
1
 40
1
 40
1
 10
236.676610
 20
264.566535
 30
0.0
 10
235.710290
 20
265.786826
 30
0.0
 10
234.696756
 20
266.968974
 30
0.0
 10
233.638319
 20
268.110287
 30
0.0
  0
LINE
  5
1f3
100
AcDbEntity
  8
Layer_1
 62
3
100
AcDbLine
 10
233.638319
 20
268.110287
 30
0.0
 11
233.722110
 21
268.207851
 31
0.0
  0
LINE
  5
1f4
100
AcDbEntity
  8
Layer_1
 62
3
100
AcDbLine
 10
233.722110
 20
268.207851
 30
0.0
 11
235.328350
 21
270.876291
 31
0.0
  0
LINE
  5
1f5
100
AcDbEntity
  8
Layer_1
 62
3
100
AcDbLine
 10
235.328350
 20
270.876291
 30
0.0
 11
233.062303
 21
273.142337
 31
0.0
  0
LINE
  5
1f6
100
AcDbEntity
  8
Layer_1
 62
3
100
AcDbLine
 10
233.062303
 20
273.142337
 30
0.0
 11
230.394400
 21
271.535562
 31
0.0
  0
SPLINE
  5
1f7
100
AcDbEntity
  8
Layer_1
 62
3
100
AcDbSpline
 70
8
 71
3
 72
8
 73
4
 74
0
 40
0
 40
0
 40
0
 40
0
 40
1
 40
1
 40
1
 40
1
 10
230.394400
 20
271.535562
 30
0.0
 10
230.394400
 20
271.535562
 30
0.0
 10
230.310636
 20
271.463905
 30
0.0
 10
230.310636
 20
271.463905
 30
0.0
  0
SPLINE
  5
1f8
100
AcDbEntity
  8
Layer_1
 62
3
100
AcDbSpline
 70
8
 71
3
 72
8
 73
4
 74
0
 40
0
 40
0
 40
0
 40
0
 40
1
 40
1
 40
1
 40
1
 10
230.310636
 20
271.463905
 30
0.0
 10
229.175222
 20
272.534370
 30
0.0
 10
227.998397
 20
273.560043
 30
0.0
 10
226.782859
 20
274.538575
 30
0.0
  0
LINE
  5
1f9
100
AcDbEntity
  8
Layer_1
 62
3
100
AcDbLine
 10
226.782859
 20
274.538575
 30
0.0
 11
226.815935
 21
274.592028
 31
0.0
  0
LINE
  5
1fa
100
AcDbEntity
  8
Layer_1
 62
3
100
AcDbLine
 10
226.815935
 20
274.592028
 30
0.0
 11
227.985041
 21
277.478767
 31
0.0
  0
LINE
  5
1fb
100
AcDbEntity
  8
Layer_1
 62
3
100
AcDbLine
 10
227.985041
 20
277.478767
 30
0.0
 11
225.392688
 21
279.362261
 31
0.0
  0
LINE
  5
1fc
100
AcDbEntity
  8
Layer_1
 62
3
100
AcDbLine
 10
225.392688
 20
279.362261
 30
0.0
 11
223.008673
 21
277.358032
 31
0.0
  0
LINE
  5
1fd
100
AcDbEntity
  8
Layer_1
 62
3
100
AcDbLine
 10
223.008673
 20
277.358032
 30
0.0
 11
222.944749
 21
277.283074
 31
0.0
  0
SPLINE
  5
1fe
100
AcDbEntity
  8
Layer_1
 62
3
100
AcDbSpline
 70
8
 71
3
 72
8
 73
4
 74
0
 40
0
 40
0
 40
0
 40
0
 40
1
 40
1
 40
1
 40
1
 10
222.944749
 20
277.283074
 30
0.0
 10
221.644229
 20
278.140640
 30
0.0
 10
220.310740
 20
278.947129
 30
0.0
 10
218.947325
 20
279.700702
 30
0.0
  0
LINE
  5
1ff
100
AcDbEntity
  8
Layer_1
 62
3
100
AcDbLine
 10
218.947325
 20
279.700702
 30
0.0
 11
218.995839
 21
279.817006
 31
0.0
  0
LINE
  5
200
100
AcDbEntity
  8
Layer_1
 62
3
100
AcDbLine
 10
218.995839
 20
279.817006
 30
0.0
 11
219.699194
 21
282.850909
 31
0.0
  0
LINE
  5
201
100
AcDbEntity
  8
Layer_1
 62
3
100
AcDbLine
 10
219.699194
 20
282.850909
 30
0.0
 11
216.843895
 21
284.306131
 31
0.0
  0
LINE
  5
202
100
AcDbEntity
  8
Layer_1
 62
3
100
AcDbLine
 10
216.843895
 20
284.306131
 30
0.0
 11
214.802751
 21
281.953513
 31
0.0
  0
SPLINE
  5
203
100
AcDbEntity
  8
Layer_1
 62
3
100
AcDbSpline
 70
8
 71
3
 72
8
 73
4
 74
0
 40
0
 40
0
 40
0
 40
0
 40
1
 40
1
 40
1
 40
1
 10
214.802751
 20
281.953513
 30
0.0
 10
214.802751
 20
281.953513
 30
0.0
 10
214.737134
 20
281.846579
 30
0.0
 10
214.737134
 20
281.846579
 30
0.0
  0
SPLINE
  5
204
100
AcDbEntity
  8
Layer_1
 62
3
100
AcDbSpline
 70
8
 71
3
 72
8
 73
4
 74
0
 40
0
 40
0
 40
0
 40
0
 40
1
 40
1
 40
1
 40
1
 10
214.737134
 20
281.846579
 30
0.0
 10
213.326281
 20
282.507039
 30
0.0
 10
211.890191
 20
283.112194
 30
0.0
 10
210.432145
 20
283.660661
 30
0.0
  0
LINE
  5
205
100
AcDbEntity
  8
Layer_1
 62
3
100
AcDbLine
 10
210.432145
 20
283.660661
 30
0.0
 11
210.454723
 21
283.754359
 31
0.0
  0
LINE
  5
206
100
AcDbEntity
  8
Layer_1
 62
3
100
AcDbLine
 10
210.454723
 20
283.754359
 30
0.0
 11
210.675223
 21
286.861004
 31
0.0
  0
LINE
  5
207
100
AcDbEntity
  8
Layer_1
 62
3
100
AcDbLine
 10
210.675223
 20
286.861004
 30
0.0
 11
207.627533
 21
287.851548
 31
0.0
  0
LINE
  5
208
100
AcDbEntity
  8
Layer_1
 62
3
100
AcDbLine
 10
207.627533
 20
287.851548
 30
0.0
 11
205.979412
 21
285.209017
 31
0.0
  0
SPLINE
  5
209
100
AcDbEntity
  8
Layer_1
 62
3
100
AcDbSpline
 70
8
 71
3
 72
8
 73
4
 74
0
 40
0
 40
0
 40
0
 40
0
 40
1
 40
1
 40
1
 40
1
 10
205.979412
 20
285.209017
 30
0.0
 10
205.979412
 20
285.209017
 30
0.0
 10
205.954576
 20
285.148367
 30
0.0
 10
205.954576
 20
285.148367
 30
0.0
  0
SPLINE
  5
20a
100
AcDbEntity
  8
Layer_1
 62
3
100
AcDbSpline
 70
8
 71
3
 72
8
 73
4
 74
0
 40
0
 40
0
 40
0
 40
0
 40
1
 40
1
 40
1
 40
1
 10
205.954576
 20
285.148367
 30
0.0
 10
204.448741
 20
285.556932
 30
0.0
 10
202.927512
 20
285.906487
 30
0.0
 10
201.394373
 20
286.196230
 30
0.0
  0
LINE
  5
20b
100
AcDbEntity
  8
Layer_1
 62
3
100
AcDbLine
 10
201.394373
 20
286.196230
 30
0.0
 11
201.403122
 21
286.307595
 31
0.0
  0
LINE
  5
20c
100
AcDbEntity
  8
Layer_1
 62
3
100
AcDbLine
 10
201.403122
 20
286.307595
 30
0.0
 11
201.134701
 21
289.410374
 31
0.0
  0
LINE
  5
20d
100
AcDbEntity
  8
Layer_1
 62
3
100
AcDbLine
 10
201.134701
 20
289.410374
 30
0.0
 11
197.969607
 21
289.911431
 31
0.0
  0
LINE
  5
20e
100
AcDbEntity
  8
Layer_1
 62
3
100
AcDbLine
 10
197.969607
 20
289.911431
 30
0.0
 11
196.755289
 21
287.043461
 31
0.0
  0
SPLINE
  5
20f
100
AcDbEntity
  8
Layer_1
 62
3
100
AcDbSpline
 70
8
 71
3
 72
8
 73
4
 74
0
 40
0
 40
0
 40
0
 40
0
 40
1
 40
1
 40
1
 40
1
 10
196.755289
 20
287.043461
 30
0.0
 10
196.755289
 20
287.043461
 30
0.0
 10
196.725515
 20
286.918324
 30
0.0
 10
196.725515
 20
286.918324
 30
0.0
  0
SPLINE
  5
210
100
AcDbEntity
  8
Layer_1
 62
3
100
AcDbSpline
 70
8
 71
3
 72
8
 73
4
 74
0
 40
0
 40
0
 40
0
 40
0
 40
1
 40
1
 40
1
 40
1
 10
196.725515
 20
286.918324
 30
0.0
 10
195.179688
 20
287.113331
 30
0.0
 10
193.626839
 20
287.247931
 30
0.0
 10
192.070513
 20
287.321817
 30
0.0
  0
LINE
  5
211
100
AcDbEntity
  8
Layer_1
 62
3
100
AcDbLine
 10
192.070513
 20
287.321817
 30
0.0
 11
192.063457
 21
287.412777
 31
0.0
  0
LINE
  5
212
100
AcDbEntity
  8
Layer_1
 62
3
100
AcDbLine
 10
192.063457
 20
287.412777
 30
0.0
 11
191.312690
 21
290.435631
 31
0.0
  0
LINE
  5
213
100
AcDbEntity
  8
Layer_1
 62
3
100
AcDbLine
 10
191.312690
 20
290.435631
 30
0.0
 11
188.108480
 21
290.435631
 31
0.0
  0
LINE
  5
214
100
AcDbEntity
  8
Layer_1
 62
3
100
AcDbLine
 10
188.108480
 20
290.435631
 30
0.0
 11
188.108226
 21
290.435631
 31
0.0
  0
SPLINE
  5
215
100
AcDbEntity
  8
Layer_1
 62
5
100
AcDbSpline
 70
8
 71
3
 72
8
 73
4
 74
0
 40
0
 40
0
 40
0
 40
0
 40
1
 40
1
 40
1
 40
1
 10
189.710063
 20
276.885366
 30
0.0
 10
196.584178
 20
276.873795
 30
0.0
 10
203.380069
 20
275.426362
 30
0.0
 10
209.662412
 20
272.636059
 30
0.0
  0
LINE
  5
216
100
AcDbEntity
  8
Layer_1
 62
5
100
AcDbLine
 10
209.662412
 20
272.636059
 30
0.0
 11
194.168299
 21
236.879830
 31
0.0
  0
LINE
  5
217
100
AcDbEntity
  8
Layer_1
 62
5
100
AcDbLine
 10
194.168299
 20
236.879830
 30
0.0
 11
194.025523
 21
236.802106
 31
0.0
  0
LINE
  5
218
100
AcDbEntity
  8
Layer_1
 62
5
100
AcDbLine
 10
194.025523
 20
236.802106
 30
0.0
 11
168.034634
 21
271.834604
 31
0.0
  0
SPLINE
  5
219
100
AcDbEntity
  8
Layer_1
 62
5
100
AcDbSpline
 70
8
 71
3
 72
8
 73
4
 74
0
 40
0
 40
0
 40
0
 40
0
 40
1
 40
1
 40
1
 40
1
 10
168.034634
 20
271.834604
 30
0.0
 10
174.781060
 20
275.146341
 30
0.0
 10
182.194632
 20
276.873851
 30
0.0
 10
189.710063
 20
276.885366
 30
0.0
  0
LINE
  5
21a
100
AcDbEntity
  8
Layer_1
 62
5
100
AcDbLine
 10
189.710063
 20
276.885366
 30
0.0
 11
189.710063
 21
276.885366
 31
0.0
  0
SPLINE
  5
21b
100
AcDbEntity
  8
Layer_1
 62
5
100
AcDbSpline
 70
8
 71
3
 72
8
 73
4
 74
0
 40
0
 40
0
 40
0
 40
0
 40
1
 40
1
 40
1
 40
1
 10
217.121432
 20
268.545502
 30
0.0
 10
229.313025
 20
260.380823
 30
0.0
 10
237.240262
 20
247.215424
 30
0.0
 10
238.752778
 20
232.620589
 30
0.0
  0
SPLINE
  5
21c
100
AcDbEntity
  8
Layer_1
 62
5
100
AcDbSpline
 70
8
 71
3
 72
8
 73
4
 74
0
 40
0
 40
0
 40
0
 40
0
 40
1
 40
1
 40
1
 40
1
 10
238.752778
 20
232.620589
 30
0.0
 10
238.752778
 20
232.620589
 30
0.0
 10
200.184261
 20
228.177790
 30
0.0
 10
200.184261
 20
228.177790
 30
0.0
  0
SPLINE
  5
21d
100
AcDbEntity
  8
Layer_1
 62
5
100
AcDbSpline
 70
8
 71
3
 72
8
 73
4
 74
0
 40
0
 40
0
 40
0
 40
0
 40
1
 40
1
 40
1
 40
1
 10
200.184261
 20
228.177790
 30
0.0
 10
200.154773
 20
228.503999
 30
0.0
 10
200.110077
 20
228.828654
 30
0.0
 10
200.050318
 20
229.150695
 30
0.0
  0
LINE
  5
21e
100
AcDbEntity
  8
Layer_1
 62
5
100
AcDbLine
 10
200.050318
 20
229.150695
 30
0.0
 11
217.121432
 21
268.545502
 31
0.0
  0
LINE
  5
21f
100
AcDbEntity
  8
Layer_1
 62
5
100
AcDbLine
 10
217.121432
 20
268.545502
 30
0.0
 11
217.121432
 21
268.545502
 31
0.0
  0
LINE
  5
220
100
AcDbEntity
  8
Layer_1
 62
5
100
AcDbLine
 10
160.757478
 20
267.427620
 30
0.0
 11
183.856703
 21
235.941526
 31
0.0
  0
SPLINE
  5
221
100
AcDbEntity
  8
Layer_1
 62
5
100
AcDbSpline
 70
8
 71
3
 72
8
 73
4
 74
0
 40
0
 40
0
 40
0
 40
0
 40
1
 40
1
 40
1
 40
1
 10
183.856703
 20
235.941526
 30
0.0
 10
184.542170
 20
236.009767
 30
0.0
 10
140.520705
 20
230.938290
 30
0.0
 10
140.520705
 20
230.938290
 30
0.0
  0
SPLINE
  5
222
100
AcDbEntity
  8
Layer_1
 62
5
100
AcDbSpline
 70
8
 71
3
 72
8
 73
4
 74
0
 40
0
 40
0
 40
0
 40
0
 40
1
 40
1
 40
1
 40
1
 10
140.520705
 20
230.938290
 30
0.0
 10
141.541150
 20
245.494692
 30
0.0
 10
148.949949
 20
258.853652
 30
0.0
 10
160.757478
 20
267.427620
 30
0.0
  0
LINE
  5
223
100
AcDbEntity
  8
Layer_1
 62
5
100
AcDbLine
 10
160.757478
 20
267.427620
 30
0.0
 11
160.757478
 21
267.427620
 31
0.0
  0
SPLINE
  5
224
100
AcDbEntity
  8
Layer_1
 62
5
100
AcDbSpline
 70
8
 71
3
 72
8
 73
4
 74
0
 40
0
 40
0
 40
0
 40
0
 40
1
 40
1
 40
1
 40
1
 10
179.195084
 20
226.867545
 30
0.0
 10
179.202285
 20
226.664914
 30
0.0
 10
179.215338
 20
226.462532
 30
0.0
 10
179.234228
 20
226.260655
 30
0.0
  0
SPLINE
  5
225
100
AcDbEntity
  8
Layer_1
 62
5
100
AcDbSpline
 70
8
 71
3
 72
8
 73
4
 74
0
 40
0
 40
0
 40
0
 40
0
 40
1
 40
1
 40
1
 40
1
 10
179.234228
 20
226.260655
 30
0.0
 10
179.234228
 20
226.260655
 30
0.0
 10
162.067723
 20
186.644811
 30
0.0
 10
162.067723
 20
186.644811
 30
0.0
  0
SPLINE
  5
226
100
AcDbEntity
  8
Layer_1
 62
5
100
AcDbSpline
 70
8
 71
3
 72
8
 73
4
 74
0
 40
0
 40
0
 40
0
 40
0
 40
1
 40
1
 40
1
 40
1
 10
162.067723
 20
186.644811
 30
0.0
 10
149.999578
 20
194.826769
 30
0.0
 10
142.166116
 20
207.925516
 30
0.0
 10
140.667884
 20
222.428613
 30
0.0
  0
LINE
  5
227
100
AcDbEntity
  8
Layer_1
 62
5
100
AcDbLine
 10
140.667884
 20
222.428613
 30
0.0
 11
179.195084
 21
226.867545
 31
0.0
  0
LINE
  5
228
100
AcDbEntity
  8
Layer_1
 62
5
100
AcDbLine
 10
179.195084
 20
226.867545
 30
0.0
 11
179.195084
 21
226.867545
 31
0.0
  0
SPLINE
  5
229
100
AcDbEntity
  8
Layer_1
 62
5
100
AcDbSpline
 70
8
 71
3
 72
8
 73
4
 74
0
 40
0
 40
0
 40
0
 40
0
 40
1
 40
1
 40
1
 40
1
 10
238.899957
 20
224.111476
 30
0.0
 10
237.871747
 20
209.448930
 30
0.0
 10
230.362519
 20
196.007400
 30
0.0
 10
218.415703
 20
187.444629
 30
0.0
  0
LINE
  5
22a
100
AcDbEntity
  8
Layer_1
 62
5
100
AcDbLine
 10
218.415703
 20
187.444629
 30
0.0
 11
195.455373
 21
218.392610
 31
0.0
  0
SPLINE
  5
22b
100
AcDbEntity
  8
Layer_1
 62
5
100
AcDbSpline
 70
8
 71
3
 72
8
 73
4
 74
0
 40
0
 40
0
 40
0
 40
0
 40
1
 40
1
 40
1
 40
1
 10
195.455373
 20
218.392610
 30
0.0
 10
195.841865
 20
218.648182
 30
0.0
 10
196.211062
 20
218.928992
 30
0.0
 10
196.560556
 20
219.233208
 30
0.0
  0
LINE
  5
22c
100
AcDbEntity
  8
Layer_1
 62
5
100
AcDbLine
 10
196.560556
 20
219.233208
 30
0.0
 11
238.899957
 21
224.111476
 31
0.0
  0
LINE
  5
22d
100
AcDbEntity
  8
Layer_1
 62
5
100
AcDbLine
 10
238.899957
 20
224.111476
 30
0.0
 11
238.899957
 21
224.111476
 31
0.0
  0
SPLINE
  5
22e
100
AcDbEntity
  8
Layer_1
 62
5
100
AcDbSpline
 70
8
 71
3
 72
8
 73
4
 74
0
 40
0
 40
0
 40
0
 40
0
 40
1
 40
1
 40
1
 40
1
 10
184.836762
 20
217.888250
 30
0.0
 10
185.064453
 20
217.767696
 30
0.0
 10
185.296492
 20
217.655540
 30
0.0
 10
185.532412
 20
217.552011
 30
0.0
  0
SPLINE
  5
22f
100
AcDbEntity
  8
Layer_1
 62
5
100
AcDbSpline
 70
8
 71
3
 72
8
 73
4
 74
0
 40
0
 40
0
 40
0
 40
0
 40
1
 40
1
 40
1
 40
1
 10
185.532412
 20
217.552011
 30
0.0
 10
185.532412
 20
217.552011
 30
0.0
 10
211.101632
 20
183.087287
 30
0.0
 10
211.101632
 20
183.087287
 30
0.0
  0
SPLINE
  5
230
100
AcDbEntity
  8
Layer_1
 62
5
100
AcDbSpline
 70
8
 71
3
 72
8
 73
4
 74
0
 40
0
 40
0
 40
0
 40
0
 40
1
 40
1
 40
1
 40
1
 10
211.101632
 20
183.087287
 30
0.0
 10
204.431029
 20
179.861359
 30
0.0
 10
197.119742
 20
178.178604
 30
0.0
 10
189.710063
 20
178.163836
 30
0.0
  0
SPLINE
  5
231
100
AcDbEntity
  8
Layer_1
 62
5
100
AcDbSpline
 70
8
 71
3
 72
8
 73
4
 74
0
 40
0
 40
0
 40
0
 40
0
 40
1
 40
1
 40
1
 40
1
 10
189.710063
 20
178.163836
 30
0.0
 10
182.746178
 20
178.178445
 30
0.0
 10
175.864197
 20
179.666426
 30
0.0
 10
169.516301
 20
182.530011
 30
0.0
  0
LINE
  5
232
100
AcDbEntity
  8
Layer_1
 62
5
100
AcDbLine
 10
169.516301
 20
182.530011
 30
0.0
 11
184.836762
 21
217.888250
 31
0.0
  0
LINE
  5
233
100
AcDbEntity
  8
Layer_1
 62
5
100
AcDbLine
 10
184.836762
 20
217.888250
 30
0.0
 11
184.836762
 21
217.888250
 31
0.0
  0
SPLINE
  5
234
100
AcDbEntity
  8
Layer_1
 62
1
100
AcDbSpline
 70
8
 71
3
 72
8
 73
4
 74
0
 40
0
 40
0
 40
0
 40
0
 40
1
 40
1
 40
1
 40
1
 10
61.985655
 20
229.010494
 30
0.0
 10
62.549946
 20
228.445729
 30
0.0
 10
62.549567
 20
227.530450
 30
0.0
 10
61.984808
 20
226.966152
 30
0.0
  0
SPLINE
  5
235
100
AcDbEntity
  8
Layer_1
 62
1
100
AcDbSpline
 70
8
 71
3
 72
8
 73
4
 74
0
 40
0
 40
0
 40
0
 40
0
 40
1
 40
1
 40
1
 40
1
 10
61.984808
 20
226.966152
 30
0.0
 10
61.420043
 20
226.401861
 30
0.0
 10
60.504764
 20
226.402240
 30
0.0
 10
59.940467
 20
226.966999
 30
0.0
  0
SPLINE
  5
236
100
AcDbEntity
  8
Layer_1
 62
1
100
AcDbSpline
 70
8
 71
3
 72
8
 73
4
 74
0
 40
0
 40
0
 40
0
 40
0
 40
1
 40
1
 40
1
 40
1
 10
59.940467
 20
226.966999
 30
0.0
 10
59.669479
 20
227.238209
 30
0.0
 10
59.517329
 20
227.605961
 30
0.0
 10
59.517488
 20
227.989353
 30
0.0
  0
SPLINE
  5
237
100
AcDbEntity
  8
Layer_1
 62
1
100
AcDbSpline
 70
8
 71
3
 72
8
 73
4
 74
0
 40
0
 40
0
 40
0
 40
0
 40
1
 40
1
 40
1
 40
1
 10
59.517488
 20
227.989353
 30
0.0
 10
59.517647
 20
228.372745
 30
0.0
 10
59.670101
 20
228.740371
 30
0.0
 10
59.941313
 20
229.011357
 30
0.0
  0
SPLINE
  5
238
100
AcDbEntity
  8
Layer_1
 62
1
100
AcDbSpline
 70
8
 71
3
 72
8
 73
4
 74
0
 40
0
 40
0
 40
0
 40
0
 40
1
 40
1
 40
1
 40
1
 10
59.941313
 20
229.011357
 30
0.0
 10
60.212524
 20
229.282345
 30
0.0
 10
60.580276
 20
229.434495
 30
0.0
 10
60.963668
 20
229.434336
 30
0.0
  0
SPLINE
  5
239
100
AcDbEntity
  8
Layer_1
 62
1
100
AcDbSpline
 70
8
 71
3
 72
8
 73
4
 74
0
 40
0
 40
0
 40
0
 40
0
 40
1
 40
1
 40
1
 40
1
 10
60.963668
 20
229.434336
 30
0.0
 10
61.347060
 20
229.434177
 30
0.0
 10
61.714686
 20
229.281722
 30
0.0
 10
61.985672
 20
229.010511
 30
0.0
  0
LINE
  5
23a
100
AcDbEntity
  8
Layer_1
 62
1
100
AcDbLine
 10
61.985672
 20
229.010511
 30
0.0
 11
61.985655
 21
229.010494
 31
0.0
  0
SPLINE
  5
23b
100
AcDbEntity
  8
Layer_1
 62
1
100
AcDbSpline
 70
8
 71
3
 72
8
 73
4
 74
0
 40
0
 40
0
 40
0
 40
0
 40
1
 40
1
 40
1
 40
1
 10
70.984728
 20
238.160536
 30
0.0
 10
71.549021
 20
237.595771
 30
0.0
 10
71.548642
 20
236.680489
 30
0.0
 10
70.983881
 20
236.116192
 30
0.0
  0
SPLINE
  5
23c
100
AcDbEntity
  8
Layer_1
 62
1
100
AcDbSpline
 70
8
 71
3
 72
8
 73
4
 74
0
 40
0
 40
0
 40
0
 40
0
 40
1
 40
1
 40
1
 40
1
 10
70.983881
 20
236.116192
 30
0.0
 10
70.419117
 20
235.551903
 30
0.0
 10
69.503840
 20
235.552282
 30
0.0
 10
68.939543
 20
236.117038
 30
0.0
  0
SPLINE
  5
23d
100
AcDbEntity
  8
Layer_1
 62
1
100
AcDbSpline
 70
8
 71
3
 72
8
 73
4
 74
0
 40
0
 40
0
 40
0
 40
0
 40
1
 40
1
 40
1
 40
1
 10
68.939543
 20
236.117038
 30
0.0
 10
68.668519
 20
236.388211
 30
0.0
 10
68.516319
 20
236.755942
 30
0.0
 10
68.516424
 20
237.139333
 30
0.0
  0
SPLINE
  5
23e
100
AcDbEntity
  8
Layer_1
 62
1
100
AcDbSpline
 70
8
 71
3
 72
8
 73
4
 74
0
 40
0
 40
0
 40
0
 40
0
 40
1
 40
1
 40
1
 40
1
 10
68.516424
 20
237.139333
 30
0.0
 10
68.516530
 20
237.522724
 30
0.0
 10
68.668934
 20
237.890371
 30
0.0
 10
68.940107
 20
238.161394
 30
0.0
  0
SPLINE
  5
23f
100
AcDbEntity
  8
Layer_1
 62
1
100
AcDbSpline
 70
8
 71
3
 72
8
 73
4
 74
0
 40
0
 40
0
 40
0
 40
0
 40
1
 40
1
 40
1
 40
1
 10
68.940107
 20
238.161394
 30
0.0
 10
69.211318
 20
238.432381
 30
0.0
 10
69.579070
 20
238.584531
 30
0.0
 10
69.962462
 20
238.584373
 30
0.0
  0
SPLINE
  5
240
100
AcDbEntity
  8
Layer_1
 62
1
100
AcDbSpline
 70
8
 71
3
 72
8
 73
4
 74
0
 40
0
 40
0
 40
0
 40
0
 40
1
 40
1
 40
1
 40
1
 10
69.962462
 20
238.584373
 30
0.0
 10
70.345854
 20
238.584214
 30
0.0
 10
70.713480
 20
238.431759
 30
0.0
 10
70.984466
 20
238.160547
 30
0.0
  0
LINE
  5
241
100
AcDbEntity
  8
Layer_1
 62
1
100
AcDbLine
 10
70.984466
 20
238.160547
 30
0.0
 11
70.984728
 21
238.160536
 31
0.0
  0
SPLINE
  5
242
100
AcDbEntity
  8
Layer_1
 62
1
100
AcDbSpline
 70
8
 71
3
 72
8
 73
4
 74
0
 40
0
 40
0
 40
0
 40
0
 40
1
 40
1
 40
1
 40
1
 10
61.909427
 20
236.040700
 30
0.0
 10
61.344661
 20
235.476409
 30
0.0
 10
60.429383
 20
235.476788
 30
0.0
 10
59.865085
 20
236.041547
 30
0.0
  0
SPLINE
  5
243
100
AcDbEntity
  8
Layer_1
 62
1
100
AcDbSpline
 70
8
 71
3
 72
8
 73
4
 74
0
 40
0
 40
0
 40
0
 40
0
 40
1
 40
1
 40
1
 40
1
 10
59.865085
 20
236.041547
 30
0.0
 10
59.300716
 20
236.606234
 30
0.0
 10
59.300969
 20
237.521513
 30
0.0
 10
59.865649
 20
238.085888
 30
0.0
  0
SPLINE
  5
244
100
AcDbEntity
  8
Layer_1
 62
1
100
AcDbSpline
 70
8
 71
3
 72
8
 73
4
 74
0
 40
0
 40
0
 40
0
 40
0
 40
1
 40
1
 40
1
 40
1
 10
59.865649
 20
238.085888
 30
0.0
 10
60.136860
 20
238.356876
 30
0.0
 10
60.504612
 20
238.509026
 30
0.0
 10
60.888004
 20
238.508867
 30
0.0
  0
SPLINE
  5
245
100
AcDbEntity
  8
Layer_1
 62
1
100
AcDbSpline
 70
8
 71
3
 72
8
 73
4
 74
0
 40
0
 40
0
 40
0
 40
0
 40
1
 40
1
 40
1
 40
1
 10
60.888004
 20
238.508867
 30
0.0
 10
61.271396
 20
238.508708
 30
0.0
 10
61.639022
 20
238.356253
 30
0.0
 10
61.910008
 20
238.085042
 30
0.0
  0
SPLINE
  5
246
100
AcDbEntity
  8
Layer_1
 62
1
100
AcDbSpline
 70
8
 71
3
 72
8
 73
4
 74
0
 40
0
 40
0
 40
0
 40
0
 40
1
 40
1
 40
1
 40
1
 10
61.910008
 20
238.085042
 30
0.0
 10
62.180995
 20
237.813831
 30
0.0
 10
62.333145
 20
237.446079
 30
0.0
 10
62.332987
 20
237.062687
 30
0.0
  0
SPLINE
  5
247
100
AcDbEntity
  8
Layer_1
 62
1
100
AcDbSpline
 70
8
 71
3
 72
8
 73
4
 74
0
 40
0
 40
0
 40
0
 40
0
 40
1
 40
1
 40
1
 40
1
 10
62.332987
 20
237.062687
 30
0.0
 10
62.332828
 20
236.679295
 30
0.0
 10
62.180373
 20
236.311669
 30
0.0
 10
61.909161
 20
236.040683
 30
0.0
  0
LINE
  5
248
100
AcDbEntity
  8
Layer_1
 62
1
100
AcDbLine
 10
61.909161
 20
236.040683
 30
0.0
 11
61.909427
 21
236.040700
 31
0.0
  0
SPLINE
  5
249
100
AcDbEntity
  8
Layer_1
 62
1
100
AcDbSpline
 70
8
 71
3
 72
8
 73
4
 74
0
 40
0
 40
0
 40
0
 40
0
 40
1
 40
1
 40
1
 40
1
 10
71.059469
 20
227.041627
 30
0.0
 10
70.494704
 20
226.477334
 30
0.0
 10
69.579422
 20
226.477713
 30
0.0
 10
69.015125
 20
227.042473
 30
0.0
  0
SPLINE
  5
24a
100
AcDbEntity
  8
Layer_1
 62
1
100
AcDbSpline
 70
8
 71
3
 72
8
 73
4
 74
0
 40
0
 40
0
 40
0
 40
0
 40
1
 40
1
 40
1
 40
1
 10
69.015125
 20
227.042473
 30
0.0
 10
68.450836
 20
227.607238
 30
0.0
 10
68.451215
 20
228.522515
 30
0.0
 10
69.015971
 20
229.086812
 30
0.0
  0
SPLINE
  5
24b
100
AcDbEntity
  8
Layer_1
 62
1
100
AcDbSpline
 70
8
 71
3
 72
8
 73
4
 74
0
 40
0
 40
0
 40
0
 40
0
 40
1
 40
1
 40
1
 40
1
 10
69.015971
 20
229.086812
 30
0.0
 10
69.287144
 20
229.357836
 30
0.0
 10
69.654875
 20
229.510036
 30
0.0
 10
70.038266
 20
229.509930
 30
0.0
  0
SPLINE
  5
24c
100
AcDbEntity
  8
Layer_1
 62
1
100
AcDbSpline
 70
8
 71
3
 72
8
 73
4
 74
0
 40
0
 40
0
 40
0
 40
0
 40
1
 40
1
 40
1
 40
1
 10
70.038266
 20
229.509930
 30
0.0
 10
70.421657
 20
229.509825
 30
0.0
 10
70.789304
 20
229.357421
 30
0.0
 10
71.060327
 20
229.086248
 30
0.0
  0
SPLINE
  5
24d
100
AcDbEntity
  8
Layer_1
 62
1
100
AcDbSpline
 70
8
 71
3
 72
8
 73
4
 74
0
 40
0
 40
0
 40
0
 40
0
 40
1
 40
1
 40
1
 40
1
 10
71.060327
 20
229.086248
 30
0.0
 10
71.331314
 20
228.815037
 30
0.0
 10
71.483464
 20
228.447285
 30
0.0
 10
71.483305
 20
228.063893
 30
0.0
  0
SPLINE
  5
24e
100
AcDbEntity
  8
Layer_1
 62
1
100
AcDbSpline
 70
8
 71
3
 72
8
 73
4
 74
0
 40
0
 40
0
 40
0
 40
0
 40
1
 40
1
 40
1
 40
1
 10
71.483305
 20
228.063893
 30
0.0
 10
71.483147
 20
227.680501
 30
0.0
 10
71.330692
 20
227.312875
 30
0.0
 10
71.059480
 20
227.041889
 30
0.0
  0
LINE
  5
24f
100
AcDbEntity
  8
Layer_1
 62
1
100
AcDbLine
 10
71.059480
 20
227.041889
 30
0.0
 11
71.059469
 21
227.041627
 31
0.0
  0
SPLINE
  5
250
100
AcDbEntity
  8
Layer_1
 62
1
100
AcDbSpline
 70
8
 71
3
 72
8
 73
4
 74
0
 40
0
 40
0
 40
0
 40
0
 40
1
 40
1
 40
1
 40
1
 10
66.485177
 20
233.585528
 30
0.0
 10
66.756166
 20
233.314317
 30
0.0
 10
66.908316
 20
232.946564
 30
0.0
 10
66.908157
 20
232.563171
 30
0.0
  0
SPLINE
  5
251
100
AcDbEntity
  8
Layer_1
 62
1
100
AcDbSpline
 70
8
 71
3
 72
8
 73
4
 74
0
 40
0
 40
0
 40
0
 40
0
 40
1
 40
1
 40
1
 40
1
 10
66.908157
 20
232.563171
 30
0.0
 10
66.907999
 20
232.179779
 30
0.0
 10
66.755543
 20
231.812152
 30
0.0
 10
66.484331
 20
231.541166
 30
0.0
  0
SPLINE
  5
252
100
AcDbEntity
  8
Layer_1
 62
1
100
AcDbSpline
 70
8
 71
3
 72
8
 73
4
 74
0
 40
0
 40
0
 40
0
 40
0
 40
1
 40
1
 40
1
 40
1
 10
66.484331
 20
231.541166
 30
0.0
 10
65.919800
 20
230.976644
 30
0.0
 10
65.004523
 20
230.976644
 30
0.0
 10
64.439992
 20
231.541166
 30
0.0
  0
SPLINE
  5
253
100
AcDbEntity
  8
Layer_1
 62
1
100
AcDbSpline
 70
8
 71
3
 72
8
 73
4
 74
0
 40
0
 40
0
 40
0
 40
0
 40
1
 40
1
 40
1
 40
1
 10
64.439992
 20
231.541166
 30
0.0
 10
64.169004
 20
231.812377
 30
0.0
 10
64.016853
 20
232.180130
 30
0.0
 10
64.017012
 20
232.563522
 30
0.0
  0
SPLINE
  5
254
100
AcDbEntity
  8
Layer_1
 62
1
100
AcDbSpline
 70
8
 71
3
 72
8
 73
4
 74
0
 40
0
 40
0
 40
0
 40
0
 40
1
 40
1
 40
1
 40
1
 10
64.017012
 20
232.563522
 30
0.0
 10
64.017171
 20
232.946915
 30
0.0
 10
64.169626
 20
233.314541
 30
0.0
 10
64.440839
 20
233.585528
 30
0.0
  0
SPLINE
  5
255
100
AcDbEntity
  8
Layer_1
 62
1
100
AcDbSpline
 70
8
 71
3
 72
8
 73
4
 74
0
 40
0
 40
0
 40
0
 40
0
 40
1
 40
1
 40
1
 40
1
 10
64.440839
 20
233.585528
 30
0.0
 10
64.711937
 20
233.856627
 30
0.0
 10
65.079626
 20
234.008929
 30
0.0
 10
65.463018
 20
234.008929
 30
0.0
  0
SPLINE
  5
256
100
AcDbEntity
  8
Layer_1
 62
1
100
AcDbSpline
 70
8
 71
3
 72
8
 73
4
 74
0
 40
0
 40
0
 40
0
 40
0
 40
1
 40
1
 40
1
 40
1
 10
65.463018
 20
234.008929
 30
0.0
 10
65.846410
 20
234.008929
 30
0.0
 10
66.214099
 20
233.856627
 30
0.0
 10
66.485197
 20
233.585528
 30
0.0
  0
LINE
  5
257
100
AcDbEntity
  8
Layer_1
 62
1
100
AcDbLine
 10
66.485197
 20
233.585528
 30
0.0
 11
66.485177
 21
233.585528
 31
0.0
  0
LINE
  5
258
100
AcDbEntity
  8
Layer_1
 62
3
100
AcDbLine
 10
63.860296
 20
295.474647
 30
0.0
 11
63.109557
 21
292.451793
 31
0.0
  0
SPLINE
  5
259
100
AcDbEntity
  8
Layer_1
 62
3
100
AcDbSpline
 70
8
 71
3
 72
8
 73
4
 74
0
 40
0
 40
0
 40
0
 40
0
 40
1
 40
1
 40
1
 40
1
 10
63.109557
 20
292.451793
 30
0.0
 10
63.109557
 20
292.451793
 30
0.0
 10
63.100244
 20
292.326119
 30
0.0
 10
63.100244
 20
292.326119
 30
0.0
  0
SPLINE
  5
25a
100
AcDbEntity
  8
Layer_1
 62
3
100
AcDbSpline
 70
8
 71
3
 72
8
 73
4
 74
0
 40
0
 40
0
 40
0
 40
0
 40
1
 40
1
 40
1
 40
1
 10
63.100244
 20
292.326119
 30
0.0
 10
61.543099
 20
292.273962
 30
0.0
 10
59.988584
 20
292.161053
 30
0.0
 10
58.440247
 20
291.987650
 30
0.0
  0
LINE
  5
25b
100
AcDbEntity
  8
Layer_1
 62
3
100
AcDbLine
 10
58.440247
 20
291.987650
 30
0.0
 11
58.417669
 21
292.082477
 31
0.0
  0
LINE
  5
25c
100
AcDbEntity
  8
Layer_1
 62
3
100
AcDbLine
 10
58.417669
 20
292.082477
 30
0.0
 11
57.203323
 21
294.950447
 31
0.0
  0
LINE
  5
25d
100
AcDbEntity
  8
Layer_1
 62
3
100
AcDbLine
 10
57.203323
 20
294.950447
 30
0.0
 11
54.038257
 21
294.449390
 31
0.0
  0
LINE
  5
25e
100
AcDbEntity
  8
Layer_1
 62
3
100
AcDbLine
 10
54.038257
 20
294.449390
 30
0.0
 11
53.769808
 21
291.346611
 31
0.0
  0
LINE
  5
25f
100
AcDbEntity
  8
Layer_1
 62
3
100
AcDbLine
 10
53.769808
 20
291.346611
 30
0.0
 11
53.774888
 21
291.282095
 31
0.0
  0
SPLINE
  5
260
100
AcDbEntity
  8
Layer_1
 62
3
100
AcDbSpline
 70
8
 71
3
 72
8
 73
4
 74
0
 40
0
 40
0
 40
0
 40
0
 40
1
 40
1
 40
1
 40
1
 10
53.774888
 20
291.282095
 30
0.0
 10
52.247759
 20
290.962503
 30
0.0
 10
50.733704
 20
290.583349
 30
0.0
 10
49.236190
 20
290.145501
 30
0.0
  0
LINE
  5
261
100
AcDbEntity
  8
Layer_1
 62
3
100
AcDbLine
 10
49.236190
 20
290.145501
 30
0.0
 11
49.193744
 21
290.248032
 31
0.0
  0
LINE
  5
262
100
AcDbEntity
  8
Layer_1
 62
3
100
AcDbLine
 10
49.193744
 20
290.248032
 30
0.0
 11
47.546158
 21
292.890564
 31
0.0
  0
LINE
  5
263
100
AcDbEntity
  8
Layer_1
 62
3
100
AcDbLine
 10
47.546158
 20
292.890564
 30
0.0
 11
44.497933
 21
291.900020
 31
0.0
  0
LINE
  5
264
100
AcDbEntity
  8
Layer_1
 62
3
100
AcDbLine
 10
44.497933
 20
291.900020
 30
0.0
 11
44.718405
 21
288.793374
 31
0.0
  0
SPLINE
  5
265
100
AcDbEntity
  8
Layer_1
 62
3
100
AcDbSpline
 70
8
 71
3
 72
8
 73
4
 74
0
 40
0
 40
0
 40
0
 40
0
 40
1
 40
1
 40
1
 40
1
 10
44.718405
 20
288.793374
 30
0.0
 10
44.718405
 20
288.793374
 30
0.0
 10
44.748744
 20
288.668237
 30
0.0
 10
44.748744
 20
288.668237
 30
0.0
  0
SPLINE
  5
266
100
AcDbEntity
  8
Layer_1
 62
3
100
AcDbSpline
 70
8
 71
3
 72
8
 73
4
 74
0
 40
0
 40
0
 40
0
 40
0
 40
1
 40
1
 40
1
 40
1
 10
44.748744
 20
288.668237
 30
0.0
 10
43.287512
 20
288.132007
 30
0.0
 10
41.847744
 20
287.539008
 30
0.0
 10
40.432719
 20
286.890590
 30
0.0
  0
LINE
  5
267
100
AcDbEntity
  8
Layer_1
 62
3
100
AcDbLine
 10
40.432719
 20
286.890590
 30
0.0
 11
40.370433
 21
286.992557
 31
0.0
  0
LINE
  5
268
100
AcDbEntity
  8
Layer_1
 62
3
100
AcDbLine
 10
40.370433
 20
286.992557
 30
0.0
 11
38.329289
 21
289.345147
 31
0.0
  0
LINE
  5
269
100
AcDbEntity
  8
Layer_1
 62
3
100
AcDbLine
 10
38.329289
 20
289.345147
 30
0.0
 11
35.473990
 21
287.889925
 31
0.0
  0
LINE
  5
26a
100
AcDbEntity
  8
Layer_1
 62
3
100
AcDbLine
 10
35.473990
 20
287.889925
 30
0.0
 11
36.177344
 21
284.856022
 31
0.0
  0
SPLINE
  5
26b
100
AcDbEntity
  8
Layer_1
 62
3
100
AcDbSpline
 70
8
 71
3
 72
8
 73
4
 74
0
 40
0
 40
0
 40
0
 40
0
 40
1
 40
1
 40
1
 40
1
 10
36.177344
 20
284.856022
 30
0.0
 10
36.177344
 20
284.856022
 30
0.0
 10
36.208756
 20
284.779991
 30
0.0
 10
36.208756
 20
284.779991
 30
0.0
  0
SPLINE
  5
26c
100
AcDbEntity
  8
Layer_1
 62
3
100
AcDbSpline
 70
8
 71
3
 72
8
 73
4
 74
0
 40
0
 40
0
 40
0
 40
0
 40
1
 40
1
 40
1
 40
1
 10
36.208756
 20
284.779991
 30
0.0
 10
34.847298
 20
284.016860
 30
0.0
 10
33.516196
 20
283.200794
 30
0.0
 10
32.218500
 20
282.333660
 30
0.0
  0
LINE
  5
26d
100
AcDbEntity
  8
Layer_1
 62
3
100
AcDbLine
 10
32.218500
 20
282.333660
 30
0.0
 11
32.164483
 21
282.397048
 31
0.0
  0
LINE
  5
26e
100
AcDbEntity
  8
Layer_1
 62
3
100
AcDbLine
 10
32.164483
 20
282.397048
 30
0.0
 11
29.780492
 21
284.401277
 31
0.0
  0
LINE
  5
26f
100
AcDbEntity
  8
Layer_1
 62
3
100
AcDbLine
 10
29.780492
 20
284.401277
 30
0.0
 11
27.188112
 21
282.517782
 31
0.0
  0
LINE
  5
270
100
AcDbEntity
  8
Layer_1
 62
3
100
AcDbLine
 10
27.188112
 20
282.517782
 30
0.0
 11
28.357246
 21
279.631044
 31
0.0
  0
SPLINE
  5
271
100
AcDbEntity
  8
Layer_1
 62
3
100
AcDbSpline
 70
8
 71
3
 72
8
 73
4
 74
0
 40
0
 40
0
 40
0
 40
0
 40
1
 40
1
 40
1
 40
1
 10
28.357246
 20
279.631044
 30
0.0
 10
28.357246
 20
279.631044
 30
0.0
 10
28.420068
 20
279.529077
 30
0.0
 10
28.420068
 20
279.529077
 30
0.0
  0
SPLINE
  5
272
100
AcDbEntity
  8
Layer_1
 62
3
100
AcDbSpline
 70
8
 71
3
 72
8
 73
4
 74
0
 40
0
 40
0
 40
0
 40
0
 40
1
 40
1
 40
1
 40
1
 10
28.420068
 20
279.529077
 30
0.0
 10
27.199779
 20
278.562757
 30
0.0
 10
26.017631
 20
277.549223
 30
0.0
 10
24.876320
 20
276.490786
 30
0.0
  0
LINE
  5
273
100
AcDbEntity
  8
Layer_1
 62
3
100
AcDbLine
 10
24.876320
 20
276.490786
 30
0.0
 11
24.778756
 21
276.574577
 31
0.0
  0
LINE
  5
274
100
AcDbEntity
  8
Layer_1
 62
3
100
AcDbLine
 10
24.778756
 20
276.574577
 30
0.0
 11
22.110881
 21
278.181353
 31
0.0
  0
LINE
  5
275
100
AcDbEntity
  8
Layer_1
 62
3
100
AcDbLine
 10
22.110881
 20
278.181353
 30
0.0
 11
19.844834
 21
275.915306
 31
0.0
  0
LINE
  5
276
100
AcDbEntity
  8
Layer_1
 62
3
100
AcDbLine
 10
19.844834
 20
275.915306
 30
0.0
 11
21.451073
 21
273.246867
 31
0.0
  0
SPLINE
  5
277
100
AcDbEntity
  8
Layer_1
 62
3
100
AcDbSpline
 70
8
 71
3
 72
8
 73
4
 74
0
 40
0
 40
0
 40
0
 40
0
 40
1
 40
1
 40
1
 40
1
 10
21.451073
 20
273.246867
 30
0.0
 10
21.451073
 20
273.246867
 30
0.0
 10
21.522730
 20
273.163103
 30
0.0
 10
21.522730
 20
273.163103
 30
0.0
  0
SPLINE
  5
278
100
AcDbEntity
  8
Layer_1
 62
3
100
AcDbSpline
 70
8
 71
3
 72
8
 73
4
 74
0
 40
0
 40
0
 40
0
 40
0
 40
1
 40
1
 40
1
 40
1
 10
21.522730
 20
273.163103
 30
0.0
 10
20.452447
 20
272.027679
 30
0.0
 10
19.426953
 20
270.850854
 30
0.0
 10
18.448596
 20
269.635326
 30
0.0
  0
LINE
  5
279
100
AcDbEntity
  8
Layer_1
 62
3
100
AcDbLine
 10
18.448596
 20
269.635326
 30
0.0
 11
18.395143
 21
269.668402
 31
0.0
  0
LINE
  5
27a
100
AcDbEntity
  8
Layer_1
 62
3
100
AcDbLine
 10
18.395143
 20
269.668402
 30
0.0
 11
15.508405
 21
270.837536
 31
0.0
  0
LINE
  5
27b
100
AcDbEntity
  8
Layer_1
 62
3
100
AcDbLine
 10
15.508405
 20
270.837536
 30
0.0
 11
13.624910
 21
268.245154
 31
0.0
  0
LINE
  5
27c
100
AcDbEntity
  8
Layer_1
 62
3
100
AcDbLine
 10
13.624910
 20
268.245154
 30
0.0
 11
15.628575
 21
265.861138
 31
0.0
  0
SPLINE
  5
27d
100
AcDbEntity
  8
Layer_1
 62
3
100
AcDbSpline
 70
8
 71
3
 72
8
 73
4
 74
0
 40
0
 40
0
 40
0
 40
0
 40
1
 40
1
 40
1
 40
1
 10
15.628575
 20
265.861138
 30
0.0
 10
15.628575
 20
265.861138
 30
0.0
 10
15.703561
 20
265.797215
 30
0.0
 10
15.703561
 20
265.797215
 30
0.0
  0
SPLINE
  5
27e
100
AcDbEntity
  8
Layer_1
 62
3
100
AcDbSpline
 70
8
 71
3
 72
8
 73
4
 74
0
 40
0
 40
0
 40
0
 40
0
 40
1
 40
1
 40
1
 40
1
 10
15.703561
 20
265.797215
 30
0.0
 10
14.846190
 20
264.496871
 30
0.0
 10
14.039879
 20
263.163570
 30
0.0
 10
13.286469
 20
261.800356
 30
0.0
  0
LINE
  5
27f
100
AcDbEntity
  8
Layer_1
 62
3
100
AcDbLine
 10
13.286469
 20
261.800356
 30
0.0
 11
13.169601
 21
261.848841
 31
0.0
  0
LINE
  5
280
100
AcDbEntity
  8
Layer_1
 62
3
100
AcDbLine
 10
13.169601
 20
261.848841
 30
0.0
 11
10.135712
 21
262.552196
 31
0.0
  0
LINE
  5
281
100
AcDbEntity
  8
Layer_1
 62
3
100
AcDbLine
 10
10.135712
 20
262.552196
 30
0.0
 11
8.681054
 21
259.696897
 31
0.0
  0
LINE
  5
282
100
AcDbEntity
  8
Layer_1
 62
3
100
AcDbLine
 10
8.681054
 20
259.696897
 30
0.0
 11
11.033094
 21
257.655753
 31
0.0
  0
SPLINE
  5
283
100
AcDbEntity
  8
Layer_1
 62
3
100
AcDbSpline
 70
8
 71
3
 72
8
 73
4
 74
0
 40
0
 40
0
 40
0
 40
0
 40
1
 40
1
 40
1
 40
1
 10
11.033094
 20
257.655753
 30
0.0
 10
11.033094
 20
257.655753
 30
0.0
 10
11.140592
 20
257.590164
 30
0.0
 10
11.140592
 20
257.590164
 30
0.0
  0
SPLINE
  5
284
100
AcDbEntity
  8
Layer_1
 62
3
100
AcDbSpline
 70
8
 71
3
 72
8
 73
4
 74
0
 40
0
 40
0
 40
0
 40
0
 40
1
 40
1
 40
1
 40
1
 10
11.140592
 20
257.590164
 30
0.0
 10
10.480123
 20
256.179125
 30
0.0
 10
9.874973
 20
254.742847
 30
0.0
 10
9.326524
 20
253.284610
 30
0.0
  0
LINE
  5
285
100
AcDbEntity
  8
Layer_1
 62
3
100
AcDbLine
 10
9.326524
 20
253.284610
 30
0.0
 11
9.232290
 21
253.307753
 31
0.0
  0
LINE
  5
286
100
AcDbEntity
  8
Layer_1
 62
3
100
AcDbLine
 10
9.232290
 20
253.307753
 30
0.0
 11
6.125616
 21
253.527688
 31
0.0
  0
LINE
  5
287
100
AcDbEntity
  8
Layer_1
 62
3
100
AcDbLine
 10
6.125616
 20
253.527688
 30
0.0
 11
5.135637
 21
250.479999
 31
0.0
  0
LINE
  5
288
100
AcDbEntity
  8
Layer_1
 62
3
100
AcDbLine
 10
5.135637
 20
250.479999
 30
0.0
 11
7.778169
 21
248.831906
 31
0.0
  0
SPLINE
  5
289
100
AcDbEntity
  8
Layer_1
 62
3
100
AcDbSpline
 70
8
 71
3
 72
8
 73
4
 74
0
 40
0
 40
0
 40
0
 40
0
 40
1
 40
1
 40
1
 40
1
 10
7.778169
 20
248.831906
 30
0.0
 10
7.778169
 20
248.831906
 30
0.0
 10
7.838818
 20
248.807070
 30
0.0
 10
7.838818
 20
248.807070
 30
0.0
  0
SPLINE
  5
28a
100
AcDbEntity
  8
Layer_1
 62
3
100
AcDbSpline
 70
8
 71
3
 72
8
 73
4
 74
0
 40
0
 40
0
 40
0
 40
0
 40
1
 40
1
 40
1
 40
1
 10
7.838818
 20
248.807070
 30
0.0
 10
7.430266
 20
247.301402
 30
0.0
 10
7.080712
 20
245.780343
 30
0.0
 10
6.790955
 20
244.247375
 30
0.0
  0
LINE
  5
28b
100
AcDbEntity
  8
Layer_1
 62
3
100
AcDbLine
 10
6.790955
 20
244.247375
 30
0.0
 11
6.679590
 21
244.256124
 31
0.0
  0
LINE
  5
28c
100
AcDbEntity
  8
Layer_1
 62
3
100
AcDbLine
 10
6.679590
 20
244.256124
 30
0.0
 11
3.576811
 21
243.987138
 31
0.0
  0
LINE
  5
28d
100
AcDbEntity
  8
Layer_1
 62
3
100
AcDbLine
 10
3.576811
 20
243.987138
 30
0.0
 11
3.075206
 21
240.822044
 31
0.0
  0
LINE
  5
28e
100
AcDbEntity
  8
Layer_1
 62
3
100
AcDbLine
 10
3.075206
 20
240.822044
 30
0.0
 11
5.943188
 21
239.607755
 31
0.0
  0
SPLINE
  5
28f
100
AcDbEntity
  8
Layer_1
 62
3
100
AcDbSpline
 70
8
 71
3
 72
8
 73
4
 74
0
 40
0
 40
0
 40
0
 40
0
 40
1
 40
1
 40
1
 40
1
 10
5.943188
 20
239.607755
 30
0.0
 10
5.943188
 20
239.607755
 30
0.0
 10
6.068862
 20
239.577980
 30
0.0
 10
6.068862
 20
239.577980
 30
0.0
  0
SPLINE
  5
290
100
AcDbEntity
  8
Layer_1
 62
3
100
AcDbSpline
 70
8
 71
3
 72
8
 73
4
 74
0
 40
0
 40
0
 40
0
 40
0
 40
1
 40
1
 40
1
 40
1
 10
6.068862
 20
239.577980
 30
0.0
 10
5.873869
 20
238.032331
 30
0.0
 10
5.739268
 20
236.479661
 30
0.0
 10
5.665368
 20
234.923515
 30
0.0
  0
LINE
  5
291
100
AcDbEntity
  8
Layer_1
 62
3
100
AcDbLine
 10
5.665368
 20
234.923515
 30
0.0
 11
5.573872
 21
234.916459
 31
0.0
  0
LINE
  5
292
100
AcDbEntity
  8
Layer_1
 62
3
100
AcDbLine
 10
5.573872
 20
234.916459
 30
0.0
 11
2.551551
 21
234.165720
 31
0.0
  0
LINE
  5
293
100
AcDbEntity
  8
Layer_1
 62
3
100
AcDbLine
 10
2.551551
 20
234.165720
 30
0.0
 11
2.551551
 21
230.960946
 31
0.0
  0
LINE
  5
294
100
AcDbEntity
  8
Layer_1
 62
3
100
AcDbLine
 10
2.551551
 20
230.960946
 30
0.0
 11
5.573872
 21
230.210206
 31
0.0
  0
SPLINE
  5
295
100
AcDbEntity
  8
Layer_1
 62
3
100
AcDbSpline
 70
8
 71
3
 72
8
 73
4
 74
0
 40
0
 40
0
 40
0
 40
0
 40
1
 40
1
 40
1
 40
1
 10
5.573872
 20
230.210206
 30
0.0
 10
5.573872
 20
230.210206
 30
0.0
 10
5.700082
 20
230.200328
 30
0.0
 10
5.700082
 20
230.200328
 30
0.0
  0
SPLINE
  5
296
100
AcDbEntity
  8
Layer_1
 62
3
100
AcDbSpline
 70
8
 71
3
 72
8
 73
4
 74
0
 40
0
 40
0
 40
0
 40
0
 40
1
 40
1
 40
1
 40
1
 10
5.700082
 20
230.200328
 30
0.0
 10
5.752268
 20
228.643561
 30
0.0
 10
5.865177
 20
227.089423
 30
0.0
 10
6.038551
 20
225.541460
 30
0.0
  0
LINE
  5
297
100
AcDbEntity
  8
Layer_1
 62
3
100
AcDbLine
 10
6.038551
 20
225.541460
 30
0.0
 11
5.943188
 21
225.518883
 31
0.0
  0
LINE
  5
298
100
AcDbEntity
  8
Layer_1
 62
3
100
AcDbLine
 10
5.943188
 20
225.518883
 30
0.0
 11
3.075206
 21
224.304565
 31
0.0
  0
LINE
  5
299
100
AcDbEntity
  8
Layer_1
 62
3
100
AcDbLine
 10
3.075206
 20
224.304565
 30
0.0
 11
3.576811
 21
221.139471
 31
0.0
  0
LINE
  5
29a
100
AcDbEntity
  8
Layer_1
 62
3
100
AcDbLine
 10
3.576811
 20
221.139471
 30
0.0
 11
6.679590
 21
220.870485
 31
0.0
  0
SPLINE
  5
29b
100
AcDbEntity
  8
Layer_1
 62
3
100
AcDbSpline
 70
8
 71
3
 72
8
 73
4
 74
0
 40
0
 40
0
 40
0
 40
0
 40
1
 40
1
 40
1
 40
1
 10
6.679590
 20
220.870485
 30
0.0
 10
6.679590
 20
220.870485
 30
0.0
 10
6.743542
 20
220.875565
 30
0.0
 10
6.743542
 20
220.875565
 30
0.0
  0
SPLINE
  5
29c
100
AcDbEntity
  8
Layer_1
 62
3
100
AcDbSpline
 70
8
 71
3
 72
8
 73
4
 74
0
 40
0
 40
0
 40
0
 40
0
 40
1
 40
1
 40
1
 40
1
 10
6.743542
 20
220.875565
 30
0.0
 10
7.063334
 20
219.348609
 30
0.0
 10
7.442676
 20
217.834733
 30
0.0
 10
7.880700
 20
216.337404
 30
0.0
  0
LINE
  5
29d
100
AcDbEntity
  8
Layer_1
 62
3
100
AcDbLine
 10
7.880700
 20
216.337404
 30
0.0
 11
7.778169
 21
216.294957
 31
0.0
  0
LINE
  5
29e
100
AcDbEntity
  8
Layer_1
 62
3
100
AcDbLine
 10
7.778169
 20
216.294957
 30
0.0
 11
5.135637
 21
214.646836
 31
0.0
  0
LINE
  5
29f
100
AcDbEntity
  8
Layer_1
 62
3
100
AcDbLine
 10
5.135637
 20
214.646836
 30
0.0
 11
6.125616
 21
211.599146
 31
0.0
  0
LINE
  5
2a0
100
AcDbEntity
  8
Layer_1
 62
3
100
AcDbLine
 10
6.125616
 20
211.599146
 30
0.0
 11
9.232290
 21
211.819082
 31
0.0
  0
SPLINE
  5
2a1
100
AcDbEntity
  8
Layer_1
 62
3
100
AcDbSpline
 70
8
 71
3
 72
8
 73
4
 74
0
 40
0
 40
0
 40
0
 40
0
 40
1
 40
1
 40
1
 40
1
 10
9.232290
 20
211.819082
 30
0.0
 10
9.232290
 20
211.819082
 30
0.0
 10
9.357400
 20
211.849421
 30
0.0
 10
9.357400
 20
211.849421
 30
0.0
  0
SPLINE
  5
2a2
100
AcDbEntity
  8
Layer_1
 62
3
100
AcDbSpline
 70
8
 71
3
 72
8
 73
4
 74
0
 40
0
 40
0
 40
0
 40
0
 40
1
 40
1
 40
1
 40
1
 10
9.357400
 20
211.849421
 30
0.0
 10
9.893634
 20
210.388189
 30
0.0
 10
10.486638
 20
208.948421
 30
0.0
 10
11.135061
 20
207.533397
 30
0.0
  0
LINE
  5
2a3
100
AcDbEntity
  8
Layer_1
 62
3
100
AcDbLine
 10
11.135061
 20
207.533397
 30
0.0
 11
11.033094
 21
207.471110
 31
0.0
  0
LINE
  5
2a4
100
AcDbEntity
  8
Layer_1
 62
3
100
AcDbLine
 10
11.033094
 20
207.471110
 30
0.0
 11
8.681054
 21
205.429966
 31
0.0
  0
LINE
  5
2a5
100
AcDbEntity
  8
Layer_1
 62
3
100
AcDbLine
 10
8.681054
 20
205.429966
 30
0.0
 11
10.135712
 21
202.574668
 31
0.0
  0
LINE
  5
2a6
100
AcDbEntity
  8
Layer_1
 62
3
100
AcDbLine
 10
10.135712
 20
202.574668
 30
0.0
 11
13.169601
 21
203.278022
 31
0.0
  0
SPLINE
  5
2a7
100
AcDbEntity
  8
Layer_1
 62
3
100
AcDbSpline
 70
8
 71
3
 72
8
 73
4
 74
0
 40
0
 40
0
 40
0
 40
0
 40
1
 40
1
 40
1
 40
1
 10
13.169601
 20
203.278022
 30
0.0
 10
13.169601
 20
203.278022
 30
0.0
 10
13.246224
 20
203.309998
 30
0.0
 10
13.246224
 20
203.309998
 30
0.0
  0
SPLINE
  5
2a8
100
AcDbEntity
  8
Layer_1
 62
3
100
AcDbSpline
 70
8
 71
3
 72
8
 73
4
 74
0
 40
0
 40
0
 40
0
 40
0
 40
1
 40
1
 40
1
 40
1
 10
13.246224
 20
203.309998
 30
0.0
 10
14.009358
 20
201.948722
 30
0.0
 10
14.825415
 20
200.617800
 30
0.0
 10
15.692526
 20
199.320278
 30
0.0
  0
LINE
  5
2a9
100
AcDbEntity
  8
Layer_1
 62
3
100
AcDbLine
 10
15.692526
 20
199.320278
 30
0.0
 11
15.628575
 21
199.265725
 31
0.0
  0
LINE
  5
2aa
100
AcDbEntity
  8
Layer_1
 62
3
100
AcDbLine
 10
15.628575
 20
199.265725
 30
0.0
 11
13.624910
 21
196.881709
 31
0.0
  0
LINE
  5
2ab
100
AcDbEntity
  8
Layer_1
 62
3
100
AcDbLine
 10
13.624910
 20
196.881709
 30
0.0
 11
15.508405
 21
194.289357
 31
0.0
  0
LINE
  5
2ac
100
AcDbEntity
  8
Layer_1
 62
3
100
AcDbLine
 10
15.508405
 20
194.289357
 30
0.0
 11
18.395143
 21
195.458462
 31
0.0
  0
SPLINE
  5
2ad
100
AcDbEntity
  8
Layer_1
 62
3
100
AcDbSpline
 70
8
 71
3
 72
8
 73
4
 74
0
 40
0
 40
0
 40
0
 40
0
 40
1
 40
1
 40
1
 40
1
 10
18.395143
 20
195.458462
 30
0.0
 10
18.395143
 20
195.458462
 30
0.0
 10
18.496545
 20
195.520749
 30
0.0
 10
18.496545
 20
195.520749
 30
0.0
  0
SPLINE
  5
2ae
100
AcDbEntity
  8
Layer_1
 62
3
100
AcDbSpline
 70
8
 71
3
 72
8
 73
4
 74
0
 40
0
 40
0
 40
0
 40
0
 40
1
 40
1
 40
1
 40
1
 10
18.496545
 20
195.520749
 30
0.0
 10
19.462887
 20
194.300649
 30
0.0
 10
20.476430
 20
193.118689
 30
0.0
 10
21.534865
 20
191.977562
 30
0.0
  0
LINE
  5
2af
100
AcDbEntity
  8
Layer_1
 62
3
100
AcDbLine
 10
21.534865
 20
191.977562
 30
0.0
 11
21.451073
 21
191.879998
 31
0.0
  0
LINE
  5
2b0
100
AcDbEntity
  8
Layer_1
 62
3
100
AcDbLine
 10
21.451073
 20
191.879998
 30
0.0
 11
19.844834
 21
189.211558
 31
0.0
  0
LINE
  5
2b1
100
AcDbEntity
  8
Layer_1
 62
3
100
AcDbLine
 10
19.844834
 20
189.211558
 30
0.0
 11
22.110881
 21
186.945511
 31
0.0
  0
LINE
  5
2b2
100
AcDbEntity
  8
Layer_1
 62
3
100
AcDbLine
 10
22.110881
 20
186.945511
 30
0.0
 11
24.778756
 21
188.552287
 31
0.0
  0
SPLINE
  5
2b3
100
AcDbEntity
  8
Layer_1
 62
3
100
AcDbSpline
 70
8
 71
3
 72
8
 73
4
 74
0
 40
0
 40
0
 40
0
 40
0
 40
1
 40
1
 40
1
 40
1
 10
24.778756
 20
188.552287
 30
0.0
 10
24.778756
 20
188.552287
 30
0.0
 10
24.862547
 20
188.623943
 30
0.0
 10
24.862547
 20
188.623943
 30
0.0
  0
SPLINE
  5
2b4
100
AcDbEntity
  8
Layer_1
 62
3
100
AcDbSpline
 70
8
 71
3
 72
8
 73
4
 74
0
 40
0
 40
0
 40
0
 40
0
 40
1
 40
1
 40
1
 40
1
 10
24.862547
 20
188.623943
 30
0.0
 10
25.997961
 20
187.553479
 30
0.0
 10
27.174784
 20
186.527806
 30
0.0
 10
28.390322
 20
185.549273
 30
0.0
  0
LINE
  5
2b5
100
AcDbEntity
  8
Layer_1
 62
3
100
AcDbLine
 10
28.390322
 20
185.549273
 30
0.0
 11
28.357246
 21
185.495820
 31
0.0
  0
LINE
  5
2b6
100
AcDbEntity
  8
Layer_1
 62
3
100
AcDbLine
 10
28.357246
 20
185.495820
 30
0.0
 11
27.188112
 21
182.609082
 31
0.0
  0
LINE
  5
2b7
100
AcDbEntity
  8
Layer_1
 62
3
100
AcDbLine
 10
27.188112
 20
182.609082
 30
0.0
 11
29.780492
 21
180.725559
 31
0.0
  0
LINE
  5
2b8
100
AcDbEntity
  8
Layer_1
 62
3
100
AcDbLine
 10
29.780492
 20
180.725559
 30
0.0
 11
32.164483
 21
182.729817
 31
0.0
  0
SPLINE
  5
2b9
100
AcDbEntity
  8
Layer_1
 62
3
100
AcDbSpline
 70
8
 71
3
 72
8
 73
4
 74
0
 40
0
 40
0
 40
0
 40
0
 40
1
 40
1
 40
1
 40
1
 10
32.164483
 20
182.729817
 30
0.0
 10
32.164483
 20
182.729817
 30
0.0
 10
32.228434
 20
182.804775
 30
0.0
 10
32.228434
 20
182.804775
 30
0.0
  0
SPLINE
  5
2ba
100
AcDbEntity
  8
Layer_1
 62
3
100
AcDbSpline
 70
8
 71
3
 72
8
 73
4
 74
0
 40
0
 40
0
 40
0
 40
0
 40
1
 40
1
 40
1
 40
1
 10
32.228434
 20
182.804775
 30
0.0
 10
33.528945
 20
181.947200
 30
0.0
 10
34.862424
 20
181.140701
 30
0.0
 10
36.225830
 20
180.387118
 30
0.0
  0
LINE
  5
2bb
100
AcDbEntity
  8
Layer_1
 62
3
100
AcDbLine
 10
36.225830
 20
180.387118
 30
0.0
 11
36.177344
 21
180.270815
 31
0.0
  0
LINE
  5
2bc
100
AcDbEntity
  8
Layer_1
 62
3
100
AcDbLine
 10
36.177344
 20
180.270815
 30
0.0
 11
35.473990
 21
177.236931
 31
0.0
  0
LINE
  5
2bd
100
AcDbEntity
  8
Layer_1
 62
3
100
AcDbLine
 10
35.473990
 20
177.236931
 30
0.0
 11
38.329289
 21
175.781737
 31
0.0
  0
LINE
  5
2be
100
AcDbEntity
  8
Layer_1
 62
3
100
AcDbLine
 10
38.329289
 20
175.781737
 30
0.0
 11
40.370433
 21
178.134313
 31
0.0
  0
SPLINE
  5
2bf
100
AcDbEntity
  8
Layer_1
 62
3
100
AcDbSpline
 70
8
 71
3
 72
8
 73
4
 74
0
 40
0
 40
0
 40
0
 40
0
 40
1
 40
1
 40
1
 40
1
 10
40.370433
 20
178.134313
 30
0.0
 10
40.370433
 20
178.134313
 30
0.0
 10
40.436021
 20
178.241247
 30
0.0
 10
40.436021
 20
178.241247
 30
0.0
  0
SPLINE
  5
2c0
100
AcDbEntity
  8
Layer_1
 62
3
100
AcDbSpline
 70
8
 71
3
 72
8
 73
4
 74
0
 40
0
 40
0
 40
0
 40
0
 40
1
 40
1
 40
1
 40
1
 10
40.436021
 20
178.241247
 30
0.0
 10
41.846876
 20
177.580801
 30
0.0
 10
43.282965
 20
176.975661
 30
0.0
 10
44.741011
 20
176.427208
 30
0.0
  0
LINE
  5
2c1
100
AcDbEntity
  8
Layer_1
 62
3
100
AcDbLine
 10
44.741011
 20
176.427208
 30
0.0
 11
44.718433
 21
176.333510
 31
0.0
  0
LINE
  5
2c2
100
AcDbEntity
  8
Layer_1
 62
3
100
AcDbLine
 10
44.718433
 20
176.333510
 30
0.0
 11
44.497961
 21
173.226864
 31
0.0
  0
LINE
  5
2c3
100
AcDbEntity
  8
Layer_1
 62
3
100
AcDbLine
 10
44.497961
 20
173.226864
 30
0.0
 11
47.546187
 21
172.236320
 31
0.0
  0
LINE
  5
2c4
100
AcDbEntity
  8
Layer_1
 62
3
100
AcDbLine
 10
47.546187
 20
172.236320
 30
0.0
 11
49.193772
 21
174.878852
 31
0.0
  0
SPLINE
  5
2c5
100
AcDbEntity
  8
Layer_1
 62
3
100
AcDbSpline
 70
8
 71
3
 72
8
 73
4
 74
0
 40
0
 40
0
 40
0
 40
0
 40
1
 40
1
 40
1
 40
1
 10
49.193772
 20
174.878852
 30
0.0
 10
49.193772
 20
174.878852
 30
0.0
 10
49.218607
 20
174.939501
 30
0.0
 10
49.218607
 20
174.939501
 30
0.0
  0
SPLINE
  5
2c6
100
AcDbEntity
  8
Layer_1
 62
3
100
AcDbSpline
 70
8
 71
3
 72
8
 73
4
 74
0
 40
0
 40
0
 40
0
 40
0
 40
1
 40
1
 40
1
 40
1
 10
49.218607
 20
174.939501
 30
0.0
 10
50.724443
 20
174.530936
 30
0.0
 10
52.245672
 20
174.181382
 30
0.0
 10
53.778810
 20
173.891638
 30
0.0
  0
LINE
  5
2c7
100
AcDbEntity
  8
Layer_1
 62
3
100
AcDbLine
 10
53.778810
 20
173.891638
 30
0.0
 11
53.770062
 21
173.780274
 31
0.0
  0
LINE
  5
2c8
100
AcDbEntity
  8
Layer_1
 62
3
100
AcDbLine
 10
53.770062
 20
173.780274
 30
0.0
 11
54.038511
 21
170.677494
 31
0.0
  0
LINE
  5
2c9
100
AcDbEntity
  8
Layer_1
 62
3
100
AcDbLine
 10
54.038511
 20
170.677494
 30
0.0
 11
57.203577
 21
170.176437
 31
0.0
  0
LINE
  5
2ca
100
AcDbEntity
  8
Layer_1
 62
3
100
AcDbLine
 10
57.203577
 20
170.176437
 30
0.0
 11
58.417923
 21
173.044407
 31
0.0
  0
SPLINE
  5
2cb
100
AcDbEntity
  8
Layer_1
 62
3
100
AcDbSpline
 70
8
 71
3
 72
8
 73
4
 74
0
 40
0
 40
0
 40
0
 40
0
 40
1
 40
1
 40
1
 40
1
 10
58.417923
 20
173.044407
 30
0.0
 10
58.417923
 20
173.044407
 30
0.0
 10
58.447669
 20
173.169545
 30
0.0
 10
58.447669
 20
173.169545
 30
0.0
  0
SPLINE
  5
2cc
100
AcDbEntity
  8
Layer_1
 62
3
100
AcDbSpline
 70
8
 71
3
 72
8
 73
4
 74
0
 40
0
 40
0
 40
0
 40
0
 40
1
 40
1
 40
1
 40
1
 10
58.447669
 20
173.169545
 30
0.0
 10
59.993505
 20
172.974537
 30
0.0
 10
61.546364
 20
172.839937
 30
0.0
 10
63.102699
 20
172.766052
 30
0.0
  0
LINE
  5
2cd
100
AcDbEntity
  8
Layer_1
 62
3
100
AcDbLine
 10
63.102699
 20
172.766052
 30
0.0
 11
63.109754
 21
172.675091
 31
0.0
  0
LINE
  5
2ce
100
AcDbEntity
  8
Layer_1
 62
3
100
AcDbLine
 10
63.109754
 20
172.675091
 30
0.0
 11
63.860494
 21
169.652774
 31
0.0
  0
LINE
  5
2cf
100
AcDbEntity
  8
Layer_1
 62
3
100
AcDbLine
 10
63.860494
 20
169.652774
 30
0.0
 11
67.064704
 21
169.652774
 31
0.0
  0
LINE
  5
2d0
100
AcDbEntity
  8
Layer_1
 62
3
100
AcDbLine
 10
67.064704
 20
169.652774
 30
0.0
 11
67.815471
 21
172.675091
 31
0.0
  0
LINE
  5
2d1
100
AcDbEntity
  8
Layer_1
 62
3
100
AcDbLine
 10
67.815471
 20
172.675091
 30
0.0
 11
67.824785
 21
172.800765
 31
0.0
  0
SPLINE
  5
2d2
100
AcDbEntity
  8
Layer_1
 62
3
100
AcDbSpline
 70
8
 71
3
 72
8
 73
4
 74
0
 40
0
 40
0
 40
0
 40
0
 40
1
 40
1
 40
1
 40
1
 10
67.824785
 20
172.800765
 30
0.0
 10
69.381919
 20
172.852923
 30
0.0
 10
70.936425
 20
172.965832
 30
0.0
 10
72.484753
 20
173.139234
 30
0.0
  0
LINE
  5
2d3
100
AcDbEntity
  8
Layer_1
 62
3
100
AcDbLine
 10
72.484753
 20
173.139234
 30
0.0
 11
72.507331
 21
173.044407
 31
0.0
  0
LINE
  5
2d4
100
AcDbEntity
  8
Layer_1
 62
3
100
AcDbLine
 10
72.507331
 20
173.044407
 30
0.0
 11
73.721649
 21
170.176437
 31
0.0
  0
LINE
  5
2d5
100
AcDbEntity
  8
Layer_1
 62
3
100
AcDbLine
 10
73.721649
 20
170.176437
 30
0.0
 11
76.886743
 21
170.677494
 31
0.0
  0
LINE
  5
2d6
100
AcDbEntity
  8
Layer_1
 62
3
100
AcDbLine
 10
76.886743
 20
170.677494
 30
0.0
 11
77.155164
 21
173.780274
 31
0.0
  0
LINE
  5
2d7
100
AcDbEntity
  8
Layer_1
 62
3
100
AcDbLine
 10
77.155164
 20
173.780274
 30
0.0
 11
77.150366
 21
173.844225
 31
0.0
  0
SPLINE
  5
2d8
100
AcDbEntity
  8
Layer_1
 62
3
100
AcDbSpline
 70
8
 71
3
 72
8
 73
4
 74
0
 40
0
 40
0
 40
0
 40
0
 40
1
 40
1
 40
1
 40
1
 10
77.150366
 20
173.844225
 30
0.0
 10
78.677503
 20
174.164003
 30
0.0
 10
80.191558
 20
174.543345
 30
0.0
 10
81.689064
 20
174.981383
 30
0.0
  0
LINE
  5
2d9
100
AcDbEntity
  8
Layer_1
 62
3
100
AcDbLine
 10
81.689064
 20
174.981383
 30
0.0
 11
81.731510
 21
174.878852
 31
0.0
  0
LINE
  5
2da
100
AcDbEntity
  8
Layer_1
 62
3
100
AcDbLine
 10
81.731510
 20
174.878852
 30
0.0
 11
83.379632
 21
172.236320
 31
0.0
  0
LINE
  5
2db
100
AcDbEntity
  8
Layer_1
 62
3
100
AcDbLine
 10
83.379632
 20
172.236320
 30
0.0
 11
86.427321
 21
173.226864
 31
0.0
  0
LINE
  5
2dc
100
AcDbEntity
  8
Layer_1
 62
3
100
AcDbLine
 10
86.427321
 20
173.226864
 30
0.0
 11
86.206821
 21
176.333510
 31
0.0
  0
LINE
  5
2dd
100
AcDbEntity
  8
Layer_1
 62
3
100
AcDbLine
 10
86.206821
 20
176.333510
 30
0.0
 11
86.176510
 21
176.458083
 31
0.0
  0
SPLINE
  5
2de
100
AcDbEntity
  8
Layer_1
 62
3
100
AcDbSpline
 70
8
 71
3
 72
8
 73
4
 74
0
 40
0
 40
0
 40
0
 40
0
 40
1
 40
1
 40
1
 40
1
 10
86.176510
 20
176.458083
 30
0.0
 10
87.637923
 20
176.994304
 30
0.0
 10
89.077871
 20
177.587308
 30
0.0
 10
90.493071
 20
178.235744
 30
0.0
  0
LINE
  5
2df
100
AcDbEntity
  8
Layer_1
 62
3
100
AcDbLine
 10
90.493071
 20
178.235744
 30
0.0
 11
90.554821
 21
178.134313
 31
0.0
  0
LINE
  5
2e0
100
AcDbEntity
  8
Layer_1
 62
3
100
AcDbLine
 10
90.554821
 20
178.134313
 30
0.0
 11
92.595965
 21
175.781737
 31
0.0
  0
LINE
  5
2e1
100
AcDbEntity
  8
Layer_1
 62
3
100
AcDbLine
 10
92.595965
 20
175.781737
 30
0.0
 11
95.451264
 21
177.236931
 31
0.0
  0
LINE
  5
2e2
100
AcDbEntity
  8
Layer_1
 62
3
100
AcDbLine
 10
95.451264
 20
177.236931
 30
0.0
 11
94.747910
 21
180.270815
 31
0.0
  0
LINE
  5
2e3
100
AcDbEntity
  8
Layer_1
 62
3
100
AcDbLine
 10
94.747910
 20
180.270815
 30
0.0
 11
94.715934
 21
180.347438
 31
0.0
  0
SPLINE
  5
2e4
100
AcDbEntity
  8
Layer_1
 62
3
100
AcDbSpline
 70
8
 71
3
 72
8
 73
4
 74
0
 40
0
 40
0
 40
0
 40
0
 40
1
 40
1
 40
1
 40
1
 10
94.715934
 20
180.347438
 30
0.0
 10
96.077391
 20
181.110550
 30
0.0
 10
97.408492
 20
181.926598
 30
0.0
 10
98.706189
 20
182.793712
 30
0.0
  0
LINE
  5
2e5
100
AcDbEntity
  8
Layer_1
 62
3
100
AcDbLine
 10
98.706189
 20
182.793712
 30
0.0
 11
98.760743
 21
182.729789
 31
0.0
  0
LINE
  5
2e6
100
AcDbEntity
  8
Layer_1
 62
3
100
AcDbLine
 10
98.760743
 20
182.729789
 30
0.0
 11
101.144759
 21
180.725559
 31
0.0
  0
LINE
  5
2e7
100
AcDbEntity
  8
Layer_1
 62
3
100
AcDbLine
 10
101.144759
 20
180.725559
 30
0.0
 11
103.737111
 21
182.609054
 31
0.0
  0
LINE
  5
2e8
100
AcDbEntity
  8
Layer_1
 62
3
100
AcDbLine
 10
103.737111
 20
182.609054
 30
0.0
 11
102.568005
 21
185.495792
 31
0.0
  0
SPLINE
  5
2e9
100
AcDbEntity
  8
Layer_1
 62
3
100
AcDbSpline
 70
8
 71
3
 72
8
 73
4
 74
0
 40
0
 40
0
 40
0
 40
0
 40
1
 40
1
 40
1
 40
1
 10
102.568005
 20
185.495792
 30
0.0
 10
102.568005
 20
185.495792
 30
0.0
 10
102.505154
 20
185.597759
 30
0.0
 10
102.505154
 20
185.597759
 30
0.0
  0
SPLINE
  5
2ea
100
AcDbEntity
  8
Layer_1
 62
3
100
AcDbSpline
 70
8
 71
3
 72
8
 73
4
 74
0
 40
0
 40
0
 40
0
 40
0
 40
1
 40
1
 40
1
 40
1
 10
102.505154
 20
185.597759
 30
0.0
 10
103.725445
 20
186.564080
 30
0.0
 10
104.907593
 20
187.577613
 30
0.0
 10
106.048906
 20
188.636051
 30
0.0
  0
LINE
  5
2eb
100
AcDbEntity
  8
Layer_1
 62
3
100
AcDbLine
 10
106.048906
 20
188.636051
 30
0.0
 11
106.146470
 21
188.552259
 31
0.0
  0
LINE
  5
2ec
100
AcDbEntity
  8
Layer_1
 62
3
100
AcDbLine
 10
106.146470
 20
188.552259
 30
0.0
 11
108.814373
 21
186.945483
 31
0.0
  0
LINE
  5
2ed
100
AcDbEntity
  8
Layer_1
 62
3
100
AcDbLine
 10
108.814373
 20
186.945483
 30
0.0
 11
111.080420
 21
189.211530
 31
0.0
  0
LINE
  5
2ee
100
AcDbEntity
  8
Layer_1
 62
3
100
AcDbLine
 10
111.080420
 20
189.211530
 30
0.0
 11
109.474181
 21
191.879969
 31
0.0
  0
LINE
  5
2ef
100
AcDbEntity
  8
Layer_1
 62
3
100
AcDbLine
 10
109.474181
 20
191.879969
 30
0.0
 11
109.402524
 21
191.963733
 31
0.0
  0
SPLINE
  5
2f0
100
AcDbEntity
  8
Layer_1
 62
3
100
AcDbSpline
 70
8
 71
3
 72
8
 73
4
 74
0
 40
0
 40
0
 40
0
 40
0
 40
1
 40
1
 40
1
 40
1
 10
109.402524
 20
191.963733
 30
0.0
 10
110.472989
 20
193.099148
 30
0.0
 10
111.498662
 20
194.275972
 30
0.0
 10
112.477194
 20
195.491511
 30
0.0
  0
LINE
  5
2f1
100
AcDbEntity
  8
Layer_1
 62
3
100
AcDbLine
 10
112.477194
 20
195.491511
 30
0.0
 11
112.530647
 21
195.458434
 31
0.0
  0
LINE
  5
2f2
100
AcDbEntity
  8
Layer_1
 62
3
100
AcDbLine
 10
112.530647
 20
195.458434
 30
0.0
 11
115.416821
 21
194.289329
 31
0.0
  0
LINE
  5
2f3
100
AcDbEntity
  8
Layer_1
 62
3
100
AcDbLine
 10
115.416821
 20
194.289329
 30
0.0
 11
117.300316
 21
196.881681
 31
0.0
  0
LINE
  5
2f4
100
AcDbEntity
  8
Layer_1
 62
3
100
AcDbLine
 10
117.300316
 20
196.881681
 30
0.0
 11
115.296651
 21
199.265697
 31
0.0
  0
SPLINE
  5
2f5
100
AcDbEntity
  8
Layer_1
 62
3
100
AcDbSpline
 70
8
 71
3
 72
8
 73
4
 74
0
 40
0
 40
0
 40
0
 40
0
 40
1
 40
1
 40
1
 40
1
 10
115.296651
 20
199.265697
 30
0.0
 10
115.296651
 20
199.265697
 30
0.0
 10
115.221693
 20
199.329620
 30
0.0
 10
115.221693
 20
199.329620
 30
0.0
  0
SPLINE
  5
2f6
100
AcDbEntity
  8
Layer_1
 62
3
100
AcDbSpline
 70
8
 71
3
 72
8
 73
4
 74
0
 40
0
 40
0
 40
0
 40
0
 40
1
 40
1
 40
1
 40
1
 10
115.221693
 20
199.329620
 30
0.0
 10
116.079055
 20
200.629965
 30
0.0
 10
116.885356
 20
201.963265
 30
0.0
 10
117.638757
 20
203.326479
 30
0.0
  0
LINE
  5
2f7
100
AcDbEntity
  8
Layer_1
 62
3
100
AcDbLine
 10
117.638757
 20
203.326479
 30
0.0
 11
117.755625
 21
203.277994
 31
0.0
  0
LINE
  5
2f8
100
AcDbEntity
  8
Layer_1
 62
3
100
AcDbLine
 10
117.755625
 20
203.277994
 30
0.0
 11
120.789514
 21
202.574639
 31
0.0
  0
LINE
  5
2f9
100
AcDbEntity
  8
Layer_1
 62
3
100
AcDbLine
 10
120.789514
 20
202.574639
 30
0.0
 11
122.244172
 21
205.429938
 31
0.0
  0
LINE
  5
2fa
100
AcDbEntity
  8
Layer_1
 62
3
100
AcDbLine
 10
122.244172
 20
205.429938
 30
0.0
 11
119.892132
 21
207.471082
 31
0.0
  0
SPLINE
  5
2fb
100
AcDbEntity
  8
Layer_1
 62
3
100
AcDbSpline
 70
8
 71
3
 72
8
 73
4
 74
0
 40
0
 40
0
 40
0
 40
0
 40
1
 40
1
 40
1
 40
1
 10
119.892132
 20
207.471082
 30
0.0
 10
119.892132
 20
207.471082
 30
0.0
 10
119.784662
 20
207.536670
 30
0.0
 10
119.784662
 20
207.536670
 30
0.0
  0
SPLINE
  5
2fc
100
AcDbEntity
  8
Layer_1
 62
3
100
AcDbSpline
 70
8
 71
3
 72
8
 73
4
 74
0
 40
0
 40
0
 40
0
 40
0
 40
1
 40
1
 40
1
 40
1
 10
119.784662
 20
207.536670
 30
0.0
 10
120.445108
 20
208.947525
 30
0.0
 10
121.050248
 20
210.383614
 30
0.0
 10
121.598701
 20
211.841660
 30
0.0
  0
LINE
  5
2fd
100
AcDbEntity
  8
Layer_1
 62
3
100
AcDbLine
 10
121.598701
 20
211.841660
 30
0.0
 11
121.692964
 21
211.819082
 31
0.0
  0
LINE
  5
2fe
100
AcDbEntity
  8
Layer_1
 62
3
100
AcDbLine
 10
121.692964
 20
211.819082
 30
0.0
 11
124.799609
 21
211.599146
 31
0.0
  0
LINE
  5
2ff
100
AcDbEntity
  8
Layer_1
 62
3
100
AcDbLine
 10
124.799609
 20
211.599146
 30
0.0
 11
125.789588
 21
214.646836
 31
0.0
  0
LINE
  5
300
100
AcDbEntity
  8
Layer_1
 62
3
100
AcDbLine
 10
125.789588
 20
214.646836
 30
0.0
 11
123.147057
 21
216.294957
 31
0.0
  0
LINE
  5
301
100
AcDbEntity
  8
Layer_1
 62
3
100
AcDbLine
 10
123.147057
 20
216.294957
 30
0.0
 11
123.086436
 21
216.319793
 31
0.0
  0
SPLINE
  5
302
100
AcDbEntity
  8
Layer_1
 62
3
100
AcDbSpline
 70
8
 71
3
 72
8
 73
4
 74
0
 40
0
 40
0
 40
0
 40
0
 40
1
 40
1
 40
1
 40
1
 10
123.086436
 20
216.319793
 30
0.0
 10
123.494987
 20
217.825451
 30
0.0
 10
123.844542
 20
219.346501
 30
0.0
 10
124.134299
 20
220.879460
 30
0.0
  0
LINE
  5
303
100
AcDbEntity
  8
Layer_1
 62
3
100
AcDbLine
 10
124.134299
 20
220.879460
 30
0.0
 11
124.245635
 21
220.870711
 31
0.0
  0
LINE
  5
304
100
AcDbEntity
  8
Layer_1
 62
3
100
AcDbLine
 10
124.245635
 20
220.870711
 30
0.0
 11
127.348415
 21
221.139697
 31
0.0
  0
LINE
  5
305
100
AcDbEntity
  8
Layer_1
 62
3
100
AcDbLine
 10
127.348415
 20
221.139697
 30
0.0
 11
127.850036
 21
224.304791
 31
0.0
  0
LINE
  5
306
100
AcDbEntity
  8
Layer_1
 62
3
100
AcDbLine
 10
127.850036
 20
224.304791
 30
0.0
 11
124.982066
 21
225.519108
 31
0.0
  0
LINE
  5
307
100
AcDbEntity
  8
Layer_1
 62
3
100
AcDbLine
 10
124.982066
 20
225.519108
 30
0.0
 11
124.856392
 21
225.548883
 31
0.0
  0
SPLINE
  5
308
100
AcDbEntity
  8
Layer_1
 62
3
100
AcDbSpline
 70
8
 71
3
 72
8
 73
4
 74
0
 40
0
 40
0
 40
0
 40
0
 40
1
 40
1
 40
1
 40
1
 10
124.856392
 20
225.548883
 30
0.0
 10
125.051385
 20
227.094532
 30
0.0
 10
125.185986
 20
228.647202
 30
0.0
 10
125.259886
 20
230.203348
 30
0.0
  0
LINE
  5
309
100
AcDbEntity
  8
Layer_1
 62
3
100
AcDbLine
 10
125.259886
 20
230.203348
 30
0.0
 11
125.351382
 21
230.210404
 31
0.0
  0
LINE
  5
30a
100
AcDbEntity
  8
Layer_1
 62
3
100
AcDbLine
 10
125.351382
 20
230.210404
 30
0.0
 11
128.373700
 21
230.961143
 31
0.0
  0
LINE
  5
30b
100
AcDbEntity
  8
Layer_1
 62
3
100
AcDbLine
 10
128.373700
 20
230.961143
 30
0.0
 11
128.373700
 21
234.165918
 31
0.0
  0
LINE
  5
30c
100
AcDbEntity
  8
Layer_1
 62
3
100
AcDbLine
 10
128.373700
 20
234.165918
 30
0.0
 11
125.351382
 21
234.916657
 31
0.0
  0
SPLINE
  5
30d
100
AcDbEntity
  8
Layer_1
 62
3
100
AcDbSpline
 70
8
 71
3
 72
8
 73
4
 74
0
 40
0
 40
0
 40
0
 40
0
 40
1
 40
1
 40
1
 40
1
 10
125.351382
 20
234.916657
 30
0.0
 10
125.351382
 20
234.916657
 30
0.0
 10
125.225144
 20
234.926535
 30
0.0
 10
125.225144
 20
234.926535
 30
0.0
  0
SPLINE
  5
30e
100
AcDbEntity
  8
Layer_1
 62
3
100
AcDbSpline
 70
8
 71
3
 72
8
 73
4
 74
0
 40
0
 40
0
 40
0
 40
0
 40
1
 40
1
 40
1
 40
1
 10
125.225144
 20
234.926535
 30
0.0
 10
125.172967
 20
236.483301
 30
0.0
 10
125.060067
 20
238.037439
 30
0.0
 10
124.886703
 20
239.585403
 30
0.0
  0
LINE
  5
30f
100
AcDbEntity
  8
Layer_1
 62
3
100
AcDbLine
 10
124.886703
 20
239.585403
 30
0.0
 11
124.982066
 21
239.607980
 31
0.0
  0
LINE
  5
310
100
AcDbEntity
  8
Layer_1
 62
3
100
AcDbLine
 10
124.982066
 20
239.607980
 30
0.0
 11
127.850036
 21
240.822298
 31
0.0
  0
LINE
  5
311
100
AcDbEntity
  8
Layer_1
 62
3
100
AcDbLine
 10
127.850036
 20
240.822298
 30
0.0
 11
127.348415
 21
243.987392
 31
0.0
  0
LINE
  5
312
100
AcDbEntity
  8
Layer_1
 62
3
100
AcDbLine
 10
127.348415
 20
243.987392
 30
0.0
 11
124.245635
 21
244.256378
 31
0.0
  0
SPLINE
  5
313
100
AcDbEntity
  8
Layer_1
 62
3
100
AcDbSpline
 70
8
 71
3
 72
8
 73
4
 74
0
 40
0
 40
0
 40
0
 40
0
 40
1
 40
1
 40
1
 40
1
 10
124.245635
 20
244.256378
 30
0.0
 10
124.245635
 20
244.256378
 30
0.0
 10
124.181684
 20
244.251298
 30
0.0
 10
124.181684
 20
244.251298
 30
0.0
  0
SPLINE
  5
314
100
AcDbEntity
  8
Layer_1
 62
3
100
AcDbSpline
 70
8
 71
3
 72
8
 73
4
 74
0
 40
0
 40
0
 40
0
 40
0
 40
1
 40
1
 40
1
 40
1
 10
124.181684
 20
244.251298
 30
0.0
 10
123.861892
 20
245.778254
 30
0.0
 10
123.482550
 20
247.292130
 30
0.0
 10
123.044526
 20
248.789460
 30
0.0
  0
LINE
  5
315
100
AcDbEntity
  8
Layer_1
 62
3
100
AcDbLine
 10
123.044526
 20
248.789460
 30
0.0
 11
123.147057
 21
248.831906
 31
0.0
  0
LINE
  5
316
100
AcDbEntity
  8
Layer_1
 62
3
100
AcDbLine
 10
123.147057
 20
248.831906
 30
0.0
 11
125.789588
 21
250.480027
 31
0.0
  0
LINE
  5
317
100
AcDbEntity
  8
Layer_1
 62
3
100
AcDbLine
 10
125.789588
 20
250.480027
 30
0.0
 11
124.799609
 21
253.527717
 31
0.0
  0
LINE
  5
318
100
AcDbEntity
  8
Layer_1
 62
3
100
AcDbLine
 10
124.799609
 20
253.527717
 30
0.0
 11
121.692964
 21
253.307781
 31
0.0
  0
SPLINE
  5
319
100
AcDbEntity
  8
Layer_1
 62
3
100
AcDbSpline
 70
8
 71
3
 72
8
 73
4
 74
0
 40
0
 40
0
 40
0
 40
0
 40
1
 40
1
 40
1
 40
1
 10
121.692964
 20
253.307781
 30
0.0
 10
121.692964
 20
253.307781
 30
0.0
 10
121.567826
 20
253.277442
 30
0.0
 10
121.567826
 20
253.277442
 30
0.0
  0
SPLINE
  5
31a
100
AcDbEntity
  8
Layer_1
 62
3
100
AcDbSpline
 70
8
 71
3
 72
8
 73
4
 74
0
 40
0
 40
0
 40
0
 40
0
 40
1
 40
1
 40
1
 40
1
 10
121.567826
 20
253.277442
 30
0.0
 10
121.031592
 20
254.738674
 30
0.0
 10
120.438588
 20
256.178442
 30
0.0
 10
119.790165
 20
257.593466
 30
0.0
  0
LINE
  5
31b
100
AcDbEntity
  8
Layer_1
 62
3
100
AcDbLine
 10
119.790165
 20
257.593466
 30
0.0
 11
119.892132
 21
257.655753
 31
0.0
  0
LINE
  5
31c
100
AcDbEntity
  8
Layer_1
 62
3
100
AcDbLine
 10
119.892132
 20
257.655753
 30
0.0
 11
122.244172
 21
259.696897
 31
0.0
  0
LINE
  5
31d
100
AcDbEntity
  8
Layer_1
 62
3
100
AcDbLine
 10
122.244172
 20
259.696897
 30
0.0
 11
120.789514
 21
262.552196
 31
0.0
  0
LINE
  5
31e
100
AcDbEntity
  8
Layer_1
 62
3
100
AcDbLine
 10
120.789514
 20
262.552196
 30
0.0
 11
117.755625
 21
261.848841
 31
0.0
  0
SPLINE
  5
31f
100
AcDbEntity
  8
Layer_1
 62
3
100
AcDbSpline
 70
8
 71
3
 72
8
 73
4
 74
0
 40
0
 40
0
 40
0
 40
0
 40
1
 40
1
 40
1
 40
1
 10
117.755625
 20
261.848841
 30
0.0
 10
117.755625
 20
261.848841
 30
0.0
 10
117.679002
 20
261.816866
 30
0.0
 10
117.679002
 20
261.816866
 30
0.0
  0
SPLINE
  5
320
100
AcDbEntity
  8
Layer_1
 62
3
100
AcDbSpline
 70
8
 71
3
 72
8
 73
4
 74
0
 40
0
 40
0
 40
0
 40
0
 40
1
 40
1
 40
1
 40
1
 10
117.679002
 20
261.816866
 30
0.0
 10
116.915877
 20
263.178140
 30
0.0
 10
116.099829
 20
264.509063
 30
0.0
 10
115.232728
 20
265.806585
 30
0.0
  0
LINE
  5
321
100
AcDbEntity
  8
Layer_1
 62
3
100
AcDbLine
 10
115.232728
 20
265.806585
 30
0.0
 11
115.296651
 21
265.861138
 31
0.0
  0
LINE
  5
322
100
AcDbEntity
  8
Layer_1
 62
3
100
AcDbLine
 10
115.296651
 20
265.861138
 30
0.0
 11
117.300316
 21
268.245154
 31
0.0
  0
LINE
  5
323
100
AcDbEntity
  8
Layer_1
 62
3
100
AcDbLine
 10
117.300316
 20
268.245154
 30
0.0
 11
115.416821
 21
270.837508
 31
0.0
  0
LINE
  5
324
100
AcDbEntity
  8
Layer_1
 62
3
100
AcDbLine
 10
115.416821
 20
270.837508
 30
0.0
 11
112.530647
 21
269.668402
 31
0.0
  0
SPLINE
  5
325
100
AcDbEntity
  8
Layer_1
 62
3
100
AcDbSpline
 70
8
 71
3
 72
8
 73
4
 74
0
 40
0
 40
0
 40
0
 40
0
 40
1
 40
1
 40
1
 40
1
 10
112.530647
 20
269.668402
 30
0.0
 10
112.530647
 20
269.668402
 30
0.0
 10
112.428680
 20
269.605551
 30
0.0
 10
112.428680
 20
269.605551
 30
0.0
  0
SPLINE
  5
326
100
AcDbEntity
  8
Layer_1
 62
3
100
AcDbSpline
 70
8
 71
3
 72
8
 73
4
 74
0
 40
0
 40
0
 40
0
 40
0
 40
1
 40
1
 40
1
 40
1
 10
112.428680
 20
269.605551
 30
0.0
 10
111.462360
 20
270.825842
 30
0.0
 10
110.448826
 20
272.007990
 30
0.0
 10
109.390389
 20
273.149303
 30
0.0
  0
LINE
  5
327
100
AcDbEntity
  8
Layer_1
 62
3
100
AcDbLine
 10
109.390389
 20
273.149303
 30
0.0
 11
109.474181
 21
273.246867
 31
0.0
  0
LINE
  5
328
100
AcDbEntity
  8
Layer_1
 62
3
100
AcDbLine
 10
109.474181
 20
273.246867
 30
0.0
 11
111.080420
 21
275.915306
 31
0.0
  0
LINE
  5
329
100
AcDbEntity
  8
Layer_1
 62
3
100
AcDbLine
 10
111.080420
 20
275.915306
 30
0.0
 11
108.814373
 21
278.181353
 31
0.0
  0
LINE
  5
32a
100
AcDbEntity
  8
Layer_1
 62
3
100
AcDbLine
 10
108.814373
 20
278.181353
 30
0.0
 11
106.146470
 21
276.574577
 31
0.0
  0
LINE
  5
32b
100
AcDbEntity
  8
Layer_1
 62
3
100
AcDbLine
 10
106.146470
 20
276.574577
 30
0.0
 11
106.062707
 21
276.502921
 31
0.0
  0
SPLINE
  5
32c
100
AcDbEntity
  8
Layer_1
 62
3
100
AcDbSpline
 70
8
 71
3
 72
8
 73
4
 74
0
 40
0
 40
0
 40
0
 40
0
 40
1
 40
1
 40
1
 40
1
 10
106.062707
 20
276.502921
 30
0.0
 10
104.927292
 20
277.573386
 30
0.0
 10
103.750468
 20
278.599059
 30
0.0
 10
102.534929
 20
279.577591
 30
0.0
  0
LINE
  5
32d
100
AcDbEntity
  8
Layer_1
 62
3
100
AcDbLine
 10
102.534929
 20
279.577591
 30
0.0
 11
102.568005
 21
279.631044
 31
0.0
  0
LINE
  5
32e
100
AcDbEntity
  8
Layer_1
 62
3
100
AcDbLine
 10
102.568005
 20
279.631044
 30
0.0
 11
103.737111
 21
282.517782
 31
0.0
  0
LINE
  5
32f
100
AcDbEntity
  8
Layer_1
 62
3
100
AcDbLine
 10
103.737111
 20
282.517782
 30
0.0
 11
101.144759
 21
284.401277
 31
0.0
  0
LINE
  5
330
100
AcDbEntity
  8
Layer_1
 62
3
100
AcDbLine
 10
101.144759
 20
284.401277
 30
0.0
 11
98.760743
 21
282.397048
 31
0.0
  0
LINE
  5
331
100
AcDbEntity
  8
Layer_1
 62
3
100
AcDbLine
 10
98.760743
 20
282.397048
 30
0.0
 11
98.696820
 21
282.322089
 31
0.0
  0
SPLINE
  5
332
100
AcDbEntity
  8
Layer_1
 62
3
100
AcDbSpline
 70
8
 71
3
 72
8
 73
4
 74
0
 40
0
 40
0
 40
0
 40
0
 40
1
 40
1
 40
1
 40
1
 10
98.696820
 20
282.322089
 30
0.0
 10
97.396299
 20
283.179655
 30
0.0
 10
96.062810
 20
283.986145
 30
0.0
 10
94.699396
 20
284.739718
 30
0.0
  0
LINE
  5
333
100
AcDbEntity
  8
Layer_1
 62
3
100
AcDbLine
 10
94.699396
 20
284.739718
 30
0.0
 11
94.747910
 21
284.856022
 31
0.0
  0
LINE
  5
334
100
AcDbEntity
  8
Layer_1
 62
3
100
AcDbLine
 10
94.747910
 20
284.856022
 30
0.0
 11
95.451264
 21
287.889925
 31
0.0
  0
LINE
  5
335
100
AcDbEntity
  8
Layer_1
 62
3
100
AcDbLine
 10
95.451264
 20
287.889925
 30
0.0
 11
92.595965
 21
289.345147
 31
0.0
  0
LINE
  5
336
100
AcDbEntity
  8
Layer_1
 62
3
100
AcDbLine
 10
92.595965
 20
289.345147
 30
0.0
 11
90.554821
 21
286.992528
 31
0.0
  0
SPLINE
  5
337
100
AcDbEntity
  8
Layer_1
 62
3
100
AcDbSpline
 70
8
 71
3
 72
8
 73
4
 74
0
 40
0
 40
0
 40
0
 40
0
 40
1
 40
1
 40
1
 40
1
 10
90.554821
 20
286.992528
 30
0.0
 10
90.554821
 20
286.992528
 30
0.0
 10
90.489205
 20
286.885594
 30
0.0
 10
90.489205
 20
286.885594
 30
0.0
  0
SPLINE
  5
338
100
AcDbEntity
  8
Layer_1
 62
3
100
AcDbSpline
 70
8
 71
3
 72
8
 73
4
 74
0
 40
0
 40
0
 40
0
 40
0
 40
1
 40
1
 40
1
 40
1
 10
90.489205
 20
286.885594
 30
0.0
 10
89.078351
 20
287.546055
 30
0.0
 10
87.642262
 20
288.151209
 30
0.0
 10
86.184215
 20
288.699677
 30
0.0
  0
LINE
  5
339
100
AcDbEntity
  8
Layer_1
 62
3
100
AcDbLine
 10
86.184215
 20
288.699677
 30
0.0
 11
86.206793
 21
288.793374
 31
0.0
  0
LINE
  5
33a
100
AcDbEntity
  8
Layer_1
 62
3
100
AcDbLine
 10
86.206793
 20
288.793374
 30
0.0
 11
86.427293
 21
291.900020
 31
0.0
  0
LINE
  5
33b
100
AcDbEntity
  8
Layer_1
 62
3
100
AcDbLine
 10
86.427293
 20
291.900020
 30
0.0
 11
83.379604
 21
292.890564
 31
0.0
  0
LINE
  5
33c
100
AcDbEntity
  8
Layer_1
 62
3
100
AcDbLine
 10
83.379604
 20
292.890564
 30
0.0
 11
81.731482
 21
290.248032
 31
0.0
  0
SPLINE
  5
33d
100
AcDbEntity
  8
Layer_1
 62
3
100
AcDbSpline
 70
8
 71
3
 72
8
 73
4
 74
0
 40
0
 40
0
 40
0
 40
0
 40
1
 40
1
 40
1
 40
1
 10
81.731482
 20
290.248032
 30
0.0
 10
81.731482
 20
290.248032
 30
0.0
 10
81.706647
 20
290.187383
 30
0.0
 10
81.706647
 20
290.187383
 30
0.0
  0
SPLINE
  5
33e
100
AcDbEntity
  8
Layer_1
 62
3
100
AcDbSpline
 70
8
 71
3
 72
8
 73
4
 74
0
 40
0
 40
0
 40
0
 40
0
 40
1
 40
1
 40
1
 40
1
 10
81.706647
 20
290.187383
 30
0.0
 10
80.200811
 20
290.595948
 30
0.0
 10
78.679582
 20
290.945502
 30
0.0
 10
77.146444
 20
291.235246
 30
0.0
  0
LINE
  5
33f
100
AcDbEntity
  8
Layer_1
 62
3
100
AcDbLine
 10
77.146444
 20
291.235246
 30
0.0
 11
77.155192
 21
291.346611
 31
0.0
  0
LINE
  5
340
100
AcDbEntity
  8
Layer_1
 62
3
100
AcDbLine
 10
77.155192
 20
291.346611
 30
0.0
 11
76.886771
 21
294.449390
 31
0.0
  0
LINE
  5
341
100
AcDbEntity
  8
Layer_1
 62
3
100
AcDbLine
 10
76.886771
 20
294.449390
 30
0.0
 11
73.721677
 21
294.950447
 31
0.0
  0
LINE
  5
342
100
AcDbEntity
  8
Layer_1
 62
3
100
AcDbLine
 10
73.721677
 20
294.950447
 30
0.0
 11
72.507359
 21
292.082477
 31
0.0
  0
LINE
  5
343
100
AcDbEntity
  8
Layer_1
 62
3
100
AcDbLine
 10
72.507359
 20
292.082477
 30
0.0
 11
72.477585
 21
291.957339
 31
0.0
  0
SPLINE
  5
344
100
AcDbEntity
  8
Layer_1
 62
3
100
AcDbSpline
 70
8
 71
3
 72
8
 73
4
 74
0
 40
0
 40
0
 40
0
 40
0
 40
1
 40
1
 40
1
 40
1
 10
72.477585
 20
291.957339
 30
0.0
 10
70.931758
 20
292.152346
 30
0.0
 10
69.378909
 20
292.286947
 30
0.0
 10
67.822583
 20
292.360833
 30
0.0
  0
LINE
  5
345
100
AcDbEntity
  8
Layer_1
 62
3
100
AcDbLine
 10
67.822583
 20
292.360833
 30
0.0
 11
67.815528
 21
292.451793
 31
0.0
  0
LINE
  5
346
100
AcDbEntity
  8
Layer_1
 62
3
100
AcDbLine
 10
67.815528
 20
292.451793
 30
0.0
 11
67.064760
 21
295.474647
 31
0.0
  0
LINE
  5
347
100
AcDbEntity
  8
Layer_1
 62
3
100
AcDbLine
 10
67.064760
 20
295.474647
 30
0.0
 11
63.860550
 21
295.474647
 31
0.0
  0
LINE
  5
348
100
AcDbEntity
  8
Layer_1
 62
3
100
AcDbLine
 10
63.860550
 20
295.474647
 30
0.0
 11
63.860296
 21
295.474647
 31
0.0
  0
SPLINE
  5
349
100
AcDbEntity
  8
Layer_1
 62
5
100
AcDbSpline
 70
8
 71
3
 72
8
 73
4
 74
0
 40
0
 40
0
 40
0
 40
0
 40
1
 40
1
 40
1
 40
1
 10
65.462133
 20
281.924382
 30
0.0
 10
72.336248
 20
281.912811
 30
0.0
 10
79.132139
 20
280.465378
 30
0.0
 10
85.414482
 20
277.675075
 30
0.0
  0
LINE
  5
34a
100
AcDbEntity
  8
Layer_1
 62
5
100
AcDbLine
 10
85.414482
 20
277.675075
 30
0.0
 11
69.920369
 21
241.918844
 31
0.0
  0
LINE
  5
34b
100
AcDbEntity
  8
Layer_1
 62
5
100
AcDbLine
 10
69.920369
 20
241.918844
 30
0.0
 11
69.777593
 21
241.841120
 31
0.0
  0
LINE
  5
34c
100
AcDbEntity
  8
Layer_1
 62
5
100
AcDbLine
 10
69.777593
 20
241.841120
 30
0.0
 11
43.786704
 21
276.873620
 31
0.0
  0
SPLINE
  5
34d
100
AcDbEntity
  8
Layer_1
 62
5
100
AcDbSpline
 70
8
 71
3
 72
8
 73
4
 74
0
 40
0
 40
0
 40
0
 40
0
 40
1
 40
1
 40
1
 40
1
 10
43.786704
 20
276.873620
 30
0.0
 10
50.533131
 20
280.185357
 30
0.0
 10
57.946702
 20
281.912867
 30
0.0
 10
65.462133
 20
281.924382
 30
0.0
  0
LINE
  5
34e
100
AcDbEntity
  8
Layer_1
 62
5
100
AcDbLine
 10
65.462133
 20
281.924382
 30
0.0
 11
65.462133
 21
281.924382
 31
0.0
  0
SPLINE
  5
34f
100
AcDbEntity
  8
Layer_1
 62
5
100
AcDbSpline
 70
8
 71
3
 72
8
 73
4
 74
0
 40
0
 40
0
 40
0
 40
0
 40
1
 40
1
 40
1
 40
1
 10
92.873503
 20
273.584518
 30
0.0
 10
105.065096
 20
265.419838
 30
0.0
 10
112.992332
 20
252.254439
 30
0.0
 10
114.504848
 20
237.659603
 30
0.0
  0
LINE
  5
350
100
AcDbEntity
  8
Layer_1
 62
5
100
AcDbLine
 10
114.504848
 20
237.659603
 30
0.0
 11
75.936331
 21
233.216804
 31
0.0
  0
SPLINE
  5
351
100
AcDbEntity
  8
Layer_1
 62
5
100
AcDbSpline
 70
8
 71
3
 72
8
 73
4
 74
0
 40
0
 40
0
 40
0
 40
0
 40
1
 40
1
 40
1
 40
1
 10
75.936331
 20
233.216804
 30
0.0
 10
75.906843
 20
233.543013
 30
0.0
 10
75.862147
 20
233.867668
 30
0.0
 10
75.802388
 20
234.189709
 30
0.0
  0
LINE
  5
352
100
AcDbEntity
  8
Layer_1
 62
5
100
AcDbLine
 10
75.802388
 20
234.189709
 30
0.0
 11
92.873503
 21
273.584518
 31
0.0
  0
LINE
  5
353
100
AcDbEntity
  8
Layer_1
 62
5
100
AcDbLine
 10
92.873503
 20
273.584518
 30
0.0
 11
92.873503
 21
273.584518
 31
0.0
  0
LINE
  5
354
100
AcDbEntity
  8
Layer_1
 62
5
100
AcDbLine
 10
36.509548
 20
272.466635
 30
0.0
 11
59.608774
 21
240.980540
 31
0.0
  0
SPLINE
  5
355
100
AcDbEntity
  8
Layer_1
 62
5
100
AcDbSpline
 70
8
 71
3
 72
8
 73
4
 74
0
 40
0
 40
0
 40
0
 40
0
 40
1
 40
1
 40
1
 40
1
 10
59.608774
 20
240.980540
 30
0.0
 10
60.294241
 20
241.048781
 30
0.0
 10
16.272775
 20
235.977304
 30
0.0
 10
16.272775
 20
235.977304
 30
0.0
  0
SPLINE
  5
356
100
AcDbEntity
  8
Layer_1
 62
5
100
AcDbSpline
 70
8
 71
3
 72
8
 73
4
 74
0
 40
0
 40
0
 40
0
 40
0
 40
1
 40
1
 40
1
 40
1
 10
16.272775
 20
235.977304
 30
0.0
 10
17.293220
 20
250.533706
 30
0.0
 10
24.702019
 20
263.892666
 30
0.0
 10
36.509548
 20
272.466635
 30
0.0
  0
LINE
  5
357
100
AcDbEntity
  8
Layer_1
 62
5
100
AcDbLine
 10
36.509548
 20
272.466635
 30
0.0
 11
36.509548
 21
272.466635
 31
0.0
  0
SPLINE
  5
358
100
AcDbEntity
  8
Layer_1
 62
5
100
AcDbSpline
 70
8
 71
3
 72
8
 73
4
 74
0
 40
0
 40
0
 40
0
 40
0
 40
1
 40
1
 40
1
 40
1
 10
54.947154
 20
231.906559
 30
0.0
 10
54.954355
 20
231.703928
 30
0.0
 10
54.967408
 20
231.501546
 30
0.0
 10
54.986298
 20
231.299669
 30
0.0
  0
SPLINE
  5
359
100
AcDbEntity
  8
Layer_1
 62
5
100
AcDbSpline
 70
8
 71
3
 72
8
 73
4
 74
0
 40
0
 40
0
 40
0
 40
0
 40
1
 40
1
 40
1
 40
1
 10
54.986298
 20
231.299669
 30
0.0
 10
54.986298
 20
231.299669
 30
0.0
 10
37.819793
 20
191.683825
 30
0.0
 10
37.819793
 20
191.683825
 30
0.0
  0
SPLINE
  5
35a
100
AcDbEntity
  8
Layer_1
 62
5
100
AcDbSpline
 70
8
 71
3
 72
8
 73
4
 74
0
 40
0
 40
0
 40
0
 40
0
 40
1
 40
1
 40
1
 40
1
 10
37.819793
 20
191.683825
 30
0.0
 10
25.751649
 20
199.865783
 30
0.0
 10
17.918186
 20
212.964530
 30
0.0
 10
16.419954
 20
227.467627
 30
0.0
  0
LINE
  5
35b
100
AcDbEntity
  8
Layer_1
 62
5
100
AcDbLine
 10
16.419954
 20
227.467627
 30
0.0
 11
54.947154
 21
231.906559
 31
0.0
  0
LINE
  5
35c
100
AcDbEntity
  8
Layer_1
 62
5
100
AcDbLine
 10
54.947154
 20
231.906559
 30
0.0
 11
54.947154
 21
231.906559
 31
0.0
  0
SPLINE
  5
35d
100
AcDbEntity
  8
Layer_1
 62
5
100
AcDbSpline
 70
8
 71
3
 72
8
 73
4
 74
0
 40
0
 40
0
 40
0
 40
0
 40
1
 40
1
 40
1
 40
1
 10
114.652027
 20
229.150490
 30
0.0
 10
113.623818
 20
214.487944
 30
0.0
 10
106.114590
 20
201.046414
 30
0.0
 10
94.167774
 20
192.483643
 30
0.0
  0
LINE
  5
35e
100
AcDbEntity
  8
Layer_1
 62
5
100
AcDbLine
 10
94.167774
 20
192.483643
 30
0.0
 11
71.207444
 21
223.431624
 31
0.0
  0
SPLINE
  5
35f
100
AcDbEntity
  8
Layer_1
 62
5
100
AcDbSpline
 70
8
 71
3
 72
8
 73
4
 74
0
 40
0
 40
0
 40
0
 40
0
 40
1
 40
1
 40
1
 40
1
 10
71.207444
 20
223.431624
 30
0.0
 10
71.593936
 20
223.687196
 30
0.0
 10
71.963133
 20
223.968006
 30
0.0
 10
72.312626
 20
224.272222
 30
0.0
  0
LINE
  5
360
100
AcDbEntity
  8
Layer_1
 62
5
100
AcDbLine
 10
72.312626
 20
224.272222
 30
0.0
 11
114.652027
 21
229.150490
 31
0.0
  0
LINE
  5
361
100
AcDbEntity
  8
Layer_1
 62
5
100
AcDbLine
 10
114.652027
 20
229.150490
 30
0.0
 11
114.652027
 21
229.150490
 31
0.0
  0
SPLINE
  5
362
100
AcDbEntity
  8
Layer_1
 62
5
100
AcDbSpline
 70
8
 71
3
 72
8
 73
4
 74
0
 40
0
 40
0
 40
0
 40
0
 40
1
 40
1
 40
1
 40
1
 10
60.588833
 20
222.927264
 30
0.0
 10
60.816523
 20
222.806710
 30
0.0
 10
61.048563
 20
222.694554
 30
0.0
 10
61.284482
 20
222.591025
 30
0.0
  0
LINE
  5
363
100
AcDbEntity
  8
Layer_1
 62
5
100
AcDbLine
 10
61.284482
 20
222.591025
 30
0.0
 11
86.853703
 21
188.126301
 31
0.0
  0
SPLINE
  5
364
100
AcDbEntity
  8
Layer_1
 62
5
100
AcDbSpline
 70
8
 71
3
 72
8
 73
4
 74
0
 40
0
 40
0
 40
0
 40
0
 40
1
 40
1
 40
1
 40
1
 10
86.853703
 20
188.126301
 30
0.0
 10
80.183099
 20
184.900373
 30
0.0
 10
72.871812
 20
183.217618
 30
0.0
 10
65.462133
 20
183.202850
 30
0.0
  0
SPLINE
  5
365
100
AcDbEntity
  8
Layer_1
 62
5
100
AcDbSpline
 70
8
 71
3
 72
8
 73
4
 74
0
 40
0
 40
0
 40
0
 40
0
 40
1
 40
1
 40
1
 40
1
 10
65.462133
 20
183.202850
 30
0.0
 10
58.498248
 20
183.217459
 30
0.0
 10
51.616267
 20
184.705440
 30
0.0
 10
45.268371
 20
187.569025
 30
0.0
  0
LINE
  5
366
100
AcDbEntity
  8
Layer_1
 62
5
100
AcDbLine
 10
45.268371
 20
187.569025
 30
0.0
 11
60.588833
 21
222.927264
 31
0.0
  0
LINE
  5
367
100
AcDbEntity
  8
Layer_1
 62
5
100
AcDbLine
 10
60.588833
 20
222.927264
 30
0.0
 11
60.588833
 21
222.927264
 31
0.0
  0
LINE
  5
368
100
AcDbEntity
  8
Layer_1
 62
5
100
AcDbLine
 10
296.689808
 20
281.573883
 30
0.0
 11
296.710975
 21
286.921001
 31
0.0
  0
SPLINE
  5
369
100
AcDbEntity
  8
Layer_1
 62
5
100
AcDbSpline
 70
8
 71
3
 72
8
 73
4
 74
0
 40
0
 40
0
 40
0
 40
0
 40
1
 40
1
 40
1
 40
1
 10
296.710975
 20
286.921001
 30
0.0
 10
296.717466
 20
288.582931
 30
0.0
 10
295.365988
 20
289.920904
 30
0.0
 10
293.695289
 20
289.920904
 30
0.0
  0
LINE
  5
36a
100
AcDbEntity
  8
Layer_1
 62
5
100
AcDbLine
 10
293.695289
 20
289.920904
 30
0.0
 11
257.027031
 21
289.920904
 31
0.0
  0
SPLINE
  5
36b
100
AcDbEntity
  8
Layer_1
 62
5
100
AcDbSpline
 70
8
 71
3
 72
8
 73
4
 74
0
 40
0
 40
0
 40
0
 40
0
 40
1
 40
1
 40
1
 40
1
 10
257.027031
 20
289.920904
 30
0.0
 10
255.356332
 20
289.920904
 30
0.0
 10
254.011345
 20
288.582945
 30
0.0
 10
254.011345
 20
286.921001
 30
0.0
  0
LINE
  5
36c
100
AcDbEntity
  8
Layer_1
 62
5
100
AcDbLine
 10
254.011345
 20
286.921001
 30
0.0
 11
254.015296
 21
281.573883
 31
0.0
  0
LINE
  5
36d
100
AcDbEntity
  8
Layer_1
 62
5
100
AcDbLine
 10
254.015296
 20
281.573883
 30
0.0
 11
254.035899
 21
193.119086
 31
0.0
  0
LINE
  5
36e
100
AcDbEntity
  8
Layer_1
 62
5
100
AcDbLine
 10
254.035899
 20
193.119086
 30
0.0
 11
254.052550
 21
187.932298
 31
0.0
  0
SPLINE
  5
36f
100
AcDbEntity
  8
Layer_1
 62
5
100
AcDbSpline
 70
8
 71
3
 72
8
 73
4
 74
0
 40
0
 40
0
 40
0
 40
0
 40
1
 40
1
 40
1
 40
1
 10
254.052550
 20
187.932298
 30
0.0
 10
254.052550
 20
186.270354
 30
0.0
 10
255.397536
 20
184.932395
 30
0.0
 10
257.068235
 20
184.932395
 30
0.0
  0
LINE
  5
370
100
AcDbEntity
  8
Layer_1
 62
5
100
AcDbLine
 10
257.068235
 20
184.932395
 30
0.0
 11
293.736494
 21
184.932395
 31
0.0
  0
SPLINE
  5
371
100
AcDbEntity
  8
Layer_1
 62
5
100
AcDbSpline
 70
8
 71
3
 72
8
 73
4
 74
0
 40
0
 40
0
 40
0
 40
0
 40
1
 40
1
 40
1
 40
1
 10
293.736494
 20
184.932395
 30
0.0
 10
295.407165
 20
184.932395
 30
0.0
 10
296.765500
 20
186.270405
 30
0.0
 10
296.752179
 20
187.932298
 30
0.0
  0
LINE
  5
372
100
AcDbEntity
  8
Layer_1
 62
5
100
AcDbLine
 10
296.752179
 20
187.932298
 30
0.0
 11
296.710495
 21
193.119086
 31
0.0
  0
LINE
  5
373
100
AcDbEntity
  8
Layer_1
 62
5
100
AcDbLine
 10
296.710495
 20
193.119086
 30
0.0
 11
296.689808
 21
281.573883
 31
0.0
  0
SPLINE
  5
374
100
AcDbEntity
  8
Layer_1
 62
1
100
AcDbSpline
 70
8
 71
3
 72
8
 73
4
 74
0
 40
0
 40
0
 40
0
 40
0
 40
1
 40
1
 40
1
 40
1
 10
289.497121
 20
273.132306
 30
0.0
 10
288.723706
 20
273.132314
 30
0.0
 10
288.096733
 20
273.759294
 30
0.0
 10
288.096734
 20
274.532709
 30
0.0
  0
SPLINE
  5
375
100
AcDbEntity
  8
Layer_1
 62
1
100
AcDbSpline
 70
8
 71
3
 72
8
 73
4
 74
0
 40
0
 40
0
 40
0
 40
0
 40
1
 40
1
 40
1
 40
1
 10
288.096734
 20
274.532709
 30
0.0
 10
288.096738
 20
275.306121
 30
0.0
 10
288.723709
 20
275.933096
 30
0.0
 10
289.497121
 20
275.933105
 30
0.0
  0
SPLINE
  5
376
100
AcDbEntity
  8
Layer_1
 62
1
100
AcDbSpline
 70
8
 71
3
 72
8
 73
4
 74
0
 40
0
 40
0
 40
0
 40
0
 40
1
 40
1
 40
1
 40
1
 10
289.497121
 20
275.933105
 30
0.0
 10
289.868532
 20
275.933108
 30
0.0
 10
290.224732
 20
275.785569
 30
0.0
 10
290.487361
 20
275.522943
 30
0.0
  0
SPLINE
  5
377
100
AcDbEntity
  8
Layer_1
 62
1
100
AcDbSpline
 70
8
 71
3
 72
8
 73
4
 74
0
 40
0
 40
0
 40
0
 40
0
 40
1
 40
1
 40
1
 40
1
 10
290.487361
 20
275.522943
 30
0.0
 10
290.749989
 20
275.260318
 30
0.0
 10
290.897534
 20
274.904120
 30
0.0
 10
290.897536
 20
274.532709
 30
0.0
  0
SPLINE
  5
378
100
AcDbEntity
  8
Layer_1
 62
1
100
AcDbSpline
 70
8
 71
3
 72
8
 73
4
 74
0
 40
0
 40
0
 40
0
 40
0
 40
1
 40
1
 40
1
 40
1
 10
290.897536
 20
274.532709
 30
0.0
 10
290.897536
 20
274.161297
 30
0.0
 10
290.749993
 20
273.805097
 30
0.0
 10
290.487364
 20
273.542470
 30
0.0
  0
SPLINE
  5
379
100
AcDbEntity
  8
Layer_1
 62
1
100
AcDbSpline
 70
8
 71
3
 72
8
 73
4
 74
0
 40
0
 40
0
 40
0
 40
0
 40
1
 40
1
 40
1
 40
1
 10
290.487364
 20
273.542470
 30
0.0
 10
290.224734
 20
273.279843
 30
0.0
 10
289.868533
 20
273.132302
 30
0.0
 10
289.497121
 20
273.132306
 30
0.0
  0
LINE
  5
37a
100
AcDbEntity
  8
Layer_1
 62
1
100
AcDbLine
 10
289.497121
 20
273.132306
 30
0.0
 11
289.497121
 21
273.132306
 31
0.0
  0
SPLINE
  5
37b
100
AcDbEntity
  8
Layer_1
 62
1
100
AcDbSpline
 70
8
 71
3
 72
8
 73
4
 74
0
 40
0
 40
0
 40
0
 40
0
 40
1
 40
1
 40
1
 40
1
 10
289.497149
 20
198.599531
 30
0.0
 10
289.125737
 20
198.599527
 30
0.0
 10
288.769536
 20
198.747068
 30
0.0
 10
288.506906
 20
199.009695
 30
0.0
  0
SPLINE
  5
37c
100
AcDbEntity
  8
Layer_1
 62
1
100
AcDbSpline
 70
8
 71
3
 72
8
 73
4
 74
0
 40
0
 40
0
 40
0
 40
0
 40
1
 40
1
 40
1
 40
1
 10
288.506906
 20
199.009695
 30
0.0
 10
288.244277
 20
199.272322
 30
0.0
 10
288.096734
 20
199.628522
 30
0.0
 10
288.096734
 20
199.999934
 30
0.0
  0
SPLINE
  5
37d
100
AcDbEntity
  8
Layer_1
 62
1
100
AcDbSpline
 70
8
 71
3
 72
8
 73
4
 74
0
 40
0
 40
0
 40
0
 40
0
 40
1
 40
1
 40
1
 40
1
 10
288.096734
 20
199.999934
 30
0.0
 10
288.096736
 20
200.371345
 30
0.0
 10
288.244281
 20
200.727543
 30
0.0
 10
288.506909
 20
200.990168
 30
0.0
  0
SPLINE
  5
37e
100
AcDbEntity
  8
Layer_1
 62
1
100
AcDbSpline
 70
8
 71
3
 72
8
 73
4
 74
0
 40
0
 40
0
 40
0
 40
0
 40
1
 40
1
 40
1
 40
1
 10
288.506909
 20
200.990168
 30
0.0
 10
288.769538
 20
201.252794
 30
0.0
 10
289.125738
 20
201.400333
 30
0.0
 10
289.497149
 20
201.400330
 30
0.0
  0
SPLINE
  5
37f
100
AcDbEntity
  8
Layer_1
 62
1
100
AcDbSpline
 70
8
 71
3
 72
8
 73
4
 74
0
 40
0
 40
0
 40
0
 40
0
 40
1
 40
1
 40
1
 40
1
 10
289.497149
 20
201.400330
 30
0.0
 10
290.270561
 20
201.400321
 30
0.0
 10
290.897532
 20
200.773346
 30
0.0
 10
290.897536
 20
199.999934
 30
0.0
  0
SPLINE
  5
380
100
AcDbEntity
  8
Layer_1
 62
1
100
AcDbSpline
 70
8
 71
3
 72
8
 73
4
 74
0
 40
0
 40
0
 40
0
 40
0
 40
1
 40
1
 40
1
 40
1
 10
290.897536
 20
199.999934
 30
0.0
 10
290.897537
 20
199.226519
 30
0.0
 10
290.270564
 20
198.599539
 30
0.0
 10
289.497149
 20
198.599531
 30
0.0
  0
LINE
  5
381
100
AcDbEntity
  8
Layer_1
 62
1
100
AcDbLine
 10
289.497149
 20
198.599531
 30
0.0
 11
289.497149
 21
198.599531
 31
0.0
  0
SPLINE
  5
382
100
AcDbEntity
  8
Layer_1
 62
1
100
AcDbSpline
 70
8
 71
3
 72
8
 73
4
 74
0
 40
0
 40
0
 40
0
 40
0
 40
1
 40
1
 40
1
 40
1
 10
261.190825
 20
273.132306
 30
0.0
 10
260.417409
 20
273.132314
 30
0.0
 10
259.790437
 20
273.759294
 30
0.0
 10
259.790438
 20
274.532709
 30
0.0
  0
SPLINE
  5
383
100
AcDbEntity
  8
Layer_1
 62
1
100
AcDbSpline
 70
8
 71
3
 72
8
 73
4
 74
0
 40
0
 40
0
 40
0
 40
0
 40
1
 40
1
 40
1
 40
1
 10
259.790438
 20
274.532709
 30
0.0
 10
259.790442
 20
275.306121
 30
0.0
 10
260.417413
 20
275.933096
 30
0.0
 10
261.190825
 20
275.933105
 30
0.0
  0
SPLINE
  5
384
100
AcDbEntity
  8
Layer_1
 62
1
100
AcDbSpline
 70
8
 71
3
 72
8
 73
4
 74
0
 40
0
 40
0
 40
0
 40
0
 40
1
 40
1
 40
1
 40
1
 10
261.190825
 20
275.933105
 30
0.0
 10
261.562235
 20
275.933108
 30
0.0
 10
261.918435
 20
275.785569
 30
0.0
 10
262.181064
 20
275.522943
 30
0.0
  0
SPLINE
  5
385
100
AcDbEntity
  8
Layer_1
 62
1
100
AcDbSpline
 70
8
 71
3
 72
8
 73
4
 74
0
 40
0
 40
0
 40
0
 40
0
 40
1
 40
1
 40
1
 40
1
 10
262.181064
 20
275.522943
 30
0.0
 10
262.443693
 20
275.260318
 30
0.0
 10
262.591238
 20
274.904120
 30
0.0
 10
262.591240
 20
274.532709
 30
0.0
  0
SPLINE
  5
386
100
AcDbEntity
  8
Layer_1
 62
1
100
AcDbSpline
 70
8
 71
3
 72
8
 73
4
 74
0
 40
0
 40
0
 40
0
 40
0
 40
1
 40
1
 40
1
 40
1
 10
262.591240
 20
274.532709
 30
0.0
 10
262.591240
 20
274.161297
 30
0.0
 10
262.443696
 20
273.805097
 30
0.0
 10
262.181067
 20
273.542470
 30
0.0
  0
SPLINE
  5
387
100
AcDbEntity
  8
Layer_1
 62
1
100
AcDbSpline
 70
8
 71
3
 72
8
 73
4
 74
0
 40
0
 40
0
 40
0
 40
0
 40
1
 40
1
 40
1
 40
1
 10
262.181067
 20
273.542470
 30
0.0
 10
261.918438
 20
273.279843
 30
0.0
 10
261.562237
 20
273.132302
 30
0.0
 10
261.190825
 20
273.132306
 30
0.0
  0
LINE
  5
388
100
AcDbEntity
  8
Layer_1
 62
1
100
AcDbLine
 10
261.190825
 20
273.132306
 30
0.0
 11
261.190825
 21
273.132306
 31
0.0
  0
SPLINE
  5
389
100
AcDbEntity
  8
Layer_1
 62
1
100
AcDbSpline
 70
8
 71
3
 72
8
 73
4
 74
0
 40
0
 40
0
 40
0
 40
0
 40
1
 40
1
 40
1
 40
1
 10
261.190853
 20
198.599531
 30
0.0
 10
260.819441
 20
198.599527
 30
0.0
 10
260.463239
 20
198.747068
 30
0.0
 10
260.200610
 20
199.009695
 30
0.0
  0
SPLINE
  5
38a
100
AcDbEntity
  8
Layer_1
 62
1
100
AcDbSpline
 70
8
 71
3
 72
8
 73
4
 74
0
 40
0
 40
0
 40
0
 40
0
 40
1
 40
1
 40
1
 40
1
 10
260.200610
 20
199.009695
 30
0.0
 10
259.937981
 20
199.272322
 30
0.0
 10
259.790438
 20
199.628522
 30
0.0
 10
259.790438
 20
199.999934
 30
0.0
  0
SPLINE
  5
38b
100
AcDbEntity
  8
Layer_1
 62
1
100
AcDbSpline
 70
8
 71
3
 72
8
 73
4
 74
0
 40
0
 40
0
 40
0
 40
0
 40
1
 40
1
 40
1
 40
1
 10
259.790438
 20
199.999934
 30
0.0
 10
259.790440
 20
200.371345
 30
0.0
 10
259.937984
 20
200.727543
 30
0.0
 10
260.200613
 20
200.990168
 30
0.0
  0
SPLINE
  5
38c
100
AcDbEntity
  8
Layer_1
 62
1
100
AcDbSpline
 70
8
 71
3
 72
8
 73
4
 74
0
 40
0
 40
0
 40
0
 40
0
 40
1
 40
1
 40
1
 40
1
 10
260.200613
 20
200.990168
 30
0.0
 10
260.463242
 20
201.252794
 30
0.0
 10
260.819442
 20
201.400333
 30
0.0
 10
261.190853
 20
201.400330
 30
0.0
  0
SPLINE
  5
38d
100
AcDbEntity
  8
Layer_1
 62
1
100
AcDbSpline
 70
8
 71
3
 72
8
 73
4
 74
0
 40
0
 40
0
 40
0
 40
0
 40
1
 40
1
 40
1
 40
1
 10
261.190853
 20
201.400330
 30
0.0
 10
261.964265
 20
201.400321
 30
0.0
 10
262.591236
 20
200.773346
 30
0.0
 10
262.591240
 20
199.999934
 30
0.0
  0
SPLINE
  5
38e
100
AcDbEntity
  8
Layer_1
 62
1
100
AcDbSpline
 70
8
 71
3
 72
8
 73
4
 74
0
 40
0
 40
0
 40
0
 40
0
 40
1
 40
1
 40
1
 40
1
 10
262.591240
 20
199.999934
 30
0.0
 10
262.591240
 20
199.226519
 30
0.0
 10
261.964268
 20
198.599539
 30
0.0
 10
261.190853
 20
198.599531
 30
0.0
  0
LINE
  5
38f
100
AcDbEntity
  8
Layer_1
 62
1
100
AcDbLine
 10
261.190853
 20
198.599531
 30
0.0
 11
261.190853
 21
198.599531
 31
0.0
  0
SPLINE
  5
390
100
AcDbEntity
  8
Layer_1
 62
1
100
AcDbSpline
 70
8
 71
3
 72
8
 73
4
 74
0
 40
0
 40
0
 40
0
 40
0
 40
1
 40
1
 40
1
 40
1
 10
288.188485
 20
249.173959
 30
0.0
 10
287.529176
 20
249.173958
 30
0.0
 10
286.896871
 20
249.435867
 30
0.0
 10
286.430669
 20
249.902068
 30
0.0
  0
SPLINE
  5
391
100
AcDbEntity
  8
Layer_1
 62
1
100
AcDbSpline
 70
8
 71
3
 72
8
 73
4
 74
0
 40
0
 40
0
 40
0
 40
0
 40
1
 40
1
 40
1
 40
1
 10
286.430669
 20
249.902068
 30
0.0
 10
285.964467
 20
250.368269
 30
0.0
 10
285.702558
 20
251.000574
 30
0.0
 10
285.702558
 20
251.659882
 30
0.0
  0
SPLINE
  5
392
100
AcDbEntity
  8
Layer_1
 62
1
100
AcDbSpline
 70
8
 71
3
 72
8
 73
4
 74
0
 40
0
 40
0
 40
0
 40
0
 40
1
 40
1
 40
1
 40
1
 10
285.702558
 20
251.659882
 30
0.0
 10
285.702559
 20
252.319190
 30
0.0
 10
285.964469
 20
252.951495
 30
0.0
 10
286.430670
 20
253.417695
 30
0.0
  0
SPLINE
  5
393
100
AcDbEntity
  8
Layer_1
 62
1
100
AcDbSpline
 70
8
 71
3
 72
8
 73
4
 74
0
 40
0
 40
0
 40
0
 40
0
 40
1
 40
1
 40
1
 40
1
 10
286.430670
 20
253.417695
 30
0.0
 10
286.896872
 20
253.883896
 30
0.0
 10
287.529177
 20
254.145804
 30
0.0
 10
288.188485
 20
254.145803
 30
0.0
  0
SPLINE
  5
394
100
AcDbEntity
  8
Layer_1
 62
1
100
AcDbSpline
 70
8
 71
3
 72
8
 73
4
 74
0
 40
0
 40
0
 40
0
 40
0
 40
1
 40
1
 40
1
 40
1
 10
288.188485
 20
254.145803
 30
0.0
 10
288.847793
 20
254.145804
 30
0.0
 10
289.480097
 20
253.883896
 30
0.0
 10
289.946299
 20
253.417695
 30
0.0
  0
SPLINE
  5
395
100
AcDbEntity
  8
Layer_1
 62
1
100
AcDbSpline
 70
8
 71
3
 72
8
 73
4
 74
0
 40
0
 40
0
 40
0
 40
0
 40
1
 40
1
 40
1
 40
1
 10
289.946299
 20
253.417695
 30
0.0
 10
290.412501
 20
252.951495
 30
0.0
 10
290.674410
 20
252.319190
 30
0.0
 10
290.674411
 20
251.659882
 30
0.0
  0
SPLINE
  5
396
100
AcDbEntity
  8
Layer_1
 62
1
100
AcDbSpline
 70
8
 71
3
 72
8
 73
4
 74
0
 40
0
 40
0
 40
0
 40
0
 40
1
 40
1
 40
1
 40
1
 10
290.674411
 20
251.659882
 30
0.0
 10
290.674411
 20
251.000574
 30
0.0
 10
290.412502
 20
250.368269
 30
0.0
 10
289.946300
 20
249.902068
 30
0.0
  0
SPLINE
  5
397
100
AcDbEntity
  8
Layer_1
 62
1
100
AcDbSpline
 70
8
 71
3
 72
8
 73
4
 74
0
 40
0
 40
0
 40
0
 40
0
 40
1
 40
1
 40
1
 40
1
 10
289.946300
 20
249.902068
 30
0.0
 10
289.480098
 20
249.435867
 30
0.0
 10
288.847793
 20
249.173958
 30
0.0
 10
288.188485
 20
249.173959
 30
0.0
  0
LINE
  5
398
100
AcDbEntity
  8
Layer_1
 62
1
100
AcDbLine
 10
288.188485
 20
249.173959
 30
0.0
 11
288.188485
 21
249.173959
 31
0.0
  0
SPLINE
  5
399
100
AcDbEntity
  8
Layer_1
 62
1
100
AcDbSpline
 70
8
 71
3
 72
8
 73
4
 74
0
 40
0
 40
0
 40
0
 40
0
 40
1
 40
1
 40
1
 40
1
 10
288.188485
 20
220.793012
 30
0.0
 10
287.529176
 20
220.793011
 30
0.0
 10
286.896871
 20
221.054920
 30
0.0
 10
286.430669
 20
221.521121
 30
0.0
  0
SPLINE
  5
39a
100
AcDbEntity
  8
Layer_1
 62
1
100
AcDbSpline
 70
8
 71
3
 72
8
 73
4
 74
0
 40
0
 40
0
 40
0
 40
0
 40
1
 40
1
 40
1
 40
1
 10
286.430669
 20
221.521121
 30
0.0
 10
285.964467
 20
221.987322
 30
0.0
 10
285.702558
 20
222.619627
 30
0.0
 10
285.702558
 20
223.278936
 30
0.0
  0
SPLINE
  5
39b
100
AcDbEntity
  8
Layer_1
 62
1
100
AcDbSpline
 70
8
 71
3
 72
8
 73
4
 74
0
 40
0
 40
0
 40
0
 40
0
 40
1
 40
1
 40
1
 40
1
 10
285.702558
 20
223.278936
 30
0.0
 10
285.702559
 20
223.938244
 30
0.0
 10
285.964469
 20
224.570548
 30
0.0
 10
286.430670
 20
225.036748
 30
0.0
  0
SPLINE
  5
39c
100
AcDbEntity
  8
Layer_1
 62
1
100
AcDbSpline
 70
8
 71
3
 72
8
 73
4
 74
0
 40
0
 40
0
 40
0
 40
0
 40
1
 40
1
 40
1
 40
1
 10
286.430670
 20
225.036748
 30
0.0
 10
286.896872
 20
225.502949
 30
0.0
 10
287.529177
 20
225.764857
 30
0.0
 10
288.188485
 20
225.764856
 30
0.0
  0
SPLINE
  5
39d
100
AcDbEntity
  8
Layer_1
 62
1
100
AcDbSpline
 70
8
 71
3
 72
8
 73
4
 74
0
 40
0
 40
0
 40
0
 40
0
 40
1
 40
1
 40
1
 40
1
 10
288.188485
 20
225.764856
 30
0.0
 10
288.847793
 20
225.764857
 30
0.0
 10
289.480097
 20
225.502949
 30
0.0
 10
289.946299
 20
225.036748
 30
0.0
  0
SPLINE
  5
39e
100
AcDbEntity
  8
Layer_1
 62
1
100
AcDbSpline
 70
8
 71
3
 72
8
 73
4
 74
0
 40
0
 40
0
 40
0
 40
0
 40
1
 40
1
 40
1
 40
1
 10
289.946299
 20
225.036748
 30
0.0
 10
290.412501
 20
224.570548
 30
0.0
 10
290.674410
 20
223.938244
 30
0.0
 10
290.674411
 20
223.278936
 30
0.0
  0
SPLINE
  5
39f
100
AcDbEntity
  8
Layer_1
 62
1
100
AcDbSpline
 70
8
 71
3
 72
8
 73
4
 74
0
 40
0
 40
0
 40
0
 40
0
 40
1
 40
1
 40
1
 40
1
 10
290.674411
 20
223.278936
 30
0.0
 10
290.674411
 20
222.619627
 30
0.0
 10
290.412502
 20
221.987322
 30
0.0
 10
289.946300
 20
221.521121
 30
0.0
  0
SPLINE
  5
3a0
100
AcDbEntity
  8
Layer_1
 62
1
100
AcDbSpline
 70
8
 71
3
 72
8
 73
4
 74
0
 40
0
 40
0
 40
0
 40
0
 40
1
 40
1
 40
1
 40
1
 10
289.946300
 20
221.521121
 30
0.0
 10
289.480098
 20
221.054920
 30
0.0
 10
288.847793
 20
220.793011
 30
0.0
 10
288.188485
 20
220.793012
 30
0.0
  0
LINE
  5
3a1
100
AcDbEntity
  8
Layer_1
 62
1
100
AcDbLine
 10
288.188485
 20
220.793012
 30
0.0
 11
288.188485
 21
220.793012
 31
0.0
  0
SPLINE
  5
3a2
100
AcDbEntity
  8
Layer_1
 62
1
100
AcDbSpline
 70
8
 71
3
 72
8
 73
4
 74
0
 40
0
 40
0
 40
0
 40
0
 40
1
 40
1
 40
1
 40
1
 10
261.915204
 20
249.173959
 30
0.0
 10
261.255896
 20
249.173958
 30
0.0
 10
260.623591
 20
249.435867
 30
0.0
 10
260.157389
 20
249.902068
 30
0.0
  0
SPLINE
  5
3a3
100
AcDbEntity
  8
Layer_1
 62
1
100
AcDbSpline
 70
8
 71
3
 72
8
 73
4
 74
0
 40
0
 40
0
 40
0
 40
0
 40
1
 40
1
 40
1
 40
1
 10
260.157389
 20
249.902068
 30
0.0
 10
259.691187
 20
250.368269
 30
0.0
 10
259.429278
 20
251.000574
 30
0.0
 10
259.429278
 20
251.659882
 30
0.0
  0
SPLINE
  5
3a4
100
AcDbEntity
  8
Layer_1
 62
1
100
AcDbSpline
 70
8
 71
3
 72
8
 73
4
 74
0
 40
0
 40
0
 40
0
 40
0
 40
1
 40
1
 40
1
 40
1
 10
259.429278
 20
251.659882
 30
0.0
 10
259.429279
 20
253.032819
 30
0.0
 10
260.542265
 20
254.145804
 30
0.0
 10
261.915202
 20
254.145803
 30
0.0
  0
SPLINE
  5
3a5
100
AcDbEntity
  8
Layer_1
 62
1
100
AcDbSpline
 70
8
 71
3
 72
8
 73
4
 74
0
 40
0
 40
0
 40
0
 40
0
 40
1
 40
1
 40
1
 40
1
 10
261.915202
 20
254.145803
 30
0.0
 10
263.288137
 20
254.145802
 30
0.0
 10
264.401121
 20
253.032818
 30
0.0
 10
264.401122
 20
251.659882
 30
0.0
  0
SPLINE
  5
3a6
100
AcDbEntity
  8
Layer_1
 62
1
100
AcDbSpline
 70
8
 71
3
 72
8
 73
4
 74
0
 40
0
 40
0
 40
0
 40
0
 40
1
 40
1
 40
1
 40
1
 10
264.401122
 20
251.659882
 30
0.0
 10
264.401123
 20
250.286947
 30
0.0
 10
263.288140
 20
249.173962
 30
0.0
 10
261.915204
 20
249.173959
 30
0.0
  0
LINE
  5
3a7
100
AcDbEntity
  8
Layer_1
 62
1
100
AcDbLine
 10
261.915204
 20
249.173959
 30
0.0
 11
261.915204
 21
249.173959
 31
0.0
  0
SPLINE
  5
3a8
100
AcDbEntity
  8
Layer_1
 62
1
100
AcDbSpline
 70
8
 71
3
 72
8
 73
4
 74
0
 40
0
 40
0
 40
0
 40
0
 40
1
 40
1
 40
1
 40
1
 10
261.915204
 20
220.793012
 30
0.0
 10
261.255896
 20
220.793011
 30
0.0
 10
260.623591
 20
221.054920
 30
0.0
 10
260.157389
 20
221.521121
 30
0.0
  0
SPLINE
  5
3a9
100
AcDbEntity
  8
Layer_1
 62
1
100
AcDbSpline
 70
8
 71
3
 72
8
 73
4
 74
0
 40
0
 40
0
 40
0
 40
0
 40
1
 40
1
 40
1
 40
1
 10
260.157389
 20
221.521121
 30
0.0
 10
259.691187
 20
221.987322
 30
0.0
 10
259.429278
 20
222.619627
 30
0.0
 10
259.429278
 20
223.278936
 30
0.0
  0
SPLINE
  5
3aa
100
AcDbEntity
  8
Layer_1
 62
1
100
AcDbSpline
 70
8
 71
3
 72
8
 73
4
 74
0
 40
0
 40
0
 40
0
 40
0
 40
1
 40
1
 40
1
 40
1
 10
259.429278
 20
223.278936
 30
0.0
 10
259.429279
 20
224.651872
 30
0.0
 10
260.542265
 20
225.764857
 30
0.0
 10
261.915202
 20
225.764856
 30
0.0
  0
SPLINE
  5
3ab
100
AcDbEntity
  8
Layer_1
 62
1
100
AcDbSpline
 70
8
 71
3
 72
8
 73
4
 74
0
 40
0
 40
0
 40
0
 40
0
 40
1
 40
1
 40
1
 40
1
 10
261.915202
 20
225.764856
 30
0.0
 10
263.288137
 20
225.764855
 30
0.0
 10
264.401121
 20
224.651871
 30
0.0
 10
264.401122
 20
223.278936
 30
0.0
  0
SPLINE
  5
3ac
100
AcDbEntity
  8
Layer_1
 62
1
100
AcDbSpline
 70
8
 71
3
 72
8
 73
4
 74
0
 40
0
 40
0
 40
0
 40
0
 40
1
 40
1
 40
1
 40
1
 10
264.401122
 20
223.278936
 30
0.0
 10
264.401123
 20
221.906000
 30
0.0
 10
263.288140
 20
220.793015
 30
0.0
 10
261.915204
 20
220.793012
 30
0.0
  0
LINE
  5
3ad
100
AcDbEntity
  8
Layer_1
 62
1
100
AcDbLine
 10
261.915204
 20
220.793012
 30
0.0
 11
261.915204
 21
220.793012
 31
0.0
  0
SPLINE
  5
3ae
100
AcDbEntity
  8
Layer_1
 62
1
100
AcDbSpline
 70
8
 71
3
 72
8
 73
4
 74
0
 40
0
 40
0
 40
0
 40
0
 40
1
 40
1
 40
1
 40
1
 10
287.040715
 20
282.339668
 30
0.0
 10
286.267301
 20
282.339675
 30
0.0
 10
285.640328
 20
282.966654
 30
0.0
 10
285.640328
 20
283.740068
 30
0.0
  0
SPLINE
  5
3af
100
AcDbEntity
  8
Layer_1
 62
1
100
AcDbSpline
 70
8
 71
3
 72
8
 73
4
 74
0
 40
0
 40
0
 40
0
 40
0
 40
1
 40
1
 40
1
 40
1
 10
285.640328
 20
283.740068
 30
0.0
 10
285.640330
 20
284.513482
 30
0.0
 10
286.267302
 20
285.140459
 30
0.0
 10
287.040715
 20
285.140466
 30
0.0
  0
SPLINE
  5
3b0
100
AcDbEntity
  8
Layer_1
 62
1
100
AcDbSpline
 70
8
 71
3
 72
8
 73
4
 74
0
 40
0
 40
0
 40
0
 40
0
 40
1
 40
1
 40
1
 40
1
 10
287.040715
 20
285.140466
 30
0.0
 10
287.412126
 20
285.140470
 30
0.0
 10
287.768327
 20
284.992930
 30
0.0
 10
288.030956
 20
284.730304
 30
0.0
  0
SPLINE
  5
3b1
100
AcDbEntity
  8
Layer_1
 62
1
100
AcDbSpline
 70
8
 71
3
 72
8
 73
4
 74
0
 40
0
 40
0
 40
0
 40
0
 40
1
 40
1
 40
1
 40
1
 10
288.030956
 20
284.730304
 30
0.0
 10
288.293585
 20
284.467679
 30
0.0
 10
288.441129
 20
284.111480
 30
0.0
 10
288.441130
 20
283.740068
 30
0.0
  0
SPLINE
  5
3b2
100
AcDbEntity
  8
Layer_1
 62
1
100
AcDbSpline
 70
8
 71
3
 72
8
 73
4
 74
0
 40
0
 40
0
 40
0
 40
0
 40
1
 40
1
 40
1
 40
1
 10
288.441130
 20
283.740068
 30
0.0
 10
288.441130
 20
283.368657
 30
0.0
 10
288.293586
 20
283.012457
 30
0.0
 10
288.030957
 20
282.749830
 30
0.0
  0
SPLINE
  5
3b3
100
AcDbEntity
  8
Layer_1
 62
1
100
AcDbSpline
 70
8
 71
3
 72
8
 73
4
 74
0
 40
0
 40
0
 40
0
 40
0
 40
1
 40
1
 40
1
 40
1
 10
288.030957
 20
282.749830
 30
0.0
 10
287.768328
 20
282.487204
 30
0.0
 10
287.412127
 20
282.339664
 30
0.0
 10
287.040715
 20
282.339668
 30
0.0
  0
LINE
  5
3b4
100
AcDbEntity
  8
Layer_1
 62
1
100
AcDbLine
 10
287.040715
 20
282.339668
 30
0.0
 11
287.040715
 21
282.339668
 31
0.0
  0
SPLINE
  5
3b5
100
AcDbEntity
  8
Layer_1
 62
1
100
AcDbSpline
 70
8
 71
3
 72
8
 73
4
 74
0
 40
0
 40
0
 40
0
 40
0
 40
1
 40
1
 40
1
 40
1
 10
263.903937
 20
282.339668
 30
0.0
 10
263.130524
 20
282.339677
 30
0.0
 10
262.503553
 20
282.966655
 30
0.0
 10
262.503553
 20
283.740068
 30
0.0
  0
SPLINE
  5
3b6
100
AcDbEntity
  8
Layer_1
 62
1
100
AcDbSpline
 70
8
 71
3
 72
8
 73
4
 74
0
 40
0
 40
0
 40
0
 40
0
 40
1
 40
1
 40
1
 40
1
 10
262.503553
 20
283.740068
 30
0.0
 10
262.503555
 20
284.513481
 30
0.0
 10
263.130525
 20
285.140457
 30
0.0
 10
263.903937
 20
285.140466
 30
0.0
  0
SPLINE
  5
3b7
100
AcDbEntity
  8
Layer_1
 62
1
100
AcDbSpline
 70
8
 71
3
 72
8
 73
4
 74
0
 40
0
 40
0
 40
0
 40
0
 40
1
 40
1
 40
1
 40
1
 10
263.903937
 20
285.140466
 30
0.0
 10
264.275348
 20
285.140469
 30
0.0
 10
264.631548
 20
284.992929
 30
0.0
 10
264.894176
 20
284.730303
 30
0.0
  0
SPLINE
  5
3b8
100
AcDbEntity
  8
Layer_1
 62
1
100
AcDbSpline
 70
8
 71
3
 72
8
 73
4
 74
0
 40
0
 40
0
 40
0
 40
0
 40
1
 40
1
 40
1
 40
1
 10
264.894176
 20
284.730303
 30
0.0
 10
265.156805
 20
284.467678
 30
0.0
 10
265.304348
 20
284.111479
 30
0.0
 10
265.304349
 20
283.740068
 30
0.0
  0
SPLINE
  5
3b9
100
AcDbEntity
  8
Layer_1
 62
1
100
AcDbSpline
 70
8
 71
3
 72
8
 73
4
 74
0
 40
0
 40
0
 40
0
 40
0
 40
1
 40
1
 40
1
 40
1
 10
265.304349
 20
283.740068
 30
0.0
 10
265.304349
 20
283.368657
 30
0.0
 10
265.156806
 20
283.012458
 30
0.0
 10
264.894177
 20
282.749831
 30
0.0
  0
SPLINE
  5
3ba
100
AcDbEntity
  8
Layer_1
 62
1
100
AcDbSpline
 70
8
 71
3
 72
8
 73
4
 74
0
 40
0
 40
0
 40
0
 40
0
 40
1
 40
1
 40
1
 40
1
 10
264.894177
 20
282.749831
 30
0.0
 10
264.631549
 20
282.487205
 30
0.0
 10
264.275348
 20
282.339665
 30
0.0
 10
263.903937
 20
282.339668
 30
0.0
  0
LINE
  5
3bb
100
AcDbEntity
  8
Layer_1
 62
1
100
AcDbLine
 10
263.903937
 20
282.339668
 30
0.0
 11
263.903937
 21
282.339668
 31
0.0
  0
SPLINE
  5
3bc
100
AcDbEntity
  8
Layer_1
 62
1
100
AcDbSpline
 70
8
 71
3
 72
8
 73
4
 74
0
 40
0
 40
0
 40
0
 40
0
 40
1
 40
1
 40
1
 40
1
 10
287.081807
 20
191.949184
 30
0.0
 10
286.308392
 20
191.949177
 30
0.0
 10
285.681420
 20
191.322198
 30
0.0
 10
285.681420
 20
190.548784
 30
0.0
  0
SPLINE
  5
3bd
100
AcDbEntity
  8
Layer_1
 62
1
100
AcDbSpline
 70
8
 71
3
 72
8
 73
4
 74
0
 40
0
 40
0
 40
0
 40
0
 40
1
 40
1
 40
1
 40
1
 10
285.681420
 20
190.548784
 30
0.0
 10
285.681421
 20
189.775370
 30
0.0
 10
286.308393
 20
189.148393
 30
0.0
 10
287.081807
 20
189.148386
 30
0.0
  0
SPLINE
  5
3be
100
AcDbEntity
  8
Layer_1
 62
1
100
AcDbSpline
 70
8
 71
3
 72
8
 73
4
 74
0
 40
0
 40
0
 40
0
 40
0
 40
1
 40
1
 40
1
 40
1
 10
287.081807
 20
189.148386
 30
0.0
 10
287.453218
 20
189.148382
 30
0.0
 10
287.809419
 20
189.295922
 30
0.0
 10
288.072048
 20
189.558547
 30
0.0
  0
SPLINE
  5
3bf
100
AcDbEntity
  8
Layer_1
 62
1
100
AcDbSpline
 70
8
 71
3
 72
8
 73
4
 74
0
 40
0
 40
0
 40
0
 40
0
 40
1
 40
1
 40
1
 40
1
 10
288.072048
 20
189.558547
 30
0.0
 10
288.334677
 20
189.821173
 30
0.0
 10
288.482221
 20
190.177372
 30
0.0
 10
288.482222
 20
190.548784
 30
0.0
  0
SPLINE
  5
3c0
100
AcDbEntity
  8
Layer_1
 62
1
100
AcDbSpline
 70
8
 71
3
 72
8
 73
4
 74
0
 40
0
 40
0
 40
0
 40
0
 40
1
 40
1
 40
1
 40
1
 10
288.482222
 20
190.548784
 30
0.0
 10
288.482222
 20
190.920195
 30
0.0
 10
288.334678
 20
191.276395
 30
0.0
 10
288.072049
 20
191.539021
 30
0.0
  0
SPLINE
  5
3c1
100
AcDbEntity
  8
Layer_1
 62
1
100
AcDbSpline
 70
8
 71
3
 72
8
 73
4
 74
0
 40
0
 40
0
 40
0
 40
0
 40
1
 40
1
 40
1
 40
1
 10
288.072049
 20
191.539021
 30
0.0
 10
287.809420
 20
191.801648
 30
0.0
 10
287.453219
 20
191.949188
 30
0.0
 10
287.081807
 20
191.949184
 30
0.0
  0
LINE
  5
3c2
100
AcDbEntity
  8
Layer_1
 62
1
100
AcDbLine
 10
287.081807
 20
191.949184
 30
0.0
 11
287.081807
 21
191.949184
 31
0.0
  0
SPLINE
  5
3c3
100
AcDbEntity
  8
Layer_1
 62
1
100
AcDbSpline
 70
8
 71
3
 72
8
 73
4
 74
0
 40
0
 40
0
 40
0
 40
0
 40
1
 40
1
 40
1
 40
1
 10
263.945029
 20
191.949184
 30
0.0
 10
263.171615
 20
191.949175
 30
0.0
 10
262.544645
 20
191.322197
 30
0.0
 10
262.544645
 20
190.548784
 30
0.0
  0
SPLINE
  5
3c4
100
AcDbEntity
  8
Layer_1
 62
1
100
AcDbSpline
 70
8
 71
3
 72
8
 73
4
 74
0
 40
0
 40
0
 40
0
 40
0
 40
1
 40
1
 40
1
 40
1
 10
262.544645
 20
190.548784
 30
0.0
 10
262.544646
 20
189.775371
 30
0.0
 10
263.171616
 20
189.148395
 30
0.0
 10
263.945029
 20
189.148386
 30
0.0
  0
SPLINE
  5
3c5
100
AcDbEntity
  8
Layer_1
 62
1
100
AcDbSpline
 70
8
 71
3
 72
8
 73
4
 74
0
 40
0
 40
0
 40
0
 40
0
 40
1
 40
1
 40
1
 40
1
 10
263.945029
 20
189.148386
 30
0.0
 10
264.316439
 20
189.148383
 30
0.0
 10
264.672639
 20
189.295923
 30
0.0
 10
264.935268
 20
189.558548
 30
0.0
  0
SPLINE
  5
3c6
100
AcDbEntity
  8
Layer_1
 62
1
100
AcDbSpline
 70
8
 71
3
 72
8
 73
4
 74
0
 40
0
 40
0
 40
0
 40
0
 40
1
 40
1
 40
1
 40
1
 10
264.935268
 20
189.558548
 30
0.0
 10
265.197896
 20
189.821174
 30
0.0
 10
265.345440
 20
190.177373
 30
0.0
 10
265.345441
 20
190.548784
 30
0.0
  0
SPLINE
  5
3c7
100
AcDbEntity
  8
Layer_1
 62
1
100
AcDbSpline
 70
8
 71
3
 72
8
 73
4
 74
0
 40
0
 40
0
 40
0
 40
0
 40
1
 40
1
 40
1
 40
1
 10
265.345441
 20
190.548784
 30
0.0
 10
265.345441
 20
190.920195
 30
0.0
 10
265.197897
 20
191.276394
 30
0.0
 10
264.935269
 20
191.539020
 30
0.0
  0
SPLINE
  5
3c8
100
AcDbEntity
  8
Layer_1
 62
1
100
AcDbSpline
 70
8
 71
3
 72
8
 73
4
 74
0
 40
0
 40
0
 40
0
 40
0
 40
1
 40
1
 40
1
 40
1
 10
264.935269
 20
191.539020
 30
0.0
 10
264.672640
 20
191.801647
 30
0.0
 10
264.316440
 20
191.949187
 30
0.0
 10
263.945029
 20
191.949184
 30
0.0
  0
LINE
  5
3c9
100
AcDbEntity
  8
Layer_1
 62
1
100
AcDbLine
 10
263.945029
 20
191.949184
 30
0.0
 11
263.945029
 21
191.949184
 31
0.0
  0
ENDSEC
  0
SECTION
  2
OBJECTS
  0
DICTIONARY
  5
C
330
0
100
AcDbDictionary
  3
ACAD_GROUP
350
D
  3
ACAD_MLINESTYLE
350
17
  0
DICTIONARY
  5
D
330
C
100
AcDbDictionary
  0
DICTIONARY
  5
1A
330
C
100
AcDbDictionary
  0
DICTIONARY
  5
17
330
C
100
AcDbDictionary
  3
STANDARD
350
18
  0
DICTIONARY
  5
19
330
C
100
AcDbDictionary
  0
ENDSEC
  0
EOF
