<?xml version="1.0" encoding="UTF-8" standalone="no"?>
<!-- Created with Inkscape (http://www.inkscape.org/) -->

<svg
   xmlns:dc="http://purl.org/dc/elements/1.1/"
   xmlns:cc="http://creativecommons.org/ns#"
   xmlns:rdf="http://www.w3.org/1999/02/22-rdf-syntax-ns#"
   xmlns:svg="http://www.w3.org/2000/svg"
   xmlns="http://www.w3.org/2000/svg"
   xmlns:sodipodi="http://sodipodi.sourceforge.net/DTD/sodipodi-0.dtd"
   xmlns:inkscape="http://www.inkscape.org/namespaces/inkscape"
   width="300mm"
   height="300mm"
   viewBox="0 0 1062.9921 1062.9921"
   id="svg5086"
   version="1.1"
   inkscape:version="0.91 r13725"
   sodipodi:docname="chassis.svg">
  <defs
     id="defs5088">
    <marker
       style="overflow:visible"
       refY="0.0"
       refX="0.0"
       orient="auto"
       id="DistanceX">
      <path
         id="path6407"
         style="stroke:#000000; stroke-width:0.5"
         d="M 3,-3 L -3,3 M 0,-5 L  0,5" />
    </marker>
    <pattern
       y="0"
       x="0"
       width="8"
       patternUnits="userSpaceOnUse"
       id="Hatch"
       height="8">
      <path
         id="path6410"
         stroke-width="0.25"
         stroke="#000000"
         linecap="square"
         d="M8 4 l-4,4" />
      <path
         id="path6412"
         stroke-width="0.25"
         stroke="#000000"
         linecap="square"
         d="M6 2 l-4,4" />
      <path
         id="path6414"
         stroke-width="0.25"
         stroke="#000000"
         linecap="square"
         d="M4 0 l-4,4" />
    </pattern>
    <marker
       style="overflow:visible"
       refY="0.0"
       refX="0.0"
       orient="auto"
       id="DistanceX-2">
      <path
         id="path7163"
         style="stroke:#000000; stroke-width:0.5"
         d="M 3,-3 L -3,3 M 0,-5 L  0,5" />
    </marker>
    <pattern
       y="0"
       x="0"
       width="8"
       patternUnits="userSpaceOnUse"
       id="Hatch-7"
       height="8">
      <path
         id="path7166"
         stroke-width="0.25"
         stroke="#000000"
         linecap="square"
         d="M8 4 l-4,4" />
      <path
         id="path7168"
         stroke-width="0.25"
         stroke="#000000"
         linecap="square"
         d="M6 2 l-4,4" />
      <path
         id="path7170"
         stroke-width="0.25"
         stroke="#000000"
         linecap="square"
         d="M4 0 l-4,4" />
    </pattern>
    <marker
       style="overflow:visible"
       refY="0.0"
       refX="0.0"
       orient="auto"
       id="DistanceX-22">
      <path
         id="path7576"
         style="stroke:#000000; stroke-width:0.5"
         d="M 3,-3 L -3,3 M 0,-5 L  0,5" />
    </marker>
    <pattern
       y="0"
       x="0"
       width="8"
       patternUnits="userSpaceOnUse"
       id="Hatch-6"
       height="8">
      <path
         id="path7579"
         stroke-width="0.25"
         stroke="#000000"
         linecap="square"
         d="M8 4 l-4,4" />
      <path
         id="path7581"
         stroke-width="0.25"
         stroke="#000000"
         linecap="square"
         d="M6 2 l-4,4" />
      <path
         id="path7583"
         stroke-width="0.25"
         stroke="#000000"
         linecap="square"
         d="M4 0 l-4,4" />
    </pattern>
    <marker
       style="overflow:visible"
       refY="0.0"
       refX="0.0"
       orient="auto"
       id="DistanceX-1">
      <path
         id="path8082"
         style="stroke:#000000; stroke-width:0.5"
         d="M 3,-3 L -3,3 M 0,-5 L  0,5" />
    </marker>
    <pattern
       y="0"
       x="0"
       width="8"
       patternUnits="userSpaceOnUse"
       id="Hatch-0"
       height="8">
      <path
         id="path8085"
         stroke-width="0.25"
         stroke="#000000"
         linecap="square"
         d="M8 4 l-4,4" />
      <path
         id="path8087"
         stroke-width="0.25"
         stroke="#000000"
         linecap="square"
         d="M6 2 l-4,4" />
      <path
         id="path8089"
         stroke-width="0.25"
         stroke="#000000"
         linecap="square"
         d="M4 0 l-4,4" />
    </pattern>
  </defs>
  <sodipodi:namedview
     id="base"
     pagecolor="#ffffff"
     bordercolor="#666666"
     borderopacity="1.0"
     inkscape:pageopacity="0.0"
     inkscape:pageshadow="2"
     inkscape:zoom="0.48165926"
     inkscape:cx="543.99764"
     inkscape:cy="553.76918"
     inkscape:document-units="mm"
     inkscape:current-layer="layer1"
     showgrid="false"
     inkscape:window-width="1366"
     inkscape:window-height="681"
     inkscape:window-x="0"
     inkscape:window-y="24"
     inkscape:window-maximized="1" />
  <metadata
     id="metadata5091">
    <rdf:RDF>
      <cc:Work
         rdf:about="">
        <dc:format>image/svg+xml</dc:format>
        <dc:type
           rdf:resource="http://purl.org/dc/dcmitype/StillImage" />
        <dc:title />
      </cc:Work>
    </rdf:RDF>
  </metadata>
  <g
     inkscape:label="Layer 1"
     inkscape:groupmode="layer"
     id="layer1"
     transform="translate(0,10.629921)">
    <path
       style="fill:none;fill-opacity:1;stroke:#00ff00;stroke-width:0.70866144;stroke-miterlimit:4;stroke-dasharray:none;stroke-opacity:1"
       d="m 235.51285,574.79457 -2.6601,10.7109 -0.033,0.4453 a 212.17741,212.17741 0 0 0 -16.5118,1.1993 l -0.08,-0.336 -4.3028,-10.1621 -11.2148,1.7754 -0.9512,10.9941 0.018,0.2286 a 212.17741,212.17741 0 0 0 -16.082,4.0273 l -0.1504,-0.3633 -5.8379,-9.3633 -10.8008,3.5098 0.7812,11.0078 0.1075,0.4434 a 212.17741,212.17741 0 0 0 -15.293,6.2988 l -0.2207,-0.3613 -7.2324,-8.336 -10.1172,5.1563 2.4922,10.75 0.1113,0.2695 a 212.17741,212.17741 0 0 0 -14.1387,8.668 l -0.1914,-0.2246 -8.4472,-7.1016 -9.1856,6.6738 4.1426,10.2286 0.2226,0.3613 a 212.17741,212.17741 0 0 0 -12.5566,10.7656 l -0.3457,-0.2969 -9.4531,-5.6933 -8.0293,8.0293 5.6914,9.4551 0.2539,0.2968 a 212.17741,212.17741 0 0 0 -10.8926,12.5 l -0.1894,-0.1172 -10.2286,-4.1425 -6.6738,9.1855 7.0996,8.4473 0.2657,0.2265 a 212.17741,212.17741 0 0 0 -8.5645,14.1621 l -0.4141,-0.1718 -10.75,-2.4922 -5.1543,10.1172 8.334,7.2324 0.3809,0.2324 a 212.17741,212.17741 0 0 0 -6.4278,15.2559 l -0.3339,-0.082 -11.0079,-0.7793 -3.5078,10.7989 9.3633,5.8398 0.2149,0.088 a 212.17741,212.17741 0 0 0 -3.7129,16.1563 l -0.3946,-0.031 -10.9941,0.9531 -1.77734,11.2149 10.16214,4.3027 0.4453,0.1055 a 212.17741,212.17741 0 0 0 -1.4297,16.4922 l -0.3242,0.025 -10.70901,2.6601 0,11.3555 10.70901,2.6601 0.4472,0.035 a 212.17741,212.17741 0 0 0 1.1993,16.5078 l -0.3379,0.08 -10.16214,4.3027 1.77734,11.2149 10.9941,0.9531 0.2266,-0.018 a 212.17741,212.17741 0 0 0 4.0293,16.0801 l -0.3633,0.1504 -9.3633,5.8398 3.5078,10.7989 11.0079,-0.7793 0.4433,-0.1075 a 212.17741,212.17741 0 0 0 6.2988,15.293 l -0.3613,0.2207 -8.334,7.2324 5.1543,10.1172 10.75,-2.4922 0.2715,-0.1133 a 212.17741,212.17741 0 0 0 8.668,14.1368 l -0.2266,0.1933 -7.0996,8.4473 6.6738,9.1855 10.2286,-4.1425 0.3593,-0.2207 a 212.17741,212.17741 0 0 0 10.7657,12.5546 l -0.2969,0.3457 -5.6914,9.4551 8.0293,8.0293 9.4531,-5.6933 0.2969,-0.2539 a 212.17741,212.17741 0 0 0 12.5,10.8945 l -0.1172,0.1894 -4.1426,10.2286 9.1856,6.67381 8.4472,-7.10161 0.2266,-0.2656 a 212.17741,212.17741 0 0 0 14.164,8.56641 l -0.1718,0.4121 -2.4922,10.75 10.1172,5.1563 7.2324,-8.336 0.2324,-0.3789 a 212.17741,212.17741 0 0 0 15.2539,6.4278 l -0.08,0.332 -0.7812,11.00782 10.8008,3.5098 5.8379,-9.3633 0.088,-0.2149 a 212.17741,212.17741 0 0 0 16.1582,3.7129 l -0.031,0.3946 0.9512,10.9941 11.2148,1.7754 4.3028,-10.1621 0.1054,-0.4434 a 212.17741,212.17741 0 0 0 16.4942,1.4297 l 0.025,0.3223 2.6601,10.709 11.3535,0 2.6602,-10.709 0.033,-0.4453 a 212.17741,212.17741 0 0 0 16.5117,-1.1993 l 0.08,0.336 4.3027,10.1621 11.2149,-1.7754 0.9511,-10.9941 -0.017,-0.2266 a 212.17741,212.17741 0 0 0 16.082,-4.0293 l 0.1504,0.3633 5.8398,9.3633 10.7989,-3.5098 -0.7813,-11.00782 -0.1074,-0.4414 a 212.17741,212.17741 0 0 0 15.2949,-6.2989 l 0.2188,0.3594 7.2324,8.336 10.1172,-5.1563 -2.4922,-10.75 -0.1133,-0.2715 a 212.17741,212.17741 0 0 0 14.1387,-8.66791 l 0.1933,0.2265 8.4473,7.10161 9.1855,-6.67381 -4.1425,-10.2286 -0.2227,-0.3613 a 212.17741,212.17741 0 0 0 12.5566,-10.7656 l 0.3457,0.2969 9.4532,5.6933 8.0293,-8.0293 -5.6914,-9.4551 -0.2539,-0.2968 a 212.17741,212.17741 0 0 0 10.8945,-12.5 l 0.1894,0.1172 10.2266,4.1425 6.6738,-9.1855 -7.0996,-8.4473 -0.2656,-0.2265 a 212.17741,212.17741 0 0 0 8.5644,-14.1621 l 0.4141,0.1718 10.74995,2.4922 5.1543,-10.1172 -8.334,-7.2324 -0.38075,-0.2324 a 212.17741,212.17741 0 0 0 6.42765,-15.2539 l 0.334,0.08 11.0078,0.7793 3.5078,-10.7989 -9.3633,-5.8398 -0.2148,-0.088 a 212.17741,212.17741 0 0 0 3.7129,-16.1563 l 0.3945,0.031 10.9941,-0.9531 1.7774,-11.2149 -10.1621,-4.3027 -0.4453,-0.1055 a 212.17741,212.17741 0 0 0 1.4297,-16.4922 l 0.3242,-0.025 10.709,-2.6601 0,-11.3555 -10.709,-2.6601 -0.4473,-0.035 a 212.17741,212.17741 0 0 0 -1.1992,-16.5078 l 0.3379,-0.08 10.1621,-4.3027 -1.7774,-11.2149 -10.9941,-0.9531 -0.2266,0.018 a 212.17741,212.17741 0 0 0 -4.0293,-16.0801 l 0.3633,-0.1504 9.3633,-5.8398 -3.5078,-10.7989 -11.0078,0.7793 -0.4434,0.1075 a 212.17741,212.17741 0 0 0 -6.29875,-15.293 l 0.36125,-0.2207 8.334,-7.2324 -5.1543,-10.1172 -10.74995,2.4922 -0.2715,0.1133 a 212.17741,212.17741 0 0 0 -8.6679,-14.1368 l 0.2265,-0.1933 7.0996,-8.4473 -6.6738,-9.1855 -10.2266,4.1425 -0.3613,0.2227 a 212.17741,212.17741 0 0 0 -10.7656,-12.5566 l 0.2969,-0.3457 5.6914,-9.4551 -8.0293,-8.0293 -9.4532,5.6933 -0.2968,0.2539 a 212.17741,212.17741 0 0 0 -12.5,-10.8945 l 0.1172,-0.1894 4.1425,-10.2286 -9.1855,-6.6738 -8.4473,7.1016 -0.2265,0.2656 a 212.17741,212.17741 0 0 0 -14.1641,-8.5664 l 0.1719,-0.4121 2.4922,-10.75 -10.1172,-5.1563 -7.2324,8.336 -0.2325,0.3789 a 212.17741,212.17741 0 0 0 -15.2539,-6.4278 l 0.08,-0.332 0.7813,-11.0078 -10.7989,-3.5098 -5.8398,9.3633 -0.088,0.2149 a 212.17741,212.17741 0 0 0 -16.1582,-3.7129 l 0.031,-0.3946 -0.9511,-10.9941 -11.2149,-1.7754 -4.3027,10.1621 -0.1055,0.4434 a 212.17741,212.17741 0 0 0 -16.4941,-1.4297 l -0.025,-0.3223 -2.6602,-10.7109 -11.3535,0 z"
       id="path4136-6-4-8-6" />
    <path
       style="fill:none;fill-opacity:1;stroke:#0000ff;stroke-width:0.70866144;stroke-miterlimit:4;stroke-dasharray:none;stroke-opacity:1"
       d="m 241.18865,622.80732 c 24.3571,0.0413 48.43703,5.16972 70.6973,15.0566 l -54.9004,126.6953 -0.5059,0.2754 -92.0937,-124.1309 c 23.90466,-11.7345 50.17322,-17.85555 76.8027,-17.8964 z"
       id="path9226-7" />
    <path
       style="fill:none;fill-opacity:1;stroke:#0000ff;stroke-width:0.70866144;stroke-miterlimit:4;stroke-dasharray:none;stroke-opacity:1"
       d="m 338.31555,652.35802 a 174.89997,174.89997 0 0 1 76.6465,127.293 l -136.6601,15.7422 a 37.300922,37.300922 0 0 0 -0.4746,-3.4473 l 60.4882,-139.5879 z"
       id="path9224-5" />
    <path
       style="fill:none;fill-opacity:1;stroke:#0000ff;stroke-width:0.70866144;stroke-miterlimit:4;stroke-dasharray:none;stroke-opacity:1"
       d="m 138.60075,656.31902 81.84765,111.56494 c 2.42882,-0.24184 -153.55275,17.72796 -153.55275,17.72796 3.61576,-51.57785 29.8674,-98.91272 71.7051,-129.2929 z"
       id="path9222-3" />
    <path
       style="fill:none;fill-opacity:1;stroke:#0000ff;stroke-width:0.70866144;stroke-miterlimit:4;stroke-dasharray:none;stroke-opacity:1"
       d="m 203.93085,800.03582 a 37.300922,37.300922 0 0 0 0.1387,2.1504 l -60.8262,140.3711 a 174.89997,174.89997 0 0 1 -75.8262,-126.793 l 136.5137,-15.7285 z"
       id="path9220-5" />
    <path
       style="fill:none;fill-opacity:1;stroke:#0000ff;stroke-width:0.70866144;stroke-miterlimit:4;stroke-dasharray:none;stroke-opacity:1"
       d="m 415.48355,809.80142 a 174.89997,174.89997 0 0 1 -72.582,129.9219 l -81.3555,-109.6582 a 37.300922,37.300922 0 0 0 3.916,-2.9785 l 150.0215,-17.2852 z"
       id="path9218-6" />
    <path
       style="fill:none;fill-opacity:1;stroke:#0000ff;stroke-width:0.70866144;stroke-miterlimit:4;stroke-dasharray:none;stroke-opacity:1"
       d="m 223.92105,831.85222 a 37.300922,37.300922 0 0 0 2.4649,1.1914 l 90.5996,122.1191 a 174.89997,174.89997 0 0 1 -75.7969,17.4453 174.89997,174.89997 0 0 1 -71.5527,-15.4707 l 54.2851,-125.2851 z"
       id="path4136-6-4-8-5-2" />
    <path
       style="fill:none;fill-opacity:1;stroke:#00ff00;stroke-width:0.6585632;stroke-miterlimit:4;stroke-dasharray:none;stroke-opacity:1"
       d="M 530.40883,298.98361 724.07613,493.35629 497.23603,719.37318 303.56873,525.00051 Z"
       id="rect4384-0-3-8-2" />
    <path
       style="fill:none;fill-opacity:1;stroke:#ff0000;stroke-width:0.98218524;stroke-miterlimit:4;stroke-dasharray:none;stroke-opacity:1"
       d="m 336.69068,529.57115 a 4.5970974,4.5970974 0 0 1 -6.50123,-0.0118 4.5970974,4.5970974 0 0 1 0.0118,-6.50123 4.5970974,4.5970974 0 0 1 6.50128,0.0118 4.5970974,4.5970974 0 0 1 -0.0118,6.50129 z"
       id="path5070-6-4-37" />
    <path
       style="fill:none;fill-opacity:1;stroke:#ff0000;stroke-width:0.70866144;stroke-miterlimit:4;stroke-dasharray:none;stroke-opacity:1"
       d="m 422.04126,516.41658 a 8.8083858,8.8083858 0 0 1 -12.45693,-0.0226 8.8083858,8.8083858 0 0 1 0.0226,-12.45691 8.8083858,8.8083858 0 0 1 12.45691,0.0226 8.8083858,8.8083858 0 0 1 -0.0226,12.45691 z"
       id="path5994-5" />
    <path
       style="fill:none;fill-opacity:1;stroke:#ff0000;stroke-width:0.70866144;stroke-miterlimit:4;stroke-dasharray:none;stroke-opacity:1"
       d="m 446.15889,540.62207 a 8.8083858,8.8083858 0 0 1 -12.45691,-0.0226 8.8083858,8.8083858 0 0 1 0.0226,-12.45693 8.8083858,8.8083858 0 0 1 12.45692,0.0227 8.8083858,8.8083858 0 0 1 -0.0226,12.4569 z"
       id="path5994-2-9" />
    <path
       style="fill:none;fill-opacity:1;stroke:#ff0000;stroke-width:0.79110533;stroke-miterlimit:4;stroke-dasharray:none;stroke-opacity:1"
       d="m 519.99098,374.51868 c 26.4405,0.048 56.03482,29.75015 55.98671,56.19063 -0.0252,13.86948 -29.47515,29.3682 -29.47515,29.3682 l -20.54442,-20.61927 c 0.35144,-1.53729 2.78674,-4.32291 5.63794,-4.89462 2.85079,-0.5713 8.9071,7.71556 11.60239,1.08176 1.40391,-3.45539 -1.87212,-14.81793 -8.99615,-21.79847 -6.55265,-6.42052 -16.79721,-8.69894 -20.00949,-7.31283 -6.70534,2.89339 2.34261,9.70672 1.76531,12.69168 -0.5766,2.98434 -2.52435,3.24569 -4.89787,5.28037 l -20.54443,-20.61926 c 0,0 15.60569,-29.39342 29.47516,-29.36819 z"
       id="rect6011-2" />
    <path
       style="fill:none;fill-opacity:1;stroke:#ff0000;stroke-width:0.70866144;stroke-miterlimit:4;stroke-dasharray:none;stroke-opacity:1"
       d="m 491.72421,586.64779 a 8.8083858,8.8083858 0 0 1 -12.45692,-0.0226 8.8083858,8.8083858 0 0 1 0.0226,-12.45691 8.8083858,8.8083858 0 0 1 12.45692,0.0226 8.8083858,8.8083858 0 0 1 -0.0226,12.45692 z"
       id="path5994-4-2" />
    <path
       style="fill:none;fill-opacity:1;stroke:#ff0000;stroke-width:0.70866144;stroke-miterlimit:4;stroke-dasharray:none;stroke-opacity:1"
       d="m 515.84185,610.85328 a 8.8083858,8.8083858 0 0 1 -12.45692,-0.0226 8.8083858,8.8083858 0 0 1 0.0226,-12.45692 8.8083858,8.8083858 0 0 1 12.45692,0.0226 8.8083858,8.8083858 0 0 1 -0.0226,12.45692 z"
       id="path5994-2-7-8" />
    <path
       style="fill:none;fill-opacity:1;stroke:#ff0000;stroke-width:0.79110533;stroke-miterlimit:4;stroke-dasharray:none;stroke-opacity:1"
       d="m 589.67404,444.74979 c 26.44047,0.048 56.03479,29.75014 55.9867,56.19064 -0.0252,13.86948 -29.47515,29.3682 -29.47515,29.3682 l -20.54443,-20.61927 c 0.35145,-1.53729 2.78675,-4.32291 5.63796,-4.89463 2.85078,-0.57128 8.90708,7.71557 11.60237,1.08176 1.38056,-3.39793 -1.67109,-14.53555 -8.64191,-21.44916 -6.63741,-6.58366 -17.09339,-9.07329 -20.36373,-7.66213 -6.70533,2.89338 2.34263,9.70672 1.76533,12.69168 -0.57672,2.98432 -2.52435,3.24567 -4.89788,5.28037 l -20.54443,-20.61927 c 0,0 15.60568,-29.39342 29.47517,-29.36819 z"
       id="rect6011-4-9" />
    <path
       style="fill:none;fill-opacity:1;stroke:#ff0000;stroke-width:0.70866144;stroke-miterlimit:4;stroke-dasharray:none;stroke-opacity:1"
       d="m 414.33385,460.04291 a 3.316875,3.316875 0 0 1 -4.69076,-0.009 3.316875,3.316875 0 0 1 0.009,-4.69075 3.316875,3.316875 0 0 1 4.69077,0.009 3.316875,3.316875 0 0 1 -0.009,4.69077 z"
       id="path5070-6-2-4-7" />
    <path
       style="fill:none;fill-opacity:1;stroke:#ff0000;stroke-width:0.70866144;stroke-miterlimit:4;stroke-dasharray:none;stroke-opacity:1"
       d="m 564.33172,610.58712 a 3.316875,3.316875 0 0 1 -4.69074,-0.009 3.316875,3.316875 0 0 1 0.009,-4.69076 3.316875,3.316875 0 0 1 4.69077,0.009 3.316875,3.316875 0 0 1 -0.009,4.69077 z"
       id="path5070-6-2-4-3-3" />
    <path
       style="fill:none;fill-opacity:1;stroke:#ff0000;stroke-width:0.70866144;stroke-miterlimit:4;stroke-dasharray:none;stroke-opacity:1"
       d="m 496.09118,378.58227 a 3.316875,3.316875 0 0 1 -4.69076,-0.009 3.316875,3.316875 0 0 1 0.009,-4.69076 3.316875,3.316875 0 0 1 4.69077,0.009 3.316875,3.316875 0 0 1 -0.009,4.69076 z"
       id="path5070-6-2-4-0-6" />
    <path
       style="fill:none;fill-opacity:1;stroke:#ff0000;stroke-width:0.70866144;stroke-miterlimit:4;stroke-dasharray:none;stroke-opacity:1"
       d="m 646.08906,529.12648 a 3.316875,3.316875 0 0 1 -4.69075,-0.009 3.316875,3.316875 0 0 1 0.009,-4.69076 3.316875,3.316875 0 0 1 4.69077,0.009 3.316875,3.316875 0 0 1 -0.009,4.69076 z"
       id="path5070-6-2-4-3-7-1" />
    <path
       style="fill:none;fill-opacity:1;stroke:#ff0000;stroke-width:0.98218524;stroke-miterlimit:4;stroke-dasharray:none;stroke-opacity:1"
       d="m 500.25771,693.73392 a 4.5970974,4.5970974 0 0 1 -6.50123,-0.0118 4.5970974,4.5970974 0 0 1 0.0118,-6.50123 4.5970974,4.5970974 0 0 1 6.50128,0.0118 4.5970974,4.5970974 0 0 1 -0.0118,6.50129 z"
       id="path5070-6-4-3" />
    <path
       style="fill:none;fill-opacity:1;stroke:#ff0000;stroke-width:0.98218524;stroke-miterlimit:4;stroke-dasharray:none;stroke-opacity:1"
       d="m 697.00922,497.69642 a 4.5970974,4.5970974 0 0 1 -6.50124,-0.0118 4.5970974,4.5970974 0 0 1 0.0118,-6.50123 4.5970974,4.5970974 0 0 1 6.50129,0.0118 4.5970974,4.5970974 0 0 1 -0.0118,6.50129 z"
       id="path5070-6-4-4" />
    <path
       style="fill:none;fill-opacity:1;stroke:#ff0000;stroke-width:0.98218524;stroke-miterlimit:4;stroke-dasharray:none;stroke-opacity:1"
       d="m 533.44219,333.53365 a 4.5970974,4.5970974 0 0 1 -6.50124,-0.0119 4.5970974,4.5970974 0 0 1 0.0118,-6.50122 4.5970974,4.5970974 0 0 1 6.50128,0.0118 4.5970974,4.5970974 0 0 1 -0.0118,6.50129 z"
       id="path5070-6-4-45" />
    <path
       style="fill:none;fill-opacity:1;stroke:#0000ff;stroke-width:1.02810729;stroke-miterlimit:4;stroke-dasharray:none;stroke-opacity:1"
       d="m 769.70818,572.33138 22.60403,0 c 130.10428,0 211.58969,94.92803 211.58969,212.84309 0,117.91507 -81.48541,212.84315 -211.58969,212.84315 l -22.60403,0 c -130.10427,0 -211.58963,-94.92808 -211.58963,-212.84315 0,-117.91506 81.48536,-212.84309 211.58963,-212.84309 z"
       id="rect4484-0-9-2" />
    <path
       style="fill:none;fill-opacity:1;stroke:#ff0000;stroke-width:0.98218524;stroke-miterlimit:4;stroke-dasharray:none;stroke-opacity:1"
       d="m 670.63742,925.31491 a 4.5970974,4.5970974 0 0 1 -4.5971,4.59705 4.5970974,4.5970974 0 0 1 -4.59708,-4.59705 4.5970974,4.5970974 0 0 1 4.59708,-4.59713 4.5970974,4.5970974 0 0 1 4.5971,4.59713 z"
       id="path5070-6-4-9" />
    <path
       style="fill:none;fill-opacity:1;stroke:#ff0000;stroke-width:0.70866144;stroke-miterlimit:4;stroke-dasharray:none;stroke-opacity:1"
       d="m 904.00123,663.35123 -247.03443,0 0,100.20567 -13.15049,0.28261 c -4.86473,0 -8.80838,3.94365 -8.80838,8.80838 l 0.29266,27.5262 c 0,4.86474 3.94364,8.80839 8.80838,8.80839 l 12.85783,0.0665 0,100.7824 247.03443,0 0.18813,-99.67482 13.04596,0.26252 c 4.86474,0 8.80838,-3.94365 8.80838,-8.80839 l 0.29266,-27.5262 c 0,-4.86473 -3.94365,-8.80838 -8.80838,-8.80838 l -13.33862,-0.18427 z"
       id="rect4386-3-3" />
    <path
       style="fill:none;fill-opacity:1;stroke:#ff0000;stroke-width:0.98218524;stroke-miterlimit:4;stroke-dasharray:none;stroke-opacity:1"
       d="m 902.37777,925.31491 a 4.5970974,4.5970974 0 0 1 -4.5971,4.59705 4.5970974,4.5970974 0 0 1 -4.59709,-4.59705 4.5970974,4.5970974 0 0 1 4.59709,-4.59713 4.5970974,4.5970974 0 0 1 4.5971,4.59713 z"
       id="path5070-6-4-3-1" />
    <path
       style="fill:none;fill-opacity:1;stroke:#ff0000;stroke-width:0.98218524;stroke-miterlimit:4;stroke-dasharray:none;stroke-opacity:1"
       d="m 902.37777,647.57069 a 4.5970974,4.5970974 0 0 1 -4.5971,4.59705 4.5970974,4.5970974 0 0 1 -4.59709,-4.59705 4.5970974,4.5970974 0 0 1 4.59709,-4.59713 4.5970974,4.5970974 0 0 1 4.5971,4.59713 z"
       id="path5070-6-4-4-9" />
    <path
       style="fill:none;fill-opacity:1;stroke:#ff0000;stroke-width:0.98218524;stroke-miterlimit:4;stroke-dasharray:none;stroke-opacity:1"
       d="m 670.63742,647.57069 a 4.5970974,4.5970974 0 0 1 -4.5971,4.59705 4.5970974,4.5970974 0 0 1 -4.59708,-4.59705 4.5970974,4.5970974 0 0 1 4.59708,-4.59713 4.5970974,4.5970974 0 0 1 4.5971,4.59713 z"
       id="path5070-6-4-45-4" />
    <path
       style="fill:none;fill-opacity:1;stroke:#ff0000;stroke-width:0.70866144;stroke-miterlimit:4;stroke-dasharray:none;stroke-opacity:1"
       d="m 583.02731,764.31459 a 3.316875,3.316875 0 0 1 -3.31687,3.31688 3.316875,3.316875 0 0 1 -3.31688,-3.31688 3.316875,3.316875 0 0 1 3.31688,-3.31687 3.316875,3.316875 0 0 1 3.31687,3.31687 z"
       id="path5070-6-6-78" />
    <path
       style="fill:none;fill-opacity:1;stroke:#ff0000;stroke-width:0.70866144;stroke-miterlimit:4;stroke-dasharray:none;stroke-opacity:1"
       d="m 583.02731,808.10635 a 3.316875,3.316875 0 0 1 -3.31687,3.31688 3.316875,3.316875 0 0 1 -3.31688,-3.31688 3.316875,3.316875 0 0 1 3.31688,-3.31687 3.316875,3.316875 0 0 1 3.31687,3.31687 z"
       id="path5070-6-3-9-4" />
    <path
       style="fill:none;fill-opacity:1;stroke:#ff0000;stroke-width:0.70866144;stroke-miterlimit:4;stroke-dasharray:none;stroke-opacity:1"
       d="m 621.07795,764.31459 a 3.316875,3.316875 0 0 1 -3.31687,3.31688 3.316875,3.316875 0 0 1 -3.31688,-3.31688 3.316875,3.316875 0 0 1 3.31688,-3.31687 3.316875,3.316875 0 0 1 3.31687,3.31687 z"
       id="path5070-6-6-7" />
    <path
       style="fill:none;fill-opacity:1;stroke:#ff0000;stroke-width:0.70866144;stroke-miterlimit:4;stroke-dasharray:none;stroke-opacity:1"
       d="m 621.07795,808.10635 a 3.316875,3.316875 0 0 1 -3.31687,3.31688 3.316875,3.316875 0 0 1 -3.31688,-3.31688 3.316875,3.316875 0 0 1 3.31688,-3.31687 3.316875,3.316875 0 0 1 3.31687,3.31687 z"
       id="path5070-6-3-9-0" />
    <path
       style="fill:none;fill-opacity:1;stroke:#ff0000;stroke-width:0.70866144;stroke-miterlimit:4;stroke-dasharray:none;stroke-opacity:1"
       d="m 980.35123,764.33154 a 3.316875,3.316875 0 0 0 3.3169,3.31688 3.316875,3.316875 0 0 0 3.3169,-3.31688 3.316875,3.316875 0 0 0 -3.3169,-3.31687 3.316875,3.316875 0 0 0 -3.3169,3.31687 z"
       id="path5070-6-6-0" />
    <path
       style="fill:none;fill-opacity:1;stroke:#ff0000;stroke-width:0.70866144;stroke-miterlimit:4;stroke-dasharray:none;stroke-opacity:1"
       d="m 980.35123,808.1233 a 3.316875,3.316875 0 0 0 3.3169,3.31688 3.316875,3.316875 0 0 0 3.3169,-3.31688 3.316875,3.316875 0 0 0 -3.3169,-3.31687 3.316875,3.316875 0 0 0 -3.3169,3.31687 z"
       id="path5070-6-3-9-6" />
    <path
       style="fill:none;fill-opacity:1;stroke:#ff0000;stroke-width:0.70866144;stroke-miterlimit:4;stroke-dasharray:none;stroke-opacity:1"
       d="m 942.30062,764.33154 a 3.316875,3.316875 0 0 0 3.31687,3.31688 3.316875,3.316875 0 0 0 3.31688,-3.31688 3.316875,3.316875 0 0 0 -3.31688,-3.31687 3.316875,3.316875 0 0 0 -3.31687,3.31687 z"
       id="path5070-6-6-7-6" />
    <path
       style="fill:none;fill-opacity:1;stroke:#ff0000;stroke-width:0.70866144;stroke-miterlimit:4;stroke-dasharray:none;stroke-opacity:1"
       d="m 942.30062,808.1233 a 3.316875,3.316875 0 0 0 3.31687,3.31688 3.316875,3.316875 0 0 0 3.31688,-3.31688 3.316875,3.316875 0 0 0 -3.31688,-3.31687 3.316875,3.316875 0 0 0 -3.31687,3.31687 z"
       id="path5070-6-3-9-0-1" />
    <path
       style="fill:none;fill-opacity:1;stroke:#0000ff;stroke-width:1.02810729;stroke-miterlimit:4;stroke-dasharray:none;stroke-opacity:1"
       d="m 235.33275,30.61563 22.60403,0 c 130.10428,0 211.58972,94.92803 211.58972,212.8431 0,117.91507 -81.48544,212.84315 -211.58972,212.84315 l -22.60403,0 c -130.10428,0 -211.58964,-94.92808 -211.58964,-212.84315 0,-117.91507 81.48536,-212.8431 211.58964,-212.8431 z"
       id="rect4484-0-9-5" />
    <path
       style="fill:none;fill-opacity:1;stroke:#ff0000;stroke-width:0.98218524;stroke-miterlimit:4;stroke-dasharray:none;stroke-opacity:1"
       d="m 136.26199,383.59917 a 4.5970974,4.5970974 0 0 1 -4.5971,4.59705 4.5970974,4.5970974 0 0 1 -4.59708,-4.59705 4.5970974,4.5970974 0 0 1 4.59708,-4.59713 4.5970974,4.5970974 0 0 1 4.5971,4.59713 z"
       id="path5070-6-4-0" />
    <path
       style="fill:none;fill-opacity:1;stroke:#ff0000;stroke-width:1.43153822;stroke-miterlimit:4;stroke-dasharray:none;stroke-opacity:1"
       d="m 129.83016,281.49664 229.08894,0 0,76.67516 -229.08894,0 z"
       id="rect4486-1-7-3" />
    <path
       style="fill:none;fill-opacity:1;stroke:#ff0000;stroke-width:0.98218524;stroke-miterlimit:4;stroke-dasharray:none;stroke-opacity:1"
       d="m 368.00234,383.59917 a 4.5970974,4.5970974 0 0 1 -4.5971,4.59705 4.5970974,4.5970974 0 0 1 -4.59709,-4.59705 4.5970974,4.5970974 0 0 1 4.59709,-4.59713 4.5970974,4.5970974 0 0 1 4.5971,4.59713 z"
       id="path5070-6-4-3-6" />
    <path
       style="fill:none;fill-opacity:1;stroke:#ff0000;stroke-width:0.98218524;stroke-miterlimit:4;stroke-dasharray:none;stroke-opacity:1"
       d="m 368.00234,105.85494 a 4.5970974,4.5970974 0 0 1 -4.5971,4.59705 4.5970974,4.5970974 0 0 1 -4.59709,-4.59705 4.5970974,4.5970974 0 0 1 4.59709,-4.59713 4.5970974,4.5970974 0 0 1 4.5971,4.59713 z"
       id="path5070-6-4-4-1" />
    <path
       style="fill:none;fill-opacity:1;stroke:#ff0000;stroke-width:0.98218524;stroke-miterlimit:4;stroke-dasharray:none;stroke-opacity:1"
       d="m 136.26199,105.85494 a 4.5970974,4.5970974 0 0 1 -4.5971,4.59705 4.5970974,4.5970974 0 0 1 -4.59708,-4.59705 4.5970974,4.5970974 0 0 1 4.59708,-4.59713 4.5970974,4.5970974 0 0 1 4.5971,4.59713 z"
       id="path5070-6-4-45-0" />
    <path
       style="fill:none;fill-opacity:1;stroke:#ff0000;stroke-width:0.70866144;stroke-miterlimit:4;stroke-dasharray:none;stroke-opacity:1"
       d="m 48.65193,222.59885 a 3.316875,3.316875 0 0 1 -3.31687,3.31688 3.316875,3.316875 0 0 1 -3.31688,-3.31688 3.316875,3.316875 0 0 1 3.31688,-3.31687 3.316875,3.316875 0 0 1 3.31687,3.31687 z"
       id="path5070-6-6-20" />
    <path
       style="fill:none;fill-opacity:1;stroke:#ff0000;stroke-width:0.70866144;stroke-miterlimit:4;stroke-dasharray:none;stroke-opacity:1"
       d="m 48.65193,266.39061 a 3.316875,3.316875 0 0 1 -3.31687,3.31688 3.316875,3.316875 0 0 1 -3.31688,-3.31688 3.316875,3.316875 0 0 1 3.31688,-3.31687 3.316875,3.316875 0 0 1 3.31687,3.31687 z"
       id="path5070-6-3-9-61" />
    <path
       style="fill:none;fill-opacity:1;stroke:#ff0000;stroke-width:0.70866144;stroke-miterlimit:4;stroke-dasharray:none;stroke-opacity:1"
       d="m 86.70257,222.59885 a 3.316875,3.316875 0 0 1 -3.31687,3.31688 3.316875,3.316875 0 0 1 -3.31688,-3.31688 3.316875,3.316875 0 0 1 3.31688,-3.31687 3.316875,3.316875 0 0 1 3.31687,3.31687 z"
       id="path5070-6-6-7-5" />
    <path
       style="fill:none;fill-opacity:1;stroke:#ff0000;stroke-width:0.70866144;stroke-miterlimit:4;stroke-dasharray:none;stroke-opacity:1"
       d="m 86.70257,266.39061 a 3.316875,3.316875 0 0 1 -3.31687,3.31688 3.316875,3.316875 0 0 1 -3.31688,-3.31688 3.316875,3.316875 0 0 1 3.31688,-3.31687 3.316875,3.316875 0 0 1 3.31687,3.31687 z"
       id="path5070-6-3-9-0-4" />
    <path
       style="fill:none;fill-opacity:1;stroke:#ff0000;stroke-width:0.70866144;stroke-miterlimit:4;stroke-dasharray:none;stroke-opacity:1"
       d="m 445.9758,222.6158 a 3.316875,3.316875 0 0 0 3.3169,3.31688 3.316875,3.316875 0 0 0 3.3169,-3.31688 3.316875,3.316875 0 0 0 -3.3169,-3.31687 3.316875,3.316875 0 0 0 -3.3169,3.31687 z"
       id="path5070-6-6-0-7" />
    <path
       style="fill:none;fill-opacity:1;stroke:#ff0000;stroke-width:0.70866144;stroke-miterlimit:4;stroke-dasharray:none;stroke-opacity:1"
       d="m 445.9758,266.40756 a 3.316875,3.316875 0 0 0 3.3169,3.31688 3.316875,3.316875 0 0 0 3.3169,-3.31688 3.316875,3.316875 0 0 0 -3.3169,-3.31687 3.316875,3.316875 0 0 0 -3.3169,3.31687 z"
       id="path5070-6-3-9-6-6" />
    <path
       style="fill:none;fill-opacity:1;stroke:#ff0000;stroke-width:0.70866144;stroke-miterlimit:4;stroke-dasharray:none;stroke-opacity:1"
       d="m 407.92519,222.6158 a 3.316875,3.316875 0 0 0 3.31687,3.31688 3.316875,3.316875 0 0 0 3.31688,-3.31688 3.316875,3.316875 0 0 0 -3.31688,-3.31687 3.316875,3.316875 0 0 0 -3.31687,3.31687 z"
       id="path5070-6-6-7-6-5" />
    <path
       style="fill:none;fill-opacity:1;stroke:#ff0000;stroke-width:0.70866144;stroke-miterlimit:4;stroke-dasharray:none;stroke-opacity:1"
       d="m 407.92519,266.40756 a 3.316875,3.316875 0 0 0 3.31687,3.31688 3.316875,3.316875 0 0 0 3.31688,-3.31688 3.316875,3.316875 0 0 0 -3.31688,-3.31687 3.316875,3.316875 0 0 0 -3.31687,3.31687 z"
       id="path5070-6-3-9-0-1-6" />
    <path
       style="fill:none;fill-opacity:1;stroke:#ff0000;stroke-width:0.74614006;stroke-miterlimit:4;stroke-dasharray:none;stroke-opacity:1"
       d="m 246.76798,797.80528 c 0.35948,2.96614 -1.75364,5.66208 -4.71979,6.02156 -2.96612,0.35947 -5.66207,-1.75367 -6.02154,-4.71979 -0.13195,-1.08877 0.0693,-2.14114 0.5235,-3.05489 l 9.13508,-0.89609 c 0.57406,0.74444 0.96144,1.64824 1.08275,2.64921 z"
       id="path9262-6-2-9" />
    <path
       style="fill:none;fill-rule:evenodd;stroke:#ff0000;stroke-width:0.70866144;stroke-linecap:butt;stroke-linejoin:miter;stroke-miterlimit:4;stroke-dasharray:none;stroke-opacity:1"
       d="m 240.98173,795.56632 -0.26927,-3.30046"
       id="path9265-1-9-1" />
    <path
       style="fill:none;fill-opacity:1;stroke:#ff0000;stroke-width:0.70866144;stroke-miterlimit:4;stroke-dasharray:none;stroke-opacity:1"
       d="m 246.81405,823.69482 a 3.316875,3.316875 0 0 1 -4.65777,0.55542 3.316875,3.316875 0 0 1 -0.55542,-4.65776 3.316875,3.316875 0 0 1 4.65778,-0.55543 3.316875,3.316875 0 0 1 0.55542,4.65778 z"
       id="path5070-6-2-4-7-3" />
    <path
       style="fill:none;fill-opacity:1;stroke:#ff0000;stroke-width:0.70866144;stroke-miterlimit:4;stroke-dasharray:none;stroke-opacity:1"
       d="m 241.20911,777.44645 a 3.316875,3.316875 0 0 1 -4.65777,0.55542 3.316875,3.316875 0 0 1 -0.55542,-4.65776 3.316875,3.316875 0 0 1 4.65778,-0.55542 3.316875,3.316875 0 0 1 0.55542,4.65778 z"
       id="path5070-6-2-4-7-7" />
    <path
       style="fill:none;fill-opacity:1;stroke:#ff0000;stroke-width:0.70866144;stroke-miterlimit:4;stroke-dasharray:none;stroke-opacity:1"
       d="m 266.58034,793.11046 a 3.316875,3.316875 0 0 1 0.55542,4.65777 3.316875,3.316875 0 0 1 -4.65776,0.55542 3.316875,3.316875 0 0 1 -0.55542,-4.65778 3.316875,3.316875 0 0 1 4.65778,-0.55542 z"
       id="path5070-6-2-4-7-3-5" />
    <path
       style="fill:none;fill-opacity:1;stroke:#ff0000;stroke-width:0.70866144;stroke-miterlimit:4;stroke-dasharray:none;stroke-opacity:1"
       d="m 220.33198,798.7154 a 3.316875,3.316875 0 0 1 0.55542,4.65777 3.316875,3.316875 0 0 1 -4.65776,0.55542 3.316875,3.316875 0 0 1 -0.55542,-4.65778 3.316875,3.316875 0 0 1 4.65778,-0.55542 z"
       id="path5070-6-2-4-7-7-2" />
    <path
       style="fill:none;fill-opacity:1;stroke:#00ff00;stroke-width:0.70866144;stroke-miterlimit:4;stroke-dasharray:none;stroke-opacity:1"
       d="m 792.94948,10.269491 -2.6601,10.7109 -0.033,0.4453 a 212.17741,212.17741 0 0 0 -16.5118,1.1993 l -0.08,-0.336 -4.3028,-10.1621 -11.2148,1.7754 -0.9512,10.9941 0.018,0.2286 a 212.17741,212.17741 0 0 0 -16.082,4.0273 l -0.1504,-0.3633 -5.8379,-9.3633 -10.8008,3.5098 0.7812,11.0078 0.1075,0.4434 a 212.17741,212.17741 0 0 0 -15.293,6.2988 l -0.2207,-0.3613 -7.2324,-8.336 -10.1172,5.1563 2.4922,10.75 0.1113,0.2695 a 212.17741,212.17741 0 0 0 -14.1387,8.668 l -0.1914,-0.2246 -8.4472,-7.1016 -9.1856,6.6738 4.1426,10.2286 0.2226,0.3613 a 212.17741,212.17741 0 0 0 -12.5566,10.7656 l -0.3457,-0.2969 -9.4531,-5.6933 -8.0293,8.0293 5.6914,9.4551 0.2539,0.2968 a 212.17741,212.17741 0 0 0 -10.8926,12.499999 l -0.1894,-0.1172 -10.2286,-4.142499 -6.6738,9.185499 7.0996,8.4473 0.2657,0.2265 a 212.17741,212.17741 0 0 0 -8.5645,14.1621 l -0.4141,-0.1718 -10.75,-2.4922 -5.1543,10.1172 8.334,7.2324 0.3809,0.2324 a 212.17741,212.17741 0 0 0 -6.4278,15.2559 l -0.3339,-0.082 -11.0079,-0.7793 -3.5078,10.7989 9.3633,5.8398 0.2149,0.088 a 212.17741,212.17741 0 0 0 -3.7129,16.1563 l -0.3946,-0.031 -10.9941,0.9531 -1.77734,11.2149 10.16214,4.3027 0.4453,0.1055 a 212.17741,212.17741 0 0 0 -1.4297,16.4922 l -0.3242,0.025 -10.70901,2.6601 0,11.3555 10.70901,2.6601 0.4472,0.035 a 212.17741,212.17741 0 0 0 1.1993,16.50781 l -0.3379,0.08 -10.16214,4.30271 1.77734,11.21489 10.9941,0.95311 0.2266,-0.018 a 212.17741,212.17741 0 0 0 4.0293,16.0801 l -0.3633,0.1504 -9.3633,5.83981 3.5078,10.7989 11.0079,-0.7793 0.4433,-0.1075 a 212.17741,212.17741 0 0 0 6.2988,15.293 l -0.3613,0.2207 -8.334,7.2324 5.1543,10.1172 10.75,-2.4922 0.2715,-0.1133 a 212.17741,212.17741 0 0 0 8.668,14.1368 l -0.2266,0.1933 -7.0996,8.4473 6.6738,9.1855 10.2286,-4.1425 0.3593,-0.2207 a 212.17741,212.17741 0 0 0 10.7657,12.5546 l -0.2969,0.3457 -5.6914,9.4551 8.0293,8.0293 9.4531,-5.6933 0.2969,-0.2539 a 212.17741,212.17741 0 0 0 12.5,10.8945 l -0.1172,0.1894 -4.1426,10.2286 9.1856,6.67381 8.4472,-7.10161 0.2266,-0.2656 a 212.17741,212.17741 0 0 0 14.164,8.56641 l -0.1718,0.4121 -2.4922,10.75 10.1172,5.1563 7.2324,-8.336 0.2324,-0.3789 a 212.17741,212.17741 0 0 0 15.2539,6.4278 l -0.08,0.332 -0.7812,11.00782 10.8008,3.5098 5.8379,-9.3633 0.088,-0.2149 a 212.17741,212.17741 0 0 0 16.1582,3.7129 l -0.031,0.3946 0.9512,10.9941 11.2148,1.7754 4.3028,-10.1621 0.1054,-0.4434 a 212.17741,212.17741 0 0 0 16.4942,1.4297 l 0.025,0.3223 2.6601,10.709 11.3535,0 2.6602,-10.709 0.033,-0.4453 a 212.17741,212.17741 0 0 0 16.5117,-1.1993 l 0.08,0.336 4.3027,10.1621 11.2149,-1.7754 0.9511,-10.9941 -0.017,-0.2266 a 212.17741,212.17741 0 0 0 16.082,-4.0293 l 0.1504,0.3633 5.8398,9.3633 10.7989,-3.5098 -0.7813,-11.00782 -0.1074,-0.4414 a 212.17741,212.17741 0 0 0 15.2949,-6.2989 l 0.2188,0.3594 7.2324,8.336 10.1172,-5.1563 -2.4922,-10.75 -0.1133,-0.2715 a 212.17741,212.17741 0 0 0 14.1387,-8.66791 l 0.1933,0.2265 8.4473,7.10161 9.1855,-6.67381 -4.1425,-10.2286 -0.2227,-0.3613 a 212.17741,212.17741 0 0 0 12.5566,-10.7656 l 0.3457,0.2969 9.4532,5.6933 8.02926,-8.0293 -5.6914,-9.4551 -0.2539,-0.2968 a 212.17741,212.17741 0 0 0 10.8945,-12.5 l 0.1894,0.1172 10.2266,4.1425 6.6738,-9.1855 -7.0996,-8.4473 -0.2656,-0.2265 a 212.17741,212.17741 0 0 0 8.5644,-14.1621 l 0.4141,0.1718 10.75,2.4922 5.1543,-10.1172 -8.334,-7.2324 -0.3808,-0.2324 a 212.17741,212.17741 0 0 0 6.4277,-15.2539 l 0.334,0.08 11.00776,0.7793 3.5078,-10.7989 -9.3633,-5.8398 -0.2148,-0.088 a 212.17741,212.17741 0 0 0 3.7129,-16.1563 l 0.3945,0.031 10.9941,-0.9531 1.7774,-11.2149 -10.1621,-4.3027 -0.4453,-0.1055 a 212.17741,212.17741 0 0 0 1.4297,-16.4922 l 0.3242,-0.025 10.709,-2.6601 0,-11.3555 -10.709,-2.6601 -0.4473,-0.035 a 212.17741,212.17741 0 0 0 -1.1992,-16.5078 l 0.3379,-0.08 10.1621,-4.3027 -1.7774,-11.2149 -10.9941,-0.9531 -0.2266,0.018 a 212.17741,212.17741 0 0 0 -4.0293,-16.0801 l 0.3633,-0.1504 9.3633,-5.8398 -3.5078,-10.7989 -11.00776,0.7793 -0.4434,0.1075 a 212.17741,212.17741 0 0 0 -6.2988,-15.293 l 0.3613,-0.2207 8.334,-7.2324 -5.1543,-10.11721 -10.75,2.4922 -0.2715,0.1133 a 212.17741,212.17741 0 0 0 -8.6679,-14.1368 l 0.2265,-0.1933 7.0996,-8.4473 -6.6738,-9.185499 -10.2266,4.142499 -0.3613,0.2227 a 212.17741,212.17741 0 0 0 -10.7656,-12.556599 l 0.2969,-0.3457 5.6914,-9.4551 -8.02926,-8.0293 -9.4532,5.6933 -0.2968,0.2539 a 212.17741,212.17741 0 0 0 -12.5,-10.8945 l 0.1172,-0.1894 4.1425,-10.2286 -9.1855,-6.6738 -8.4473,7.1016 -0.2265,0.2656 a 212.17741,212.17741 0 0 0 -14.1641,-8.5664 l 0.1719,-0.4121 2.4922,-10.75 -10.1172,-5.1563 -7.2324,8.336 -0.2325,0.3789 a 212.17741,212.17741 0 0 0 -15.2539,-6.4278 l 0.08,-0.332 0.7813,-11.0078 -10.7989,-3.5098 -5.8398,9.3633 -0.088,0.2149 a 212.17741,212.17741 0 0 0 -16.1582,-3.7129 l 0.031,-0.3946 -0.9511,-10.9941 -11.2149,-1.7754 -4.3027,10.1621 -0.1055,0.4434 a 212.17741,212.17741 0 0 0 -16.4941,-1.4297 l -0.025,-0.3223 -2.6602,-10.7109 -11.3535,0 z"
       id="path4136-6-4-8-6-5" />
    <path
       style="fill:none;fill-opacity:1;stroke:#0000ff;stroke-width:0.70866144;stroke-miterlimit:4;stroke-dasharray:none;stroke-opacity:1"
       d="m 798.62528,58.282241 c 24.3571,0.0413 48.43703,5.16972 70.6973,15.0566 l -54.9004,126.695299 -0.5059,0.2754 -92.0937,-124.130899 c 23.90466,-11.7345 50.17322,-17.85555 76.8027,-17.8964 z"
       id="path9226-7-4" />
    <path
       style="fill:none;fill-opacity:1;stroke:#0000ff;stroke-width:0.70866144;stroke-miterlimit:4;stroke-dasharray:none;stroke-opacity:1"
       d="m 895.75218,87.832941 a 174.89997,174.89997 0 0 1 76.64646,127.292999 l -136.66006,15.7422 a 37.300922,37.300922 0 0 0 -0.4746,-3.4473 l 60.4882,-139.587899 z"
       id="path9224-5-7" />
    <path
       style="fill:none;fill-opacity:1;stroke:#0000ff;stroke-width:0.70866144;stroke-miterlimit:4;stroke-dasharray:none;stroke-opacity:1"
       d="m 696.03738,91.793941 81.84765,111.564939 c 2.42882,-0.24184 -153.55275,17.72796 -153.55275,17.72796 3.61576,-51.57785 29.8674,-98.91272 71.7051,-129.292899 z"
       id="path9222-3-4" />
    <path
       style="fill:none;fill-opacity:1;stroke:#0000ff;stroke-width:0.70866144;stroke-miterlimit:4;stroke-dasharray:none;stroke-opacity:1"
       d="m 761.36748,235.51075 a 37.300922,37.300922 0 0 0 0.1387,2.15039 l -60.8262,140.3711 a 174.89997,174.89997 0 0 1 -75.8262,-126.793 l 136.5137,-15.7285 z"
       id="path9220-5-4" />
    <path
       style="fill:none;fill-opacity:1;stroke:#0000ff;stroke-width:0.70866144;stroke-miterlimit:4;stroke-dasharray:none;stroke-opacity:1"
       d="m 972.92014,245.27634 a 174.89997,174.89997 0 0 1 -72.58196,129.9219 l -81.3555,-109.6582 a 37.300922,37.300922 0 0 0 3.916,-2.97849 l 150.02146,-17.28521 z"
       id="path9218-6-3" />
    <path
       style="fill:none;fill-opacity:1;stroke:#0000ff;stroke-width:0.70866144;stroke-miterlimit:4;stroke-dasharray:none;stroke-opacity:1"
       d="m 781.35768,267.32714 a 37.300922,37.300922 0 0 0 2.4649,1.19141 l 90.5996,122.1191 a 174.89997,174.89997 0 0 1 -75.7969,17.44529 174.89997,174.89997 0 0 1 -71.5527,-15.4707 l 54.2851,-125.2851 z"
       id="path4136-6-4-8-5-2-0" />
    <path
       style="fill:none;fill-opacity:1;stroke:#ff0000;stroke-width:0.74614006;stroke-miterlimit:4;stroke-dasharray:none;stroke-opacity:1"
       d="m 804.20461,233.2802 c 0.35948,2.96614 -1.75364,5.66208 -4.71979,6.02156 -2.96612,0.35947 -5.66207,-1.75367 -6.02154,-4.71979 -0.13195,-1.08877 0.0693,-2.14114 0.5235,-3.05489 l 9.13508,-0.89608 c 0.57406,0.74443 0.96144,1.64823 1.08275,2.64921 z"
       id="path9262-6-2-9-7" />
    <path
       style="fill:none;fill-rule:evenodd;stroke:#ff0000;stroke-width:0.70866144;stroke-linecap:butt;stroke-linejoin:miter;stroke-miterlimit:4;stroke-dasharray:none;stroke-opacity:1"
       d="m 798.41836,231.04124 -0.26927,-3.30045"
       id="path9265-1-9-1-8" />
    <path
       style="fill:none;fill-opacity:1;stroke:#ff0000;stroke-width:0.70866144;stroke-miterlimit:4;stroke-dasharray:none;stroke-opacity:1"
       d="m 804.25068,259.16975 a 3.316875,3.316875 0 0 1 -4.65777,0.55541 3.316875,3.316875 0 0 1 -0.55542,-4.65776 3.316875,3.316875 0 0 1 4.65778,-0.55543 3.316875,3.316875 0 0 1 0.55542,4.65778 z"
       id="path5070-6-2-4-7-3-6" />
    <path
       style="fill:none;fill-opacity:1;stroke:#ff0000;stroke-width:0.70866144;stroke-miterlimit:4;stroke-dasharray:none;stroke-opacity:1"
       d="m 798.64574,212.92137 a 3.316875,3.316875 0 0 1 -4.65777,0.55542 3.316875,3.316875 0 0 1 -0.55542,-4.65775 3.316875,3.316875 0 0 1 4.65778,-0.55542 3.316875,3.316875 0 0 1 0.55542,4.65778 z"
       id="path5070-6-2-4-7-7-8" />
    <path
       style="fill:none;fill-opacity:1;stroke:#ff0000;stroke-width:0.70866144;stroke-miterlimit:4;stroke-dasharray:none;stroke-opacity:1"
       d="m 824.01697,228.58538 a 3.316875,3.316875 0 0 1 0.55542,4.65777 3.316875,3.316875 0 0 1 -4.65776,0.55542 3.316875,3.316875 0 0 1 -0.55542,-4.65778 3.316875,3.316875 0 0 1 4.65778,-0.55542 z"
       id="path5070-6-2-4-7-3-5-8" />
    <path
       style="fill:none;fill-opacity:1;stroke:#ff0000;stroke-width:0.70866144;stroke-miterlimit:4;stroke-dasharray:none;stroke-opacity:1"
       d="m 777.76861,234.19032 a 3.316875,3.316875 0 0 1 0.55542,4.65777 3.316875,3.316875 0 0 1 -4.65776,0.55542 3.316875,3.316875 0 0 1 -0.55542,-4.65778 3.316875,3.316875 0 0 1 4.65778,-0.55542 z"
       id="path5070-6-2-4-7-7-2-4" />
  </g>
</svg>
