<?xml version="1.0" encoding="UTF-8" standalone="no"?>
<!-- Created with Inkscape (http://www.inkscape.org/) -->

<svg
   xmlns:dc="http://purl.org/dc/elements/1.1/"
   xmlns:cc="http://creativecommons.org/ns#"
   xmlns:rdf="http://www.w3.org/1999/02/22-rdf-syntax-ns#"
   xmlns:svg="http://www.w3.org/2000/svg"
   xmlns="http://www.w3.org/2000/svg"
   xmlns:sodipodi="http://sodipodi.sourceforge.net/DTD/sodipodi-0.dtd"
   xmlns:inkscape="http://www.inkscape.org/namespaces/inkscape"
   width="300mm"
   height="300mm"
   viewBox="0 0 1062.9921 1062.9921"
   id="svg5086"
   version="1.1"
   inkscape:version="0.91 r13725"
   sodipodi:docname="chassis2.svg">
  <defs
     id="defs5088">
    <marker
       style="overflow:visible"
       refY="0.0"
       refX="0.0"
       orient="auto"
       id="DistanceX">
      <path
         id="path6407"
         style="stroke:#000000; stroke-width:0.5"
         d="M 3,-3 L -3,3 M 0,-5 L  0,5" />
    </marker>
    <pattern
       y="0"
       x="0"
       width="8"
       patternUnits="userSpaceOnUse"
       id="Hatch"
       height="8">
      <path
         id="path6410"
         stroke-width="0.25"
         stroke="#000000"
         linecap="square"
         d="M8 4 l-4,4" />
      <path
         id="path6412"
         stroke-width="0.25"
         stroke="#000000"
         linecap="square"
         d="M6 2 l-4,4" />
      <path
         id="path6414"
         stroke-width="0.25"
         stroke="#000000"
         linecap="square"
         d="M4 0 l-4,4" />
    </pattern>
    <marker
       style="overflow:visible"
       refY="0.0"
       refX="0.0"
       orient="auto"
       id="DistanceX-2">
      <path
         id="path7163"
         style="stroke:#000000; stroke-width:0.5"
         d="M 3,-3 L -3,3 M 0,-5 L  0,5" />
    </marker>
    <pattern
       y="0"
       x="0"
       width="8"
       patternUnits="userSpaceOnUse"
       id="Hatch-7"
       height="8">
      <path
         id="path7166"
         stroke-width="0.25"
         stroke="#000000"
         linecap="square"
         d="M8 4 l-4,4" />
      <path
         id="path7168"
         stroke-width="0.25"
         stroke="#000000"
         linecap="square"
         d="M6 2 l-4,4" />
      <path
         id="path7170"
         stroke-width="0.25"
         stroke="#000000"
         linecap="square"
         d="M4 0 l-4,4" />
    </pattern>
    <marker
       style="overflow:visible"
       refY="0.0"
       refX="0.0"
       orient="auto"
       id="DistanceX-22">
      <path
         id="path7576"
         style="stroke:#000000; stroke-width:0.5"
         d="M 3,-3 L -3,3 M 0,-5 L  0,5" />
    </marker>
    <pattern
       y="0"
       x="0"
       width="8"
       patternUnits="userSpaceOnUse"
       id="Hatch-6"
       height="8">
      <path
         id="path7579"
         stroke-width="0.25"
         stroke="#000000"
         linecap="square"
         d="M8 4 l-4,4" />
      <path
         id="path7581"
         stroke-width="0.25"
         stroke="#000000"
         linecap="square"
         d="M6 2 l-4,4" />
      <path
         id="path7583"
         stroke-width="0.25"
         stroke="#000000"
         linecap="square"
         d="M4 0 l-4,4" />
    </pattern>
    <marker
       style="overflow:visible"
       refY="0.0"
       refX="0.0"
       orient="auto"
       id="DistanceX-1">
      <path
         id="path8082"
         style="stroke:#000000; stroke-width:0.5"
         d="M 3,-3 L -3,3 M 0,-5 L  0,5" />
    </marker>
    <pattern
       y="0"
       x="0"
       width="8"
       patternUnits="userSpaceOnUse"
       id="Hatch-0"
       height="8">
      <path
         id="path8085"
         stroke-width="0.25"
         stroke="#000000"
         linecap="square"
         d="M8 4 l-4,4" />
      <path
         id="path8087"
         stroke-width="0.25"
         stroke="#000000"
         linecap="square"
         d="M6 2 l-4,4" />
      <path
         id="path8089"
         stroke-width="0.25"
         stroke="#000000"
         linecap="square"
         d="M4 0 l-4,4" />
    </pattern>
  </defs>
  <sodipodi:namedview
     id="base"
     pagecolor="#ffffff"
     bordercolor="#666666"
     borderopacity="1.0"
     inkscape:pageopacity="0.0"
     inkscape:pageshadow="2"
     inkscape:zoom="0.68116906"
     inkscape:cx="575.43653"
     inkscape:cy="709.94383"
     inkscape:document-units="mm"
     inkscape:current-layer="layer1"
     showgrid="false"
     inkscape:window-width="1366"
     inkscape:window-height="681"
     inkscape:window-x="0"
     inkscape:window-y="24"
     inkscape:window-maximized="1" />
  <metadata
     id="metadata5091">
    <rdf:RDF>
      <cc:Work
         rdf:about="">
        <dc:format>image/svg+xml</dc:format>
        <dc:type
           rdf:resource="http://purl.org/dc/dcmitype/StillImage" />
        <dc:title></dc:title>
      </cc:Work>
    </rdf:RDF>
  </metadata>
  <g
     inkscape:label="Layer 1"
     inkscape:groupmode="layer"
     id="layer1"
     transform="translate(0,10.629921)">
    <g
       id="g12150"
       transform="translate(-148.44519,28.990034)">
      <path
         inkscape:connector-curvature="0"
         id="path5070-6-4-45-1-1-9-9"
         d="m 808.32797,229.77244 a 5.1221216,5.1221216 0 0 1 -0.003,7.24373 5.1221216,5.1221216 0 0 1 -7.24373,-0.002 5.1221216,5.1221216 0 0 1 0.003,-7.24379 5.1221216,5.1221216 0 0 1 7.24379,0.003 z"
         style="fill:none;fill-opacity:1;stroke:#ff0000;stroke-width:1.09435844;stroke-miterlimit:4;stroke-dasharray:none;stroke-opacity:1" />
      <path
         inkscape:connector-curvature="0"
         id="path5070-6-4-45-1-1-77-4"
         d="m 840.21445,197.35103 a 5.1221216,5.1221216 0 0 1 -0.003,7.24374 5.1221216,5.1221216 0 0 1 -7.24372,-0.003 5.1221216,5.1221216 0 0 1 0.002,-7.24378 5.1221216,5.1221216 0 0 1 7.24379,0.003 z"
         style="fill:none;fill-opacity:1;stroke:#ff0000;stroke-width:1.09435844;stroke-miterlimit:4;stroke-dasharray:none;stroke-opacity:1" />
      <path
         inkscape:connector-curvature="0"
         id="path5070-6-4-45-1-1-9-3-1"
         d="m 808.05786,204.86226 a 5.1221216,5.1221216 0 0 1 -7.24373,-0.003 5.1221216,5.1221216 0 0 1 0.003,-7.24373 5.1221216,5.1221216 0 0 1 7.24379,0.003 5.1221216,5.1221216 0 0 1 -0.003,7.24379 z"
         style="fill:none;fill-opacity:1;stroke:#ff0000;stroke-width:1.09435844;stroke-miterlimit:4;stroke-dasharray:none;stroke-opacity:1" />
      <path
         inkscape:connector-curvature="0"
         id="path5070-6-4-45-1-1-77-6-2"
         d="m 840.47927,236.74874 a 5.1221216,5.1221216 0 0 1 -7.24374,-0.003 5.1221216,5.1221216 0 0 1 0.003,-7.24372 5.1221216,5.1221216 0 0 1 7.24378,0.002 5.1221216,5.1221216 0 0 1 -0.003,7.24379 z"
         style="fill:none;fill-opacity:1;stroke:#ff0000;stroke-width:1.09435844;stroke-miterlimit:4;stroke-dasharray:none;stroke-opacity:1" />
      <path
         inkscape:connector-curvature="0"
         id="path5070-6-4-45-1-1-5-9"
         d="m 824.27116,213.56169 a 5.1221216,5.1221216 0 0 1 -0.003,7.2438 5.1221216,5.1221216 0 0 1 -7.24372,0 5.1221216,5.1221216 0 0 1 0.003,-7.2438 5.1221216,5.1221216 0 0 1 7.24379,0 z"
         style="fill:none;fill-opacity:1;stroke:#ff0000;stroke-width:1.09435844;stroke-miterlimit:4;stroke-dasharray:none;stroke-opacity:1" />
      <path
         inkscape:connector-curvature="0"
         id="path4136-6-4-8-9"
         d="m 814.9704,-5.7304587 -2.6601,10.7109 -0.033,0.4453 a 212.17741,212.17741 0 0 0 -16.5118,1.1993 l -0.08,-0.336 -4.3028,-10.1621 -11.2148,1.7754 -0.9512,10.9941 0.018,0.2286 a 212.17741,212.17741 0 0 0 -16.082,4.0272997 l -0.1504,-0.3633 -5.8379,-9.3632997 -10.8008,3.5098 0.7812,11.0077997 0.1075,0.4434 a 212.17741,212.17741 0 0 0 -15.293,6.29875 l -0.2207,-0.3613 -7.2324,-8.33595 -10.1172,5.1563 2.4922,10.75005 0.1113,0.2694 a 212.17741,212.17741 0 0 0 -14.1387,8.6681 l -0.1914,-0.2246 -8.44721,-7.1016 -9.1856,6.6738 4.1426,10.2286 0.2226,0.3613 a 212.17741,212.17741 0 0 0 -12.55659,10.7656 l -0.3457,-0.2969 -9.4531,-5.6933 -8.0293,8.0293 5.6914,9.4551 0.2539,0.2968 a 212.17741,212.17741 0 0 0 -10.8926,12.5 l -0.1894,-0.1172 -10.2286,-4.1426 -6.6738,9.1856 7.0996,8.4473 0.2657,0.2265 a 212.17741,212.17741 0 0 0 -8.5645,14.162099 l -0.4141,-0.1718 -10.75,-2.4922 -5.1543,10.1172 8.334,7.2324 0.3809,0.2324 a 212.17741,212.17741 0 0 0 -6.4278,15.2559 l -0.3339,-0.082 -11.0079,-0.7793 -3.5078,10.7989 9.3633,5.8397 0.2149,0.088 a 212.17741,212.17741 0 0 0 -3.7129,16.1564 l -0.3946,-0.031 -10.9941,0.9531 -1.77734,11.2149 10.16214,4.3026 0.4453,0.1055 a 212.17741,212.17741 0 0 0 -1.4297,16.4922 l -0.3242,0.025 -10.70901,2.6601 0,11.3555 10.70901,2.6601 0.4472,0.035 a 212.17741,212.17741 0 0 0 1.1993,16.5078 l -0.3379,0.08 -10.16214,4.3027 1.77734,11.2149 10.9941,0.9531 0.2266,-0.018 a 212.17741,212.17741 0 0 0 4.0293,16.0801 l -0.3633,0.1504 -9.3633,5.8398 3.5078,10.7989 11.0079,-0.7793 0.4433,-0.1075 a 212.17741,212.17741 0 0 0 6.2988,15.293 l -0.3613,0.2207 -8.334,7.2324 5.1543,10.1172 10.75,-2.4922 0.2715,-0.1133 a 212.17741,212.17741 0 0 0 8.668,14.1368 l -0.2266,0.1933 -7.0996,8.4473 6.6738,9.1855 10.2286,-4.1425 0.3593,-0.2207 a 212.17741,212.17741 0 0 0 10.7657,12.5546 l -0.2969,0.3457 -5.6914,9.4551 8.0293,8.0293 9.4531,-5.6933 0.2969,-0.2539 a 212.17741,212.17741 0 0 0 12.49999,10.8945 l -0.1172,0.1894 -4.1426,10.2286 9.1856,6.6739 8.44721,-7.1017 0.2266,-0.2656 a 212.17741,212.17741 0 0 0 14.164,8.5665 l -0.1718,0.4121 -2.4922,10.75 10.1172,5.1562 7.2324,-8.3359 0.2324,-0.3789 a 212.17741,212.17741 0 0 0 15.2539,6.4277 l -0.08,0.332 -0.7812,11.0078 10.8008,3.5098 5.8379,-9.3633 0.088,-0.2149 a 212.17741,212.17741 0 0 0 16.1582,3.7129 l -0.031,0.3946 0.9512,10.9941 11.2148,1.7754 4.3028,-10.1621 0.1054,-0.4434 a 212.17741,212.17741 0 0 0 16.4942,1.4297 l 0.025,0.3223 2.6601,10.709 11.3535,0 2.6602,-10.709 0.033,-0.4453 a 212.17741,212.17741 0 0 0 16.5117,-1.1993 l 0.08,0.336 4.3027,10.1621 11.2149,-1.7754 0.9511,-10.9941 -0.017,-0.2266 a 212.17741,212.17741 0 0 0 16.082,-4.0293 l 0.1504,0.3633 5.8398,9.3633 10.7989,-3.5098 -0.7813,-11.0078 -0.1074,-0.4414 a 212.17741,212.17741 0 0 0 15.2949,-6.2988 l 0.2188,0.3594 7.2324,8.3359 10.1172,-5.1562 -2.4922,-10.75 -0.1133,-0.2715 a 212.17741,212.17741 0 0 0 14.1387,-8.6679 l 0.1933,0.2265 8.4473,7.1016 9.1855,-6.6738 -4.1425,-10.2286 -0.2227,-0.3613 a 212.17741,212.17741 0 0 0 12.5566,-10.7656 l 0.3457,0.2969 9.4532,5.6933 8.0293,-8.0293 -5.6914,-9.4551 -0.2539,-0.2968 a 212.17741,212.17741 0 0 0 10.8945,-12.5 l 0.1894,0.1172 10.2266,4.1425 6.6738,-9.1855 -7.0996,-8.4473 -0.2656,-0.2265 a 212.17741,212.17741 0 0 0 8.5644,-14.1621 l 0.4141,0.1718 10.75,2.4922 5.1543,-10.1172 -8.334,-7.2324 -0.3808,-0.2324 a 212.17741,212.17741 0 0 0 6.4277,-15.2539 l 0.334,0.08 11.0078,0.7793 3.5078,-10.7989 -9.3633,-5.8398 -0.2148,-0.088 a 212.17741,212.17741 0 0 0 3.7129,-16.1563 l 0.3945,0.031 10.9941,-0.9531 1.7774,-11.2149 -10.1621,-4.3027 -0.4453,-0.1055 a 212.17741,212.17741 0 0 0 1.4297,-16.4922 l 0.3242,-0.025 10.709,-2.6601 0,-11.3555 -10.709,-2.6601 -0.4473,-0.035 a 212.17741,212.17741 0 0 0 -1.1992,-16.5078 l 0.3379,-0.08 10.1621,-4.3027 -1.7774,-11.2149 -10.9941,-0.9531 -0.2266,0.018 a 212.17741,212.17741 0 0 0 -4.0293,-16.0801 l 0.3633,-0.1504 9.3633,-5.8398 -3.5078,-10.7989 -11.0078,0.7793 -0.4434,0.1075 a 212.17741,212.17741 0 0 0 -6.2988,-15.293 l 0.3613,-0.2207 8.334,-7.2324 -5.1543,-10.1172 -10.75,2.4922 -0.2715,0.1133 a 212.17741,212.17741 0 0 0 -8.6679,-14.136799 l 0.2265,-0.1933 7.0996,-8.4473 -6.6738,-9.1855 -10.2266,4.1425 -0.3613,0.2227 a 212.17741,212.17741 0 0 0 -10.7656,-12.5566 l 0.2969,-0.3457 5.6914,-9.4551 -8.0293,-8.0293 -9.4532,5.6933 -0.2968,0.2539 a 212.17741,212.17741 0 0 0 -12.5,-10.8945 l 0.1172,-0.1894 4.1425,-10.2286 -9.1855,-6.6738 -8.4473,7.1016 -0.2265,0.2656 a 212.17741,212.17741 0 0 0 -14.1641,-8.5664 l 0.1719,-0.4121 2.4922,-10.75005 -10.1172,-5.1563 -7.2324,8.33605 -0.2325,0.3789 a 212.17741,212.17741 0 0 0 -15.2539,-6.42785 l 0.08,-0.332 0.7813,-11.0077997 -10.7989,-3.5098 -5.8398,9.3632997 -0.088,0.2149 A 212.17741,212.17741 0 0 0 862.0473,9.2910413 l 0.031,-0.3946 -0.9511,-10.9941 -11.2149,-1.7754 -4.3027,10.1621 -0.1055,0.4434 a 212.17741,212.17741 0 0 0 -16.4941,-1.4297 l -0.025,-0.3223 -2.6602,-10.7109 -11.3535,0 z"
         style="fill:none;fill-opacity:1;stroke:#00ff00;stroke-width:0.70866144;stroke-miterlimit:4;stroke-dasharray:none;stroke-opacity:1" />
      <path
         inkscape:connector-curvature="0"
         id="path9226-2"
         d="m 820.6462,42.282291 c 24.3571,0.041 48.43703,5.1697 70.6973,15.0566 l -54.9004,126.695299 -0.5059,0.2754 -92.0937,-124.130899 c 23.90466,-11.7345 50.17322,-17.8556 76.8027,-17.8964 z"
         style="fill:none;fill-opacity:1;stroke:#0000ff;stroke-width:0.70866144;stroke-miterlimit:4;stroke-dasharray:none;stroke-opacity:1" />
      <path
         inkscape:connector-curvature="0"
         id="path9224-2"
         d="m 917.7731,71.832991 a 174.89997,174.89997 0 0 1 76.6465,127.292999 l -136.6601,15.7422 a 37.300922,37.300922 0 0 0 -0.4746,-3.4473 L 917.7731,71.832991 Z"
         style="fill:none;fill-opacity:1;stroke:#0000ff;stroke-width:0.70866144;stroke-miterlimit:4;stroke-dasharray:none;stroke-opacity:1" />
      <path
         inkscape:connector-curvature="0"
         id="path9222-8"
         d="m 718.0583,75.793991 81.84765,111.564899 c 2.42882,-0.2418 -153.55275,17.728 -153.55275,17.728 3.61575,-51.5778 29.8674,-98.9127 71.7051,-129.292899 z"
         style="fill:none;fill-opacity:1;stroke:#0000ff;stroke-width:0.70866144;stroke-miterlimit:4;stroke-dasharray:none;stroke-opacity:1" />
      <path
         inkscape:connector-curvature="0"
         id="path9220-9"
         d="m 783.3884,219.51079 a 37.300922,37.300922 0 0 0 0.1387,2.1504 l -60.8262,140.3711 a 174.89997,174.89997 0 0 1 -75.8262,-126.793 l 136.5137,-15.7285 z"
         style="fill:none;fill-opacity:1;stroke:#0000ff;stroke-width:0.70866144;stroke-miterlimit:4;stroke-dasharray:none;stroke-opacity:1" />
      <path
         inkscape:connector-curvature="0"
         id="path9218-7"
         d="m 994.9411,229.27639 a 174.89997,174.89997 0 0 1 -72.582,129.9219 l -81.3555,-109.6582 a 37.300922,37.300922 0 0 0 3.916,-2.9785 l 150.0215,-17.2852 z"
         style="fill:none;fill-opacity:1;stroke:#0000ff;stroke-width:0.70866144;stroke-miterlimit:4;stroke-dasharray:none;stroke-opacity:1" />
      <path
         inkscape:connector-curvature="0"
         id="path4136-6-4-8-5-3"
         d="m 803.3786,251.32719 a 37.300922,37.300922 0 0 0 2.4649,1.1914 l 90.5996,122.1191 a 174.89997,174.89997 0 0 1 -75.7969,17.4453 174.89997,174.89997 0 0 1 -71.5527,-15.4707 l 54.2851,-125.2851 z"
         style="fill:none;fill-opacity:1;stroke:#0000ff;stroke-width:0.70866144;stroke-miterlimit:4;stroke-dasharray:none;stroke-opacity:1" />
    </g>
    <g
       id="g12136">
      <path
         inkscape:connector-curvature="0"
         id="path5070-6-4-45-1-1-9-9-7"
         d="m 219.63421,240.9077 a 5.1221216,5.1221216 0 0 1 -0.003,7.24373 5.1221216,5.1221216 0 0 1 -7.24373,-0.003 5.1221216,5.1221216 0 0 1 0.003,-7.24379 5.1221216,5.1221216 0 0 1 7.24379,0.003 z"
         style="fill:none;fill-opacity:1;stroke:#ff0000;stroke-width:1.09435844;stroke-miterlimit:4;stroke-dasharray:none;stroke-opacity:1" />
      <path
         inkscape:connector-curvature="0"
         id="path5070-6-4-45-1-1-77-4-5"
         d="m 251.52069,208.48629 a 5.1221216,5.1221216 0 0 1 -0.003,7.24374 5.1221216,5.1221216 0 0 1 -7.24372,-0.003 5.1221216,5.1221216 0 0 1 0.002,-7.24378 5.1221216,5.1221216 0 0 1 7.24379,0.003 z"
         style="fill:none;fill-opacity:1;stroke:#ff0000;stroke-width:1.09435844;stroke-miterlimit:4;stroke-dasharray:none;stroke-opacity:1" />
      <path
         inkscape:connector-curvature="0"
         id="path5070-6-4-45-1-1-9-3-1-5"
         d="m 219.36411,215.99752 a 5.1221216,5.1221216 0 0 1 -7.24373,-0.003 5.1221216,5.1221216 0 0 1 0.002,-7.24373 5.1221216,5.1221216 0 0 1 7.24379,0.003 5.1221216,5.1221216 0 0 1 -0.003,7.24379 z"
         style="fill:none;fill-opacity:1;stroke:#ff0000;stroke-width:1.09435844;stroke-miterlimit:4;stroke-dasharray:none;stroke-opacity:1" />
      <path
         inkscape:connector-curvature="0"
         id="path5070-6-4-45-1-1-77-6-2-6"
         d="m 251.78552,247.884 a 5.1221216,5.1221216 0 0 1 -7.24374,-0.003 5.1221216,5.1221216 0 0 1 0.003,-7.24372 5.1221216,5.1221216 0 0 1 7.24378,0.002 5.1221216,5.1221216 0 0 1 -0.003,7.24379 z"
         style="fill:none;fill-opacity:1;stroke:#ff0000;stroke-width:1.09435844;stroke-miterlimit:4;stroke-dasharray:none;stroke-opacity:1" />
      <path
         inkscape:connector-curvature="0"
         id="path5070-6-4-45-1-1-5-9-2"
         d="m 235.5774,224.69695 a 5.1221216,5.1221216 0 0 1 -0.003,7.2438 5.1221216,5.1221216 0 0 1 -7.24372,0 5.1221216,5.1221216 0 0 1 0.003,-7.2438 5.1221216,5.1221216 0 0 1 7.24379,0 z"
         style="fill:none;fill-opacity:1;stroke:#ff0000;stroke-width:1.09435844;stroke-miterlimit:4;stroke-dasharray:none;stroke-opacity:1" />
      <path
         inkscape:connector-curvature="0"
         id="path4136-6-4-8-9-9"
         d="m 226.27664,5.4047951 -2.6601,10.7108999 -0.033,0.4453 a 212.17741,212.17741 0 0 0 -16.5118,1.1993 l -0.08,-0.336 -4.3028,-10.1620999 -11.2148,1.7754 -0.9512,10.9940999 0.018,0.2286 a 212.17741,212.17741 0 0 0 -16.082,4.0273 l -0.1504,-0.3633 -5.8379,-9.3633 -10.8008,3.5098 0.7812,11.0078 0.1075,0.4434 a 212.17741,212.17741 0 0 0 -15.293,6.29875 l -0.2207,-0.3613 -7.2324,-8.33595 -10.1172,5.1563 2.4922,10.75005 0.1113,0.2694 a 212.17741,212.17741 0 0 0 -14.1387,8.6681 l -0.1914,-0.2246 -8.44721,-7.1016 -9.1856,6.6738 4.1426,10.2286 0.2226,0.3613 a 212.17741,212.17741 0 0 0 -12.55659,10.7656 l -0.3457,-0.2969 -9.4531,-5.6933 -8.0293,8.0293 5.6914,9.4551 0.2539,0.2968 a 212.17741,212.17741 0 0 0 -10.8926,12.5 l -0.1894,-0.1172 -10.2286,-4.1426 -6.6738,9.185605 7.0996,8.4473 0.2657,0.2265 a 212.17741,212.17741 0 0 0 -8.5645,14.1621 l -0.4141,-0.1718 -10.75,-2.4922 -5.1543,10.1172 8.334,7.2324 0.3809,0.2324 a 212.17741,212.17741 0 0 0 -6.4278,15.2559 l -0.3339,-0.082 -11.0079,-0.7793 -3.5078,10.7989 9.3633,5.8397 0.2149,0.088 a 212.17741,212.17741 0 0 0 -3.7129,16.1564 l -0.3946,-0.031 -10.9941,0.9531 -1.77734,11.2149 10.16214,4.3026 0.4453,0.1055 a 212.17741,212.17741 0 0 0 -1.4297,16.4922 l -0.3242,0.025 -10.70901,2.6601 0,11.3555 10.70901,2.6601 0.4472,0.035 a 212.17741,212.17741 0 0 0 1.1993,16.5078 l -0.3379,0.08 -10.16214,4.3027 1.77734,11.2149 10.9941,0.9531 0.2266,-0.018 a 212.17741,212.17741 0 0 0 4.0293,16.0801 l -0.3633,0.1504 -9.3633,5.8398 3.5078,10.7989 11.0079,-0.7793 0.4433,-0.1075 a 212.17741,212.17741 0 0 0 6.2988,15.293 l -0.3613,0.2207 -8.334,7.2324 5.1543,10.1172 10.75,-2.4922 0.2715,-0.1133 a 212.17741,212.17741 0 0 0 8.668,14.1368 l -0.2266,0.1933 -7.0996,8.4473 6.6738,9.1855 10.2286,-4.1425 0.3593,-0.2207 a 212.17741,212.17741 0 0 0 10.7657,12.5546 l -0.2969,0.3457 -5.6914,9.4551 8.0293,8.0293 9.4531,-5.6933 0.2969,-0.2539 a 212.17741,212.17741 0 0 0 12.49999,10.8945 l -0.1172,0.1894 -4.1426,10.2286 9.1856,6.6739 8.44721,-7.1017 0.2266,-0.2656 a 212.17741,212.17741 0 0 0 14.164,8.5665 l -0.1718,0.4121 -2.4922,10.74998 10.1172,5.1562 7.2324,-8.3359 0.2324,-0.3789 a 212.17741,212.17741 0 0 0 15.2539,6.4277 l -0.08,0.332 -0.7812,11.0078 10.8008,3.5098 5.8379,-9.3633 0.088,-0.2149 a 212.17741,212.17741 0 0 0 16.1582,3.7129 l -0.031,0.3946 0.9512,10.9941 11.2148,1.7754 4.3028,-10.1621 0.1054,-0.4434 a 212.17741,212.17741 0 0 0 16.4942,1.4297 l 0.025,0.3223 2.6601,10.709 11.3535,0 2.6602,-10.709 0.033,-0.4453 a 212.17741,212.17741 0 0 0 16.5117,-1.1993 l 0.08,0.336 4.3027,10.1621 11.2149,-1.7754 0.9511,-10.9941 -0.017,-0.2266 a 212.17741,212.17741 0 0 0 16.082,-4.0293 l 0.1504,0.3633 5.8398,9.3633 10.7989,-3.5098 -0.7813,-11.0078 -0.1074,-0.4414 a 212.17741,212.17741 0 0 0 15.2949,-6.2988 l 0.2188,0.3594 7.2324,8.3359 10.1172,-5.1562 -2.4922,-10.74998 -0.1133,-0.2715 a 212.17741,212.17741 0 0 0 14.1387,-8.6679 l 0.1933,0.2265 8.4473,7.1016 9.1855,-6.6738 -4.1425,-10.2286 -0.2227,-0.3613 a 212.17741,212.17741 0 0 0 12.5566,-10.7656 l 0.3457,0.2969 9.4532,5.6933 8.0293,-8.0293 -5.6914,-9.4551 -0.2539,-0.2968 a 212.17741,212.17741 0 0 0 10.8945,-12.5 l 0.1894,0.1172 10.2266,4.1425 6.6738,-9.1855 -7.0996,-8.4473 -0.2656,-0.2265 a 212.17741,212.17741 0 0 0 8.5644,-14.1621 l 0.4141,0.1718 10.75,2.4922 5.1543,-10.1172 -8.334,-7.2324 -0.3808,-0.2324 a 212.17741,212.17741 0 0 0 6.4277,-15.2539 l 0.334,0.08 11.0078,0.7793 3.5078,-10.7989 -9.3633,-5.8398 -0.2148,-0.088 a 212.17741,212.17741 0 0 0 3.7129,-16.1563 l 0.3945,0.031 10.9941,-0.9531 1.7774,-11.2149 -10.1621,-4.3027 -0.4453,-0.1055 a 212.17741,212.17741 0 0 0 1.4297,-16.4922 l 0.3242,-0.025 10.709,-2.6601 0,-11.3555 -10.709,-2.6601 -0.4473,-0.035 a 212.17741,212.17741 0 0 0 -1.1992,-16.5078 l 0.3379,-0.08 10.1621,-4.3027 -1.7774,-11.2149 -10.9941,-0.9531 -0.2266,0.018 a 212.17741,212.17741 0 0 0 -4.0293,-16.0801 l 0.3633,-0.1504 9.3633,-5.8398 -3.5078,-10.7989 -11.0078,0.7793 -0.4434,0.1075 a 212.17741,212.17741 0 0 0 -6.2988,-15.293 l 0.3613,-0.2207 8.334,-7.2324 -5.1543,-10.1172 -10.75,2.4922 -0.2715,0.1133 a 212.17741,212.17741 0 0 0 -8.6679,-14.1368 l 0.2265,-0.1933 7.0996,-8.4473 -6.6738,-9.185505 -10.2266,4.1425 -0.3613,0.2227 a 212.17741,212.17741 0 0 0 -10.7656,-12.5566 l 0.2969,-0.3457 5.6914,-9.4551 -8.0293,-8.0293 -9.4532,5.6933 -0.2968,0.2539 a 212.17741,212.17741 0 0 0 -12.5,-10.8945 l 0.1172,-0.1894 4.1425,-10.2286 -9.1855,-6.6738 -8.4473,7.1016 -0.2265,0.2656 a 212.17741,212.17741 0 0 0 -14.1641,-8.5664 l 0.1719,-0.4121 2.4922,-10.75005 -10.1172,-5.1563 -7.2324,8.33605 -0.2325,0.3789 a 212.17741,212.17741 0 0 0 -15.2539,-6.42785 l 0.08,-0.332 0.7813,-11.0078 -10.7989,-3.5098 -5.8398,9.3633 -0.088,0.2149 a 212.17741,212.17741 0 0 0 -16.1582,-3.7129 l 0.031,-0.3946 -0.9511,-10.9940999 -11.2149,-1.7754 -4.3027,10.1620999 -0.1055,0.4434 a 212.17741,212.17741 0 0 0 -16.4941,-1.4297 l -0.025,-0.3223 -2.6602,-10.7108999 -11.3535,0 z"
         style="fill:none;fill-opacity:1;stroke:#00ff00;stroke-width:0.70866144;stroke-miterlimit:4;stroke-dasharray:none;stroke-opacity:1" />
      <path
         inkscape:connector-curvature="0"
         id="path9226-2-1"
         d="m 231.95244,53.417545 c 24.3571,0.041 48.43703,5.1697 70.6973,15.0566 l -54.9004,126.695305 -0.5059,0.2754 -92.0937,-124.130905 c 23.90466,-11.7345 50.17322,-17.8556 76.8027,-17.8964 z"
         style="fill:none;fill-opacity:1;stroke:#0000ff;stroke-width:0.70866144;stroke-miterlimit:4;stroke-dasharray:none;stroke-opacity:1" />
      <path
         inkscape:connector-curvature="0"
         id="path9224-2-2"
         d="m 329.07934,82.968245 a 174.89997,174.89997 0 0 1 76.6465,127.293005 l -136.6601,15.7422 a 37.300922,37.300922 0 0 0 -0.4746,-3.4473 l 60.4882,-139.587905 z"
         style="fill:none;fill-opacity:1;stroke:#0000ff;stroke-width:0.70866144;stroke-miterlimit:4;stroke-dasharray:none;stroke-opacity:1" />
      <path
         inkscape:connector-curvature="0"
         id="path9222-8-7"
         d="m 129.36454,86.929245 81.84765,111.564905 c 2.42882,-0.2418 -153.55275,17.728 -153.55275,17.728 3.61575,-51.5778 29.8674,-98.9127 71.7051,-129.292905 z"
         style="fill:none;fill-opacity:1;stroke:#0000ff;stroke-width:0.70866144;stroke-miterlimit:4;stroke-dasharray:none;stroke-opacity:1" />
      <path
         inkscape:connector-curvature="0"
         id="path9220-9-0"
         d="m 194.69464,230.64605 a 37.300922,37.300922 0 0 0 0.1387,2.1504 l -60.8262,140.3711 a 174.89997,174.89997 0 0 1 -75.8262,-126.793 l 136.5137,-15.7285 z"
         style="fill:none;fill-opacity:1;stroke:#0000ff;stroke-width:0.70866144;stroke-miterlimit:4;stroke-dasharray:none;stroke-opacity:1" />
      <path
         inkscape:connector-curvature="0"
         id="path9218-7-9"
         d="m 406.24734,240.41165 a 174.89997,174.89997 0 0 1 -72.582,129.9219 l -81.3555,-109.6582 a 37.300922,37.300922 0 0 0 3.916,-2.9785 l 150.0215,-17.2852 z"
         style="fill:none;fill-opacity:1;stroke:#0000ff;stroke-width:0.70866144;stroke-miterlimit:4;stroke-dasharray:none;stroke-opacity:1" />
      <path
         inkscape:connector-curvature="0"
         id="path4136-6-4-8-5-3-3"
         d="m 214.68484,262.46245 a 37.300922,37.300922 0 0 0 2.4649,1.1914 l 90.5996,122.1191 a 174.89997,174.89997 0 0 1 -75.7969,17.4453 174.89997,174.89997 0 0 1 -71.5527,-15.4707 l 54.2851,-125.2851 z"
         style="fill:none;fill-opacity:1;stroke:#0000ff;stroke-width:0.70866144;stroke-miterlimit:4;stroke-dasharray:none;stroke-opacity:1" />
    </g>
    <path
       style="fill:none;fill-opacity:1;stroke:#0000ff;stroke-width:1.24221838;stroke-miterlimit:4;stroke-dasharray:none;stroke-opacity:1"
       d="m 1051.2631,54.65947 0.075,-18.94648 c 0.023,-5.88873 -4.7657,-10.62958 -10.6855,-10.62958 l -129.9269,0 c -5.9198,0 -10.6855,4.7408 -10.6855,10.62958 l 0.014,18.94648 0.073,313.42251 0.059,18.37838 c 0,5.88878 4.7657,10.62958 10.6855,10.62958 l 129.9269,0 c 5.9197,0 10.7327,-4.74098 10.6855,-10.62958 l -0.1477,-18.37838 z"
       id="rect9566-1"
       inkscape:connector-curvature="0"
       sodipodi:nodetypes="cssssccsssscc" />
    <path
       id="path5070-6-4-45-7-8"
       d="m 1025.7772,84.57057 a 4.9620542,4.9620542 0 0 1 -4.962,-4.96206 4.9620542,4.9620542 0 0 1 4.962,-4.96203 4.9620542,4.9620542 0 0 1 4.9621,4.96203 4.9620542,4.9620542 0 0 1 -4.9621,4.96206 z"
       style="fill:none;fill-opacity:1;stroke:#ff0000;stroke-width:1.06015944;stroke-miterlimit:4;stroke-dasharray:none;stroke-opacity:1"
       inkscape:connector-curvature="0" />
    <path
       id="path5070-6-4-45-5-57"
       d="m 1025.7773,348.66308 a 4.9620542,4.9620542 0 0 1 -4.9621,-4.96206 4.9620542,4.9620542 0 0 1 4.9621,-4.96203 4.9620542,4.9620542 0 0 1 4.962,4.96203 4.9620542,4.9620542 0 0 1 -4.962,4.96206 z"
       style="fill:none;fill-opacity:1;stroke:#ff0000;stroke-width:1.06015944;stroke-miterlimit:4;stroke-dasharray:none;stroke-opacity:1"
       inkscape:connector-curvature="0" />
    <path
       id="path5070-6-4-45-7-3-4"
       d="m 925.4793,84.57057 a 4.9620542,4.9620542 0 0 1 -4.962,-4.96206 4.9620542,4.9620542 0 0 1 4.962,-4.96203 4.9620542,4.9620542 0 0 1 4.9621,4.96203 4.9620542,4.9620542 0 0 1 -4.9621,4.96206 z"
       style="fill:none;fill-opacity:1;stroke:#ff0000;stroke-width:1.06015944;stroke-miterlimit:4;stroke-dasharray:none;stroke-opacity:1"
       inkscape:connector-curvature="0" />
    <path
       id="path5070-6-4-45-5-5-1"
       d="m 925.4794,348.66308 a 4.9620542,4.9620542 0 0 1 -4.9621,-4.96206 4.9620542,4.9620542 0 0 1 4.9621,-4.96203 4.9620542,4.9620542 0 0 1 4.962,4.96203 4.9620542,4.9620542 0 0 1 -4.962,4.96206 z"
       style="fill:none;fill-opacity:1;stroke:#ff0000;stroke-width:1.06015944;stroke-miterlimit:4;stroke-dasharray:none;stroke-opacity:1"
       inkscape:connector-curvature="0" />
    <path
       id="path5994-27-5"
       d="m 1021.1403,169.46235 a 8.8083858,8.8083858 0 0 1 -8.8084,-8.80839 8.8083858,8.8083858 0 0 1 8.8084,-8.80838 8.8083858,8.8083858 0 0 1 8.8084,8.80838 8.8083858,8.8083858 0 0 1 -8.8084,8.80839 z"
       style="fill:none;fill-opacity:1;stroke:#ff0000;stroke-width:0.70866144;stroke-miterlimit:4;stroke-dasharray:none;stroke-opacity:1"
       inkscape:connector-curvature="0" />
    <path
       id="path5994-0-9"
       d="m 1021.1403,270.02476 a 8.8083858,8.8083858 0 0 1 -8.8084,-8.80839 8.8083858,8.8083858 0 0 1 8.8084,-8.80838 8.8083858,8.8083858 0 0 1 8.8084,8.80838 8.8083858,8.8083858 0 0 1 -8.8084,8.80839 z"
       style="fill:none;fill-opacity:1;stroke:#ff0000;stroke-width:0.70866144;stroke-miterlimit:4;stroke-dasharray:none;stroke-opacity:1"
       inkscape:connector-curvature="0" />
    <path
       id="path5994-27-3-5"
       d="m 928.046,169.46235 a 8.8083858,8.8083858 0 0 1 -8.8084,-8.80839 8.8083858,8.8083858 0 0 1 8.80839,-8.80838 8.8083858,8.8083858 0 0 1 8.80838,8.80838 8.8083858,8.8083858 0 0 1 -8.80837,8.80839 z"
       style="fill:none;fill-opacity:1;stroke:#ff0000;stroke-width:0.70866144;stroke-miterlimit:4;stroke-dasharray:none;stroke-opacity:1"
       inkscape:connector-curvature="0" />
    <path
       id="path5994-0-6-3"
       d="m 928.046,270.02476 a 8.8083858,8.8083858 0 0 1 -8.8084,-8.80839 8.8083858,8.8083858 0 0 1 8.80839,-8.80838 8.8083858,8.8083858 0 0 1 8.80838,8.80838 8.8083858,8.8083858 0 0 1 -8.80837,8.80839 z"
       style="fill:none;fill-opacity:1;stroke:#ff0000;stroke-width:0.70866144;stroke-miterlimit:4;stroke-dasharray:none;stroke-opacity:1"
       inkscape:connector-curvature="0" />
    <path
       id="path5070-6-4-4-0-9-8"
       d="m 1017.0734,51.94606 a 4.9620493,4.9620493 0 0 1 -4.962,-4.96205 4.9620493,4.9620493 0 0 1 4.962,-4.96204 4.9620493,4.9620493 0 0 1 4.9621,4.96204 4.9620493,4.9620493 0 0 1 -4.9621,4.96205 z"
       style="fill:none;fill-opacity:1;stroke:#ff0000;stroke-width:1.06015849;stroke-miterlimit:4;stroke-dasharray:none;stroke-opacity:1"
       inkscape:connector-curvature="0" />
    <path
       id="path5070-6-4-4-0-2-3"
       d="m 935.09269,51.94606 a 4.9620493,4.9620493 0 0 1 -4.96199,-4.96205 4.9620493,4.9620493 0 0 1 4.96199,-4.96204 4.9620493,4.9620493 0 0 1 4.96209,4.96204 4.9620493,4.9620493 0 0 1 -4.96209,4.96205 z"
       style="fill:none;fill-opacity:1;stroke:#ff0000;stroke-width:1.06015849;stroke-miterlimit:4;stroke-dasharray:none;stroke-opacity:1"
       inkscape:connector-curvature="0" />
    <path
       id="path5070-6-4-4-0-9-6-8"
       d="m 1017.219,372.2273 a 4.9620493,4.9620493 0 0 0 -4.962,4.96205 4.9620493,4.9620493 0 0 0 4.962,4.96204 4.9620493,4.9620493 0 0 0 4.9621,-4.96204 4.9620493,4.9620493 0 0 0 -4.9621,-4.96205 z"
       style="fill:none;fill-opacity:1;stroke:#ff0000;stroke-width:1.06015849;stroke-miterlimit:4;stroke-dasharray:none;stroke-opacity:1"
       inkscape:connector-curvature="0" />
    <path
       id="path5070-6-4-4-0-2-8-96"
       d="m 935.23829,372.2273 a 4.9620493,4.9620493 0 0 0 -4.96199,4.96205 4.9620493,4.9620493 0 0 0 4.96199,4.96204 4.9620493,4.9620493 0 0 0 4.96209,-4.96204 4.9620493,4.9620493 0 0 0 -4.96209,-4.96205 z"
       style="fill:none;fill-opacity:1;stroke:#ff0000;stroke-width:1.06015849;stroke-miterlimit:4;stroke-dasharray:none;stroke-opacity:1"
       inkscape:connector-curvature="0" />
  </g>
</svg>
